<?xml version="1.0" encoding="utf-8"?>
<!-- Generator: Adobe Illustrator 18.0.0, SVG Export Plug-In . SVG Version: 6.00 Build 0)  -->
<!DOCTYPE svg PUBLIC "-//W3C//DTD SVG 1.1//EN" "http://www.w3.org/Graphics/SVG/1.1/DTD/svg11.dtd">
<svg version="1.1" id="Layer_1" xmlns="http://www.w3.org/2000/svg" xmlns:xlink="http://www.w3.org/1999/xlink" x="0px" y="0px"
	 viewBox="0 0 418 307" enable-background="new 0 0 418 307" xml:space="preserve">
<g>
	<g>
		<path fill="#DCDBDB" d="M9,281.7v-3.2h3.7v2.5c0,4.9,2.2,10.1,10.3,10.1c6.3,0,9.5-4.9,9.5-9.8v-30.4h3.8V281
			c0,7.3-4.4,13.4-13.8,13.4C14.4,294.3,9,290.1,9,281.7z"/>
		<path fill="#DCDBDB" d="M58.6,250.7h3.6L78,293.6h-4l-4.8-13.5H51.3l-4.9,13.5h-3.8L58.6,250.7z M68.1,276.9l-7.7-21.7h-0.1
			l-7.9,21.7H68.1z"/>
		<path fill="#DCDBDB" d="M84.7,250.8h4.7l14.2,26.1h0.1l13.9-26.1h4.8v42.8h-3.7v-36.2h-0.1l-13.5,24.7h-3l-13.5-24.7h-0.2v36.2
			h-3.7V250.8z"/>
		<path fill="#C41718" d="M144.1,250.8h13l14,19.2h0.1v-19.2h12.1v42.8h-12.1l-14.9-21h-0.1v21h-12.1V250.8z"/>
		<path fill="#C41718" d="M201.1,250.8h15.7l14.2,42.8h-13.5l-2-6.8h-14.2l-2,6.8h-12.5L201.1,250.8z M212.5,276.9l-4.1-13.9h-0.2
			l-4.1,13.9H212.5z"/>
		<path fill="#C41718" d="M244.6,261.2h-12v-10.4h37.4v10.4h-12v32.4h-13.4V261.2z"/>
		<path fill="#C41718" d="M274.4,250.8h13.4v42.8h-13.4V250.8z"/>
		<path fill="#C41718" d="M292.8,277.8v-11c0-11.6,9.1-16.7,19-16.7c9.8,0,19.3,4.1,19.3,16.7v10.9c0,12.2-9.7,16.6-19.1,16.6
			C302.1,294.3,292.8,290.4,292.8,277.8z M317.5,278v-11.6c0-3.8-2.6-5.8-5.6-5.8c-3.6,0-5.5,1.9-5.5,5.8v11.4
			c0,3.9,1.9,6.1,5.6,6.1C315.4,283.8,317.5,281.6,317.5,278z"/>
		<path fill="#C41718" d="M336,250.8h13l14,19.2h0.1v-19.2h12.1v42.8h-12.1l-14.9-21h-0.1v21H336V250.8z"/>
		<path fill="#C41718" d="M378.6,289.5l6.4-9.4c2.8,2.1,7.2,4.4,11.4,4.4c2.1,0,5-0.4,5-2.5s-1.7-2.5-3.7-3.1l-7.6-2.1
			c-5.9-1.6-10-5.8-10-12c0-7.9,6.7-14.8,17.4-14.8c7.9,0,11.8,1.3,16.6,4.2l-7.1,8.8c-2.3-1.8-6.3-2.9-8.9-2.9
			c-2.8,0-4.8,0.6-4.8,2.6c0,2,2.3,2.2,5.3,3.1l6.2,1.7c7.1,2,10.7,6.2,10.7,11.9c0,10.7-9.8,14.8-18.1,14.8
			C390.3,294.3,384.4,293.6,378.6,289.5z"/>
	</g>
</g>
<g>
	<path fill="#FFFFFF" d="M341.6,119.5c0.3-1.3,0.8-2.6,0.9-4c0-0.8-0.4-1.8-1-2.3c-1.6-1.2-2.7-2.8-3.4-4.6c-0.9-2.5-1.7-5-2.4-7.6
		c-0.5-1.8-1-3.6-1.5-5.3c-0.1-0.2,0-0.4-0.1-0.8c0.6,1.8,1,3.4,1.5,4.9c0.2,0.5,0.8,1.1,1.2,1.1c0.7,0,0.9-0.8,0.9-1.5
		c0-1.7,0-3.5,0.1-5.2c0-0.4,0.3-0.8,0.6-1.2c-0.1,7.7,2,14.6,5.7,21.5c1.1-1.8,2.1-3.2,2.8-4.8c1.9-4.1,4.3-8,6.7-11.7
		c0.3-0.4,0.4-0.8,0.7-1.2c1.1-1.4,1-2.9,0.7-4.5c-0.5-2.4-1.1-4.9-1.6-7.3c-0.9-4.3-2.7-8.3-4.5-12.3c-1.5-3.5-3.2-7-5.7-10
		c-1.8-2.1-3.6-4.3-5.2-6.6c-2.4-3.6-5.3-6.7-8-9.9c-2.4-2.8-5.2-5.2-7.9-7.8c-2.4-2.4-4.8-4.8-7.2-7.2c-0.1-0.1-0.2-0.3-0.2-0.6
		c5,4.7,10,9.4,14.9,14.2c0.1-0.1,0.2-0.2,0.4-0.3c-0.8-1.1-1.5-2.2-2.3-3.2c0.1-0.1,0.1-0.1,0.2-0.2c1,1.1,2.1,2.2,3.1,3.4
		c5.1,5.9,10.2,11.6,15.1,17.6c2.5,3.1,4.6,6.5,6.9,9.7c1.9,2.8,3.8,5.5,5.7,8.3c1.2,1.8,2.4,3.6,3.5,5.4c0.3,0.6,0.4,1.4,0.6,2.1
		c-2.5-3-5.2-5.9-7.5-9c-2.3-3.1-4.2-6.4-6.5-9.5c3.5,7.8,6.1,15.7,6.9,24.2c0.1,0,0.2,0,0.3,0c0.8-1.5,1.7-3.1,2.5-4.5
		c0.9,0,1.6,0.1,2.3,0c0.6-0.1,0.9,0.2,0.8,0.8c-0.2,1-0.4,2.1-0.9,2.9c-2.3,4-4.8,7.8-7.1,11.8c-1.1,1.8-1.9,3.7-2.8,5.6
		c-0.8,1.6-1.5,3.2-2.3,4.8c-0.2,0.4-0.6,0.6-0.9,0.9c-0.3,0.4-0.7,0.7-0.8,1.2c0,0.1,0.5,0.6,0.9,0.7c0.8,0.3,1.6,0.6,2.4,0.8
		c2.1,0.6,3.8-0.1,5-2c0.6,0.1,1.2,0.1,0.8,1.1c-2.2,5.6-5,10.9-8.3,16c-1.1,1.7-2.4,3.4-4.6,3.7c-1.9,0.2-2.2,1.6-2.8,2.7
		c-0.8,1.3-1.4,2.7-2.2,4c0.1,0.1,0.2,0.2,0.4,0.2c1.3-1.8,2.5-3.5,4-5.5c-0.2,0.6-0.4,1.1-0.6,1.5c-2,4.4-4.6,8.5-7.8,12.2
		c-4.6,5.3-7.8,11.4-11.4,17.3c-0.3,0.6-0.7,1.2-0.9,1.8c3-3,5.4-6.5,8.8-9c-3.5,4.1-7.1,8.1-10.3,12.4c-3.2,4.3-5.9,9-9,13.4
		c0.7-1.2,1.3-2.4,2-3.6c-0.1-0.1-0.2-0.2-0.3-0.2c-1.2,1.6-2.5,3.1-3.7,4.8c-1.2,1.7-2.4,3.4-3.6,5.1c-1.2,1.7-2.4,3.3-3.5,5.1
		c-1.1,1.8-2,3.6-3,5.5c-1,1.8-1.9,3.7-2.9,5.5c-0.1,0-0.2-0.1-0.3-0.1c0.4-1,0.8-2,1.2-2.9c-0.1-0.1-0.2-0.1-0.2-0.2
		c-0.5,0.7-1,1.4-1.4,2.1c-3.4,6-6.7,11.9-10,17.9c-0.6,1.1-0.9,2.4-1.3,3.6c-0.3,0.8-1.6,1.5-2.4,1.4c-1.4-0.1-2.8-0.1-4.2-0.1
		c-1.4-0.1-2.8-0.2-4.2-0.2c-8.5,0-17,0-25.5-0.1c-12.5,0-25,0-37.5-0.1c-8.4-0.1-16.9-0.2-25.3-0.3c-1.4,0-0.8,1.1-1.4,1.8
		c-0.8-0.4-1.6-0.9-2.5-1.3c-0.5-0.2-1-0.5-1.5-0.5c-5.3-0.1-10.6-0.1-15.9-0.1c-1.8,0-3.6,0-5.3,0c-0.5,0-1,0.3-1.4,0.4
		c-1-0.2-1.9-0.4-2.9-0.5c-2.3-0.1-4.6,0-6.9,0c-3.7,0-7.5,0.1-11.2-0.1c-2.2-0.1-4.4,0.3-6.6,0.1c-1.5-0.1-3.1,0-4.6,0
		c-0.3,0-0.6-0.1-0.8-0.3c-0.8-1-1.8-1.2-3-1.2c-2.1,0.1-4.2,0.1-6.4,0.1c-0.7,0-1.1-0.6-1-1.3c0.1-0.5,0.1-0.9,0-1.4
		c-1.1-4.9-2.2-9.9-3.3-14.8c-0.6-2.7-1.2-5.5-1.8-8.3c-0.2-0.9-0.4-1.8-1.6-2c-0.2,0-0.4-0.4-0.5-0.6c-0.2-1.1-0.4-2.3-0.6-3.4
		c-0.2-1.2,0.4-1.9,1.3-2.4c1-0.5,0.6-0.8-0.1-1.3c-0.7-0.4-1.3-0.8-1.9-1.3c-0.4-0.4-0.7-1-1-1.6c-0.2-0.3-0.4-0.6-0.7-0.7
		c-1.5-0.7-3.1-1.4-4.6-2.2c-0.2-0.1-0.4-0.5-0.4-0.8c0-0.4,0.2-0.8,0.3-1.2c0.6-1.3,1.1-2.5,1.7-3.8c0.1,0,0.2,0.1,0.3,0.1
		c-0.1,0.3-0.3,0.6-0.6,1.2c1.3-0.6,2.4,0.2,3.5-0.5c1.6-0.9,3.7,0.6,4,2.4c0.3,1.5,0.5,2.7-0.6,3.9c-0.2,0.2,0.1,0.7,0.2,1.1
		c0.1,0,0.3,0,0.4,0c0.1-0.4,0.1-0.8,0.3-1.1c0.2-0.3,0.5-0.7,0.8-0.8c0.2-0.1,0.6,0.4,0.8,0.7c0.7,1.4,1.6,1.6,2.6,0.4
		c1-1.2,2.2-1.6,3.7-1.9c0.6-0.1,1.2-0.4,1.8-0.7c0.4-0.1,0.8-0.2,1.1-0.3c0,0.2,0.1,0.3,0.1,0.5c-1.7,0.5-3.3,0.9-5.2,1.4
		c2.1,1,4.1,1.7,6.3,0.6c0.6-0.3,1.5-0.4,2-0.9c0.5-0.4,0.7-1.2,1.2-2c-1.2-0.1-2.2-0.2-3.1-0.2c0-0.1,0-0.2,0-0.3
		c0.3-0.1,0.6-0.3,1.1-0.5c-0.6-0.2-1.1-0.4-1.5-0.4c-2.5-0.2-4.9-0.3-7.4-0.5c-0.6,0-1.2-0.3-1.8-0.4c0,0.7-0.1,1.5-0.1,2.2
		c-0.1,0-0.3,0-0.4,0.1c-0.2-0.3-0.5-0.7-0.5-1c0.2-2.2-1.5-3.1-3-4.1c-1.4-0.9-2.9-1.7-4.5-2.6c-0.7,0.5-1.6,1.1-2.6,1.8
		c-1.7,1.1-3,2.6-3.9,4.5c-0.3,0.6-0.6,0.9-1.3,0.5c-0.4-0.3-1-0.3-1.7-0.5c0,1,0,1.7,0,2.5c0,2,0,3.9,0.1,5.9
		c0,0.6,0.3,1.3,0.7,1.7c1.9,1.9,4,3.7,6.5,4.5c-0.4,0.4-0.7,0.8-1,1.1c-0.2,0.2-0.5,0.4-0.8,0.4c-1.8,0-3.5-0.4-4.9-1.8
		c-0.1,0.4-0.2,0.7-0.3,1c-0.1-0.1-0.3-0.2-0.3-0.3c-0.2-1.4-0.6-2.7-0.6-4.1c-0.1-3.7,0-7.4,0-11.1c0-0.8-0.2-1.2-1-1.5
		c-0.4-0.1-0.9-0.3-1.3-0.5c-0.7-0.3-1.2-0.7-1.4-1.6c-0.3-1.2-1.2-2.2-1.9-3.3c-2.8-5.1-5.6-10.1-8.3-15.3c-1-1.9-1.7-4.1-2.4-6.1
		c-0.2-0.4,0-1,0-1.6c-0.3-0.1-0.8-0.2-1.1-0.3c0.1-1.2,0.3-2.1,0.4-3.3c0.2,0.2,0.4,0.4,0.6,0.6c0.3,0.7,0.7,1.3,1.6,1.1
		c0.1,0,0.4,0,0.4,0.1c0.6,1.1,1.6,0.8,2.5,1.1c2.6,0.8,5.2,1.5,7.7,2.4c0.7,0.2,1.3,0.4,1.8-0.4c0.2-0.3,0.6-0.4,1-0.5
		c1.7-0.5,3.5-0.9,5.2-1.4c0.2,0,0.3-0.2,0.5-0.3c0-0.1,0-0.2-0.1-0.3c-0.8,0.2-1.5,0.3-2.4,0.5c0.2-0.8,0.3-1.4,0.4-2
		c-0.2-0.1-0.3-0.1-0.5-0.2c-0.4,0.7-0.8,1.4-1.2,2.1c0,0-0.1,0-0.1-0.1c-0.4-0.9,0.4-1.9-0.1-3c-0.4-0.9,0.8-1.9,2-2.1
		c3.9-0.6,3.2-0.4,3.7-4c0.4-3.2,0.8-6.4,1.2-9.6c0.3-2.4,1.1-3.2,3.1-3.3c-0.6,5.5-1.2,11-1.7,16.3c1.4,1,2.8,2,4.1,2.8
		c0.7,0.4,1.7,0.5,1.7,1.6c0,0.1,0.4,0.3,0.6,0.2c0.9-0.4,1.7-0.1,2.5,0.3c0.5,0.3,1,0.3,1.3-0.7c0.2-1,1.2-1.8,1.8-2.7
		c3.1-4.5,7.2-7.8,12-10.3c3.2-1.7,5.2-4.4,6.7-7.4c0.7-1.6,1.3-3.3,2-5c0.2-0.5-0.2-1.4-0.4-2.1c-0.2-0.8-0.7-1.2-1.6-0.9
		c-0.1,0-0.4-0.2-0.6-0.3c-1.1-1.3-2.2-1.7-3.8-1.2c-3.1,0.9-5.8,0.2-8.4-1.8c-2-1.5-2.4-3.3-2.5-5.5c-0.2-2.3-0.2-4.6-0.5-6.9
		c-0.1-0.7-0.7-1.3-1.1-1.9c-0.2-0.3-0.5-0.6-0.4-0.9c0.2-4.3,1.8-7.9,5.1-10.7c2.4-2.1,5.2-2.9,8.4-3c0-0.3,0.1-0.6,0-0.9
		c-0.9-1.7-0.3-3.3,0.5-4.8c0.7-1.4,1.9-2.6,2.7-4c1.7-2.7,4-4.6,6.6-6.4c3.8-2.7,8-2.8,12.4-1.4c0.3,0.1,0.6,0.4,0.9,0.7
		c-3.8-0.1-7.6-0.9-11.2,1.6c1.8-0.3,3.3-0.7,4.8-0.7c2.6,0,5.2,0.1,7.7,0.3c2.2,0.3,3.9,1.5,5.3,3.3c0.4,0.5,1,1,1.5,1.4
		c0.1-0.1,0.1-0.1,0.2-0.2c-1.2-1.3-2.5-2.6-3.7-3.9c0.1-0.1,0.2-0.2,0.3-0.2c1.1,1,2.3,2,3.4,3c0.5,0.4,0.8,1,1.3,1.2
		c2.2,1.2,3.2,3.3,4.5,5.2c0.9,1.4,2.6,2.1,4.2,1.5c1.3-0.5,2.6-1.1,3.9-1.7c0.6-0.3,1.2-0.6,1.8-0.8c1.3-0.4,2.4,0.1,2.7,1.4
		c0.4,1.3,0.8,2.6,0.8,4c0,2.5,0.5,4.8,1.1,7.2c0.2,0.6,0,1.2-0.2,1.8c-0.2,0.7-0.7,1.2-0.9,1.9c-0.5,1.3-0.9,2.5,0,4
		c0.9,1.7,1.2,3.7,1.9,5.7c0.6-0.3,1.4-0.6,2.4-1.1c-0.2,0.5-0.2,0.6-0.3,0.6c-2,0.9-2.5,2.7-2.6,4.7c0,0.5-0.6,1.1-1,1.5
		c-0.2,0.3-0.7,0.3-0.8,0.6c-0.7,1-1.7,1.1-2.8,0.9c-1.5-0.2-2-0.8-2-2.4c0-0.6-0.1-1.1-0.3-1.7c-1.2,1.8-1.8,3.6-1.2,5.7
		c0,0.1,0.1,0.1,0.1,0.2c0.5,1.1,0.3,2.7,2.4,2.5c1.3-0.1,2.6,0.1,3.7-0.8c0.3-0.2,0.8-0.2,1.2-0.3c0,0.4,0,0.9-0.1,1.3
		c-0.1,0.3-0.3,0.6-0.5,0.8c-1.1,1-1.9,2.1-1.6,3.7c0.1,0.3-0.6,0.7-1.1,1.3c-0.1,1.6-1.9,2.5-3.8,1.6c-1.9-0.8-3.5-1.9-4-4
		c-0.9,0.1-1.5,0.3-1.6,1.2c-0.1,0.8-0.5,0.9-1.2,0.2c-1.3,3-2.5,5.8-3.7,8.7c-0.1,0-0.2,0-0.3-0.1c0.2-1.2,0.3-2.4,0.5-3.9
		c-1.2,1.4-2.1,2.4-3.1,3.6c0.1,0.1,0.4,0.3,0.5,0.5c0.1,0.4,0.4,1,0.2,1.4c-0.4,0.8-1.1,1.4-1.7,2.1c0.1-0.8,0.2-1.6,0.3-2.5
		c-1.4,0.1-2,0.4-2.7,1.6c-1.2,1.7-2.7,2.9-4.5,3.7c-0.3-1.6,0.5-2.8,1.2-4c0.7-1.1,1.2-2.4,1.8-3.6c0.7-1.4,1.4-2.8,2.1-4.3
		c0.1,0,0.1,0,0.2,0.1c0,0.3,0,0.7,0,1.2c1.1-1.1,2-2.1,2.2-3.4c-1,0-2,0.3-2.7-0.1c-1-0.5-1.7-0.4-2.6,0c-0.3,0.2-0.7,0.3-1,0.3
		c-1.9-0.1-3.5,0.6-5.2,1.2c-1.1,0.4-2.2,0.8-3.3,1c-0.9,0.2-1.9,0-2.8,0c1.1-0.6,2.1-1.1,3.3-1.8c-0.9,0-1.6,0-2.6,0
		c0.6-0.4,0.9-0.6,1.1-0.8c-1.8-1.4-3.6-2.8-5.6-4.4c0.9,2.6,1.7,5,2.5,7.3c0.6-0.1,1-0.2,1.4-0.4c-0.3,0.7-0.5,1.4-0.8,2.2
		c-0.1,0.2-0.1,0.5-0.2,0.7c-1.3,1.5-1.3,1.5-0.3,3.1c-0.7,0.5-1.4,0.9-0.2,1.7c0.2,0.1,0.2,0.7,0.3,1.1c0.2,0.5,0.3,1.1,0.7,1.6
		c0.7,0.9,1.5,1.8,2.4,2.8c-1.6,0.3-2.2-0.9-3.2-1.6c0,1-0.2,1.9,0,2.6c0.4,1.4,0.9,2.4,2.8,1.9c1.4-0.3,2.8-0.7,4.2-0.9
		c2.7-0.4,5.5-0.8,8.2-1.1c1.1-0.1,1.5-0.7,1.7-1.7c0.4-1.3,0.9-2.5,1.3-3.8c-0.3,1.5-0.6,2.9-1,4.8c1.4-0.6,2.5-1.2,3.6-1.7
		c0.9-0.4,1.8-0.8,2.8-1.2c0.2-0.1,0.5,0,0.7,0c0,0.2,0,0.5,0,0.7c-0.4,1,0.2,2,1.4,2.2c1,0.2,2,0.4,3.1,0.6
		c1.9,0.4,3.1,1.9,4.6,2.9c0.8,0.5,1.4,1.1,2.3,0.8c0.3,0.6,0.4,1.4,0.8,1.8c0.4,0.4,1.2,0.4,1.7,0.6c0.3-0.5,0.7-1.1,1.2-1.9
		c0.4,2.1,0.8,3.8,1.1,5.5c0,0-0.2-0.1-0.6-0.2c-0.2,4.4-0.4,8.7-0.6,13c0.1,0,0.4-0.1,0.7-0.1c3.9-0.8,7.8-1.7,11.8-2.4
		c1.6-0.3,2.4-1.2,3.3-2.3c1.6-2.1,3.3-4.2,5.2-6c1-0.9,2.6-1.1,4-1.6c1.9-0.6,3.9-1.2,5.8-1.8c4.1-1.3,8.2-2.6,12.4-3.8
		c7.6-2.2,15.1-4.9,22.4-7.8c0.7-0.3,1.3-0.8,1.9-1.3c1.5-1.2,3.1-1.9,4.9-2.5c1.4-0.5,2.8-1.2,4.2-1.9c0.2-0.1,0.5-0.2,0.8-0.2
		c1.4-0.1,2.8-0.3,4.2-0.4c0.8,0,1.1-0.4,1.1-1c0.1-1.7,0.1-3.5,0.1-5.2c0-0.3-0.2-0.6-0.4-0.9c-0.6-1.1-0.3-2.1,0.8-2.2
		c4.5-0.6,9.1-0.7,13.6,0.5c0.5,0.1,0.9,0.5,1.5,0.9c-0.1-0.6-0.2-1.3-0.3-2c0.4,0.8,0.7,1.5,1.1,2.2c0.1-0.1,0.2-0.1,0.3-0.2
		c-0.3-1.4-0.4-2.8-2-3.5c-0.1-0.1-0.2-0.4-0.3-0.6c-0.2-1.2-1.2-2.2-0.9-3.5c0.1-0.3-0.5-0.7-0.8-1.1c-0.2-0.3-0.5-0.5-0.5-1
		c0.4,0.4,0.8,0.8,1.3,1.2c0.1-0.1,0.2-0.1,0.3-0.2c-0.7-1.1-1.4-2.2-2-3.3c-0.5-0.8-0.8-1.7-1.2-2.6c-0.1-0.2-0.2-0.5-0.1-0.7
		c0.9-1.1-0.1-1.8-0.5-2.6c-0.1-0.2-0.5-0.2-0.8-0.3c-0.9-1.3-1.9-2.8-2.8-4.2c-0.9-1.4-1.6-2.8-1.5-4.6c0.1-1.2-0.2-2.7-1.4-3.8
		c-0.3,0.3-0.4,0.6-0.8,1.1c-0.2-0.7-0.3-1.3-0.4-1.9c0.5,0.1,0.7,0.2,1.1,0.2c0-0.2,0-0.4-0.1-0.4c-0.3-0.2-0.6-0.5-0.9-0.5
		c-1.3-0.1-2.2-0.6-2.5-2c-0.1,0-0.2,0.1-0.3,0.1c0,0.7,0,1.3,0,2c0,1.3,0.1,2.7,0.2,4c0.1,1.9,0.4,3.8,1.8,5.4
		c-1.1,0.2-1.8-0.2-2.2-1.4c-0.5-1.6-1-3.2-1.5-4.8c-0.2-0.7-0.6-1.4-0.9-2.1c-0.9-2.1-0.8-4.4-0.5-6.6c0-0.3,0.7-0.8,0.9-0.7
		c0.9,0.3,1.8,0.6,2.6,1.1c0.7,0.5,1.2,1.2,1.9,1.9c1.4-1.7,0.2-3.2,0-4.7c-0.7,0.3-1.2,0.5-1.8,0.7c-0.1,0.3-0.2,0.7-0.3,1.2
		c-0.6-1.3-0.6-1.5,0.3-2.5c0.1-0.2,0.3-0.4,0.2-0.6c-0.2-1.7-0.4-3.4-0.7-5.1c-0.2-1.1-0.4-2.3-0.7-3.4c-0.2-0.9,0.1-1.9-1-2.4
		c-0.1,0-0.1-0.5,0-0.7c0.6-1.5,0.8-3,0.4-4.6c-0.1-0.3,0-0.7,0.1-0.8c1.9-1.7,3.8-3.6,5.9-5.1c1-0.8,2.5-0.9,3.8-1.4
		c2.4-1.1,4.4-2.4,5.1-5.2c0.2-0.8,0.8-1.5,1.2-2.2c0.2-0.4,0.4-0.7,0.7-1.3c-0.8,0.2-1.4,0.4-1.9,0.5c-0.1-0.1-0.1-0.2-0.2-0.3
		c0.2-0.2,0.4-0.5,0.6-0.7c0.6-0.5,1.1-1.2,1.7-1.5c0.9-0.4,1.9-0.4,2.9-0.7c0.6-0.1,1.3-0.2,1.7-0.5c2.3-1.6,4.8-2.2,7.5-2.1
		c1.1,0,2.2-0.1,3.2-0.3c3.9-0.6,7.2,0.8,10.1,3.1c1.9,1.4,3.7,3,3.9,5.6c0.1,1.4,0.1,2.9-0.1,4.3c-0.2,1.2,0.1,2.2,0.4,3.2
		c0.4,1.2,0.7,2.4,1,3.6c0.2,0.9,1.3,1.6,2.2,1.3c0.5-0.2,1.1-0.4,1.6-0.6c0.4,1,0.4,1.8-0.2,2.6c-1.3,1.6-2.4,3.3-3.8,4.6
		c-1.7,1.6-2.1,3.6-2.8,5.6c-0.1,0.4-0.2,0.7-0.4,1.1c-0.5,1.3-0.1,2.8,1.1,3.4c0.8,0.4,1,1.1,1,1.8c0,2,0.2,4-0.5,5.9
		c-0.3,0.9,0,2.1-0.2,3.1c-0.2,1.2-0.5,2.4-0.7,3.6c-0.2,1-0.7,1.1-1.4,0.3c-0.2-0.2-0.4-0.3-0.9-0.7c-0.5,6.6-0.6,13-0.5,19.4
		c1.6,0.1,2.9-0.3,4-1.2c2.2-1.7,4.4-3.5,6.6-5.2c2.8-2.2,5.5-4.4,8.3-6.4c1.2-0.8,2.7-1.1,3.9-1.9c0.9-0.6,1.7-1.6,2.2-2.6
		c0.5-1,0.4-2.2,0.7-3.3c0.1-0.4,0.3-0.7,0.4-1.1c0.1,0,0.2,0,0.3,0c0.2,1.1,0.4,2.1,0.7,3.5c1.3-0.8,2.5-1.5,3.7-2.2
		c0.1,0.1,0.1,0.1,0.2,0.2c-1,0.9-2.1,1.8-3.1,2.6c-0.8,0.6-1.2,1.4-1.1,2.5c0.8,5.9,1.5,11.9,4.2,17.4c0.9,1.8,2,3.4,3.2,5
		c0.8,1.1,1.1,1,1.8-0.2c0.1-0.1,0.2-0.2,0.4-0.3c-0.2,0.4-0.3,0.8-0.5,1.2c-0.3,0.7,0.1,1.2,0.7,1.3c0.3,0.1,0.9-0.2,1-0.4
		c0.7-1.1,1.4-2.3,2-3.5c0.2-0.4,0.4-1.3,0.2-1.5c-0.5-0.5-1.3-0.9-1.9-0.2c-0.5-0.7-0.9-1.3-1.3-1.9c0.6-0.1,1.5-0.1,2-0.5
		C340.8,120.9,341.2,120.1,341.6,119.5c-0.4,0.9-0.8,1.8-1.2,2.8c1.5,0.7,2.1,0.5,2.8-0.8c0.3-0.7,0.7-1.3,1-2
		c0.5-1.1,0.1-2.1-0.3-3.3C343,117.4,342.3,118.5,341.6,119.5z M347.4,124.6c-0.9,2.2-1.7,4.4-2.6,6.7c0.5,0.1,0.8,0,1.1,0.1
		c1.5,0.5,1.6,0.5,2.4-0.9c0.9-1.5,1.8-3,2.6-4.5c0.6-1.1,1.2-2.2,1.7-3.2c-1.7,0.2-3.1,0.6-4.5,1.1
		C347.8,123.9,347.6,124.4,347.4,124.6c-0.1-0.1-0.3-0.5-0.4-0.5c-1.3-0.1-2.7-0.2-4-0.2c-0.2,0-0.4,0.2-0.5,0.3
		c-1.1,2-2.2,4-3.4,6.2c0.7,0.3,1.3,0.6,1.9,0.7c2.4,0.5,2.3,0.8,3.6-1.6C345.5,127.8,346.5,126.2,347.4,124.6z M170.3,92.8
		c-0.9-0.9-1.9-1.7-2.8-2.6c-0.1,0.1-0.2,0.2-0.3,0.2c0.4,0.7,0.8,1.5,1.1,2.2C168.7,93.5,169.5,93.5,170.3,92.8
		c0.9,0.3,1.7,0.4,2.3-0.6c0.1-0.2,0.7-0.3,1-0.2c0.8,0.3,1.5,0.7,2.3,1.2c0.3,0.2,0.4,0.6,0.6,0.9c0.2,0.3,0.4,0.5,0.6,0.8
		c0.1-0.1,0.2-0.1,0.3-0.2c-0.1-0.8-0.3-1.6-0.4-2.3c-0.3-1.5-0.6-3-1-4.5c-0.2-0.8-0.7-1.3-1.5-0.9c-1.6,0.7-3.3,1.5-5.2,2.4
		c0.7,0.5,1.2,0.9,1.7,1.2c-0.1,0.1-0.2,0.2-0.2,0.3c-0.6-0.3-1.3-0.7-2.1-1.1C169.2,90.9,169.7,91.8,170.3,92.8z M131.2,159.8
		c0.4,0,0.9,0.1,1.3,0c4.7-1.6,9.1-3.9,13.2-6.6c1.3-0.9,2.6-1.8,4-2.7c0-0.1-0.1-0.2-0.1-0.3c-2.2,0.9-4.5,1.8-6.7,2.8
		c-1.3,0.6-2.5,1.7-3.8,2.1C136,156.1,133.4,157.6,131.2,159.8c0.5-0.9,1-1.9,1.5-2.9c-0.8,0.1-1.5,0.3-2.3,0.4
		c0-0.1-0.1-0.2-0.1-0.3c2.5-1.3,5-2.6,7.5-3.9c-0.1-0.1-0.1-0.2-0.2-0.4c-1.7,0.3-3.3,0.6-5,0.8c-0.9,0.1-1.8,0.2-2.7,0.1
		c-1.5-0.1-2.5,0.5-2.9,2c-0.3,0.8-0.5,1.7-0.7,2.6c-0.3,1.1-0.4,2.3-0.7,3.7C127.7,161.3,129.7,161.2,131.2,159.8z M288.4,147
		c0,0-0.1,0-0.1,0c0.2-1.6,0.5-3.1,0.7-4.7c-0.1,0-0.2,0-0.3-0.1c-0.6,2-1.3,4.1-1.9,6.1c-0.4-2.6,0.4-4.9,1.4-7.1
		c1-2.2,2.1-4.3,3.2-6.5c-1.1,0.3-1.2,0.2-0.9-2c-0.6,0.3-1.2,1-1.7,1c-1.4-0.2-2.3,0.1-3.2,1.3c-0.8,1.2-2.3,1.9-3.5,2.8
		c-0.3,0.2-0.6,0.5-1.1,0.9c0.6,0.1,0.9,0.2,1.2,0.2c-2.2,0.2-3.7,1.6-5.3,2.7c-3.2,2.1-6.4,4.2-9.6,6.3c-0.7,0.5-1.7,0.8-2.2,1.5
		c-1.1,1.5-2,3.1-2.9,4.6c0,0-0.2-0.3-0.4-0.6c-1,1.4-2.2,2.6-2.9,3.9c-0.5,0.9-0.8,2.2-0.5,3.1c0.5,1.5-0.1,2.7-0.5,4
		c-1.2,3.7-2.6,7.3-3.7,10.9c-0.4,1.3-0.8,2.5-2.2,3.1c-0.5,0.2-0.9,0.6-1.4,0.9c0.1,0,0.2,0.1,0.3,0.1c-0.2,1-0.4,2-0.6,3
		c-0.6,3.6-1.1,7.1-1.7,10.7c-0.1,0.8-0.5,1.5-0.7,2.3c-0.1,0.4,0.1,0.8,0.1,1.2c0,0.3-0.1,0.7-0.2,1c0.4,0,0.8,0,1.2,0
		c0.3,5.3-0.6,10.7,1.1,16c-2.1-3.8-1.3-8.1-1.8-12.2c-0.1,0-0.3,0-0.4,0c-0.2,1.3-0.5,2.5-0.7,3.8c-0.2-0.1-0.5-0.2-1-0.4
		c-0.2,3.5-0.3,6.8-0.4,10c-0.2-0.2-0.3-0.3-0.3-0.5c-0.7-5.5-1-10.9-0.4-16.4c1.1-9.6,3.2-18.9,6.9-27.9c2.7-6.5,4.7-13.2,8.2-19.4
		c0.2-0.4,0.4-0.9,0.7-1.7c-1.3,0.5-2.2,0.9-3.1,1.2c-1.8,0.6-3.2,1.9-4.3,3.4c-0.6,0.7-1.1,1.5-1.6,2.3c-1.9,3.5-3.7,7-5.6,10.5
		c-0.4,0.8-0.1,1.2,0.6,1.6c0.8,0.4,1.4,1,2.1,1.5c-0.1,0.1-0.1,0.2-0.2,0.3c-1-0.6-2-1.2-3.1-1.9c-0.2,0.5-0.4,0.9-0.5,1.2
		c-2.5,6.5-4.5,13.2-5.4,20.1c-0.6,4.5-1.5,9.1-1.9,13.6c-0.4,5.8,0.3,11.5,2.2,17c0.1,0.4,0.1,0.9,0.2,1.4
		c-1.2-0.5-0.8-2.1-2.3-2.4c-0.6-3.9-1.2-8-1.8-12.2c0,0.1-0.1,0.2-0.1,0.3c-1.3,6.6-0.7,13.4-1.1,20.1c0,0.8,0.4,1,1.1,1
		c1.7,0,3.4,0,5.1,0c10.5,0,21,0,31.5,0c2.9,0,5.9,0,8.8,0c1.4,0,1.9-0.7,1.6-2.1c0-0.2,0.1-0.4,0.2-0.6c0.4-0.8,0.8-1.7,1.2-2.5
		c2.5-5,5.1-10,7.6-15c0.4-0.8,1.1-1.5,1.6-2.3c2.4-3.9,4.7-7.8,7.1-11.6c3.1-5,6.3-9.9,9.3-15c3.3-5.7,6.5-11.6,9.7-17.4
		c2.1-3.8,4.2-7.7,6.2-11.5c2.8-5.3,5.5-10.6,8.3-15.9c0.5-0.9,0.5-1.6-0.1-2.4c-1-1.5-2-3-2.7-4.7c-0.8-1.8-1.4-3.6-1.8-5.5
		c-0.7-3.3-1.3-6.6-1.9-9.9c-0.1-0.5-0.4-0.9-0.7-1.5c0.1-0.4,0.3-1,0.3-1.6c0-1.1-0.2-2.1-0.3-3c-1.6,1.2-3.3,2.5-5,4
		c-1.7,1.4-3.3,2.9-4.9,4.4c-2.4,2.5-4.8,5-7.7,6.9c-0.5,0.3-0.8,0.9-1.5,1.7c-1.9,0.4-2,0.3-4.1,1.9c-2.5,2-5,4.1-7.3,6.3
		c-2.9,2.8-5.3,6.1-6.3,10.1C289.2,142.8,288.9,144.9,288.4,147z M169.5,191.3c-0.1,0-0.2,0-0.3,0c0-0.5,0-0.9,0.1-1.4
		c0.5-2.3,1-4.6,1.4-6.9c0.2-1.2,0.3-2.5,0.3-3.8c-0.2-3.1-0.5-6.1-0.8-9.2c-0.1-0.7,0.1-1,0.8-1.1c1-0.2,1.9-0.5,2.9-0.6
		c1.9-0.3,2.3-0.9,2.3-2.7c0-0.9,0.1-1.8,0.2-2.6c0.2-2.3,0.5-4.6,0.7-6.9c0.1-2.1-0.1-4.2-2.8-4.6c-0.4-0.1-0.7-0.6-1.1-0.8
		c-1.6-0.9-3.2-1.9-4.8-2.7c-2.4-1.1-5-0.6-7.6-0.7c-1,0-2.2-0.1-3.1,0.2c-2.4,0.9-5.1,1.4-6.9,3.5c-0.3,0.3-0.7,0.5-1,0.8
		c-1.9,1.4-4,2.6-5.7,4.2c-1.4,1.3-2.9,2.4-4.6,3.1c-4,1.6-8.1,2.9-12.2,4.4c-1,0.4-2.3,0.8-2.9,1.5c-0.8,1.1-1.5,1.6-2.8,0.7
		c0,0.2,0,0.4,0,0.5c1.4,3.8,2.7,7.7,4.1,11.5c0.1,0.4,0.3,0.9,0.1,1.2c-0.3,0.6-0.8,1.2-1.1,1.8c-0.9-1.7-2.1-3.5-2.9-5.4
		c-0.9-2.1-1.6-4.3-2.4-6.4c-1-2.6-2-5.1-3-7.6c0-0.1-0.2-0.1-0.3-0.2c0,0.3,0,0.6,0,0.8c-0.1,0-0.1,0.1-0.2,0.1
		c-0.4-0.8-0.8-1.6-1.2-2.3c0.1,1,0.1,2,0.5,2.8c2.3,5.7,4.6,11.3,6.9,16.9c0.4,0.9,0.5,2.2,1.9,2.2c0.1,0,0.2,0.3,0.5,0.5
		c0.6-0.5,1.2-1.1,1.9-1.5c0.3-0.2,0.9-0.2,1,0c0.8,1.2,1.9,1.7,3.3,1.7c-0.9,0.2-1.7,0.3-2.4,0.4c0,0.6-0.1,1.1-0.1,1.6
		c6-2,11.8-5.2,18.4-3.5c-0.2,0.1-0.3,0.2-0.5,0.2c-1.9,0.1-3.9,0-5.8,0.5c-4.2,1.1-8.3,2.5-12.5,3.9c-0.4,0.1-0.9,0.7-1,1.1
		c-0.4,1.5-0.8,3-1,4.5c-0.4,2.3-0.1,2.5,2.2,3c2.5,0.6,5,1.3,7.5,1.9c0,0.1-0.1,0.2-0.1,0.3c-2.3-0.5-4.6-0.9-6.9-1.4
		c-0.8-0.1-1.6-0.6-2.2-0.4c-1.4,0.5-2.3,0-3.3-0.8c-0.8-0.6-1.6-0.7-2.6-0.1c-1.3,0.8-2.6,1.5-4,2c-1.2,0.4-2.6,0.6-3.5-0.8
		c-0.1-0.2-0.6-0.2-0.9-0.2c-1,0.2-1.9,0.5-2.9,0.7c0.1,0.4,0.3,1,0.4,1.6c0.8,4.3,1.6,8.6,2.4,12.8c1.1,5.7,2.2,11.3,3.2,17
		c0.2,1,0.4,1.4,1.5,1.3c8.3-0.1,16.7-0.1,25-0.1c3.9,0,7.8,0,11.7,0c0.8,0,1.3-0.1,1.2-1.2c-0.2-1.5-0.3-3-0.5-4.5
		c-0.1-0.4-0.4-0.9-0.8-1.2c-1-0.7-1.9-1.4-1.7-2.8c0.1-1.1,0.4-2.2,0.5-3.2c0-0.3-0.1-0.9-0.3-1c-1.5-0.9-1.7-1.5-0.8-2.9
		c2.3-3.7,3.9-7.8,6.9-11.1c0.7-0.7,0.4-1.3-0.6-1.4c-3.3-0.3-6.6-0.6-9.9-0.9c-0.2,0-0.4-0.1-0.7-0.2c0-0.1,0-0.3,0-0.4
		c1.6-0.2,3.2-0.6,4.9-0.7c1.7-0.1,3.3,0,5,0c0-0.1,0-0.2,0-0.4c-4.2,0-8.5,0-12.7,0c0-0.1,0-0.2,0-0.3c0.4,0,0.7-0.1,1.1-0.1
		c1.7-0.1,3.5-0.1,5.2-0.2c4.1-0.3,8.2,0.5,12.2-0.4c0.1,0,0.2,0,0.2,0c1.3,1,2.7,0.4,4.1,0.3c0.5,0,1,0.1,1.5,0.1
		c-0.3,2-0.3,2-2,2.3c-1.1,0.2-2.2,0.3-3.3,0.6c-0.4,0.1-0.9,0.4-1.1,0.7c-2,3.5-3.9,7-5.8,10.5c-0.3,0.5-0.4,1.3-0.3,1.9
		c0.5,3.5,1.1,7.1,1.6,10.6c0.3,1.8,0.4,3.6,0.6,5.5c6.6,0,13.2,0,19.9,0c-0.1-1.7-0.2-3.4-0.3-5c0-0.5-0.3-0.9-0.6-1.3
		c-0.9-1.2-1.9-2.3-2.8-3.6c-1.3-1.8-2.2-3.8-2.3-6.1c0-0.5,0.1-1,0.3-1.4c0.6-1,1.4-2,1.9-3c0.3-0.6,0.6-1.4,0.5-2.1
		c-0.5-4.2-1.2-8.3-1.8-12.5c-0.1-0.6-0.3-1.2-0.5-2.1c-0.2,0.4-0.3,0.4-0.3,0.5c-0.6,2-1.1,3.9-1.7,5.9c-0.1,0.4-0.3,1-0.5,1
		c-0.9,0-0.9,0.8-1.2,1.3c-0.3,0.6-0.5,1.2-0.7,1.7c-0.1,0-0.3-0.1-0.4-0.1c1.4-4.9,2.7-9.8,4.1-14.7c-0.1,0-0.2-0.1-0.4-0.1
		C170.4,188,170,189.6,169.5,191.3z M183.1,227.9c2.8,0,5.4,0,8,0c8.3,0,16.7,0,25,0c1,0,1.1-0.3,0.9-1.2c-0.8-3.3-1.5-6.6-2.2-9.9
		c-0.2-0.7-0.3-1.5-0.5-2.2c0,0-0.1,0-0.1,0c0.1,3,0.3,6,0.4,9c-0.5-3.1-0.9-6.2-1.2-9.2c-0.3-3.5-0.5-7-0.9-10.5
		c-0.5-4.3-1.2-8.6-1.6-13c-0.5-5.3-0.8-10.7-1.2-16c-0.1-1.3-0.2-2.7-0.8-3.8c-0.5-0.9-0.6-1.6-0.2-2.4c0.4-0.7,0.9-1.3,1.4-1.9
		c-0.2-0.4-0.4-0.9-0.7-1.3c-0.3-0.4-0.8-0.8-1.2-0.9c-0.3,0-0.7,0.5-1.1,0.8c-0.3,0.3-0.5,0.7-0.8,0.9c-0.8,0.4-1.6,0.6-2.5,0.9
		c-0.6,0.2-1.3,0.5-1.9,0.4c-1.5-0.2-2.5,0.7-3.7,1c0,0.1,0,0.2,0,0.3c1.3,0.1,2.7,0.1,4,0.2c0,0.1,0,0.2,0,0.3
		c-0.2,0.1-0.5,0.2-0.7,0.3c-2.8,0.3-5.6,0.5-8.4,0.8c-2.9,0.4-5.8,0.4-8.5,1.6c-1.4,0.7-2.9,1.2-4.4,1.8c-1.1,0.4-2.7,0.5-3.2,1.3
		c-0.6,0.9-0.1,2.4-0.1,3.6c0,0.2,0,0.3,0,0.5c0.1,0.2,0.1,0.4,0.2,0.5c1,0.3,0.9,1.1,0.9,1.8c0.3,4.7,0.4,9.3,0.7,14
		c0.2,3.3,0.4,6.7,1,10c0.8,4.8,2,9.6,3,14.3c0.1,0.6,0.3,1.2,0.4,1.9c-0.1,0-0.1,0-0.2,0c-0.6-1.6-1.2-3.2-1.8-4.8
		c0.2,1.9,0.6,3.6,0.9,5.4C182.6,224.1,182.8,226,183.1,227.9z M298.3,82.8c-0.1,0.2-0.2,0.3-0.2,0.5c-0.3,0-0.7-0.1-1-0.1
		c-1.5-0.1-3-0.4-4.5-0.2c-2.4,0.2-4.8,0.6-7.3,1c-3.9,0.6-7.6,2.1-10.8,4.5c-3,2.4-5.4,5.1-6.8,8.8c-0.2,0.6-0.4,1.4-0.2,1.9
		c0.7,1.8,1.7,3.5,2.6,5.4c0.2-0.3,0.3-0.4,0.4-0.6c0.3,0.5,0.5,0.8,0.7,1.3c0.6,1.7,1.8,2.7,3.3,3.6c1.3,0.7,2.8,1.2,4.2,0.5
		c1.3-0.6,2.5-1.6,3.8-2.2c2.5-1.2,5.1-2.2,7.8-3.2c0.4-0.2,1.1,0.1,1.6,0.3c0.9,0.5,1.8,1.1,2.7,1.6c1.4,0.6,1.9,0.4,2.8-0.9
		c1.6-2.4,2-5.1,2.5-7.9c0.4-2.1,0.6-4.3,1.1-6.4c0.3-1.3,0.8-2.7,0.2-3.8c-0.7-1-1.2-1.9-1.2-3.1c0-0.1-0.2-0.2-0.3-0.3
		c-0.1-0.2-0.2-0.3-0.2-0.5c-0.1-1.2-0.3-2.4,0.4-3.6c0.4-0.6,0.5-1.4,0.7-2.2c-0.2-0.1-0.2-0.2-0.3-0.2c-4.4-1.2-6.5-4.5-7.5-8.6
		c-0.5-1.9-0.6-3.9-0.7-5.8c-0.1-2.3-0.5-2.9-2.7-3.5c-0.6-0.2-1.2-0.3-1.8-0.5c-0.3-0.1-0.5-0.4-0.8-0.7c0.3-0.1,0.7-0.3,1-0.3
		c0.3,0,0.5,0.1,0.9,0.1c-1.2-1.7-3.6-1.3-5,0.7c1.3,0.2,2.6,0.4,3.9,0.7c-5.3-0.4-5.3-0.2-7.7,3.9c-0.3-0.3-0.6-0.7-1-0.8
		c-0.8-0.2-1.7-0.6-2.3-0.4c-1.4,0.6-2.7,1.6-4,2.5c-2.1,1.5-4.1,3.1-5.4,5.5c-0.4,0.8-1.1,1.5-1.6,2.3c-0.2-0.4-0.1-0.8,0.1-1
		c1.8-3.1,4.2-5.8,7.4-7.7c0.3-0.2,0.4-0.5,0.7-0.8c-0.1-0.1-0.2-0.2-0.3-0.4c-0.8,0.4-1.7,0.6-2.4,1.2c-1.5,1.4-2.8,3-4.4,4.4
		c-0.9,0.8-1.6,1.8-2.9,2.2c-0.8,0.3-2,1-2.2,1.7c-0.3,1.4,0,3,0,4.5c0.1,0,0.3,0,0.4,0c0.3-1,0.6-2,1-3c0.2,0,0.3,0,0.5,0.1
		c-0.3,3.1-0.5,6.1-0.8,9.2c0.1,0,0.2,0,0.3,0c0.5-2.8,0.9-5.7,1.4-8.5c0.1,0,0.1,0,0.2,0c0.1,0.2,0.1,0.4,0.2,0.7
		c1.2-1.9,2.2-3.8,3.4-5.5c0.9-1.4,2.2-2.1,4-1.9c-0.3,0.3-0.6,0.4-0.9,0.6c-0.8,0.7-1.8,1.4-2.4,2.3c-2.5,3.8-4.3,8-4.9,12.6
		c0,0.3,0,0.6,0,0.9c0.1,0,0.2,0.1,0.3,0.1c0.2-0.5,0.5-1,0.6-1.5c0.1-0.6,0-1.2,0.2-1.7c1.1-2.9,2.3-5.7,3.5-8.5
		c0.2-0.5,0.8-0.9,1.1-1.3c0.1,0.1,0.2,0.2,0.3,0.3c-2.8,4.5-4.5,9.4-4.3,14.8c-0.1,0-0.2,0-0.3,0c-0.2-0.2-0.3-0.5-0.5-0.8
		c-0.2,0.4-0.3,0.7-0.5,1c-0.1,0-0.1,0-0.2,0c0-0.4,0-0.7,0-1.3c-1.2,1.1-1.1,2.5-0.9,3.7c0.2,1.5,0.7,3,0.6,4.5
		c-0.1,1.3,0.7,2.4,1.7,3.6c0.1-1.8,0.3-3.2,0.2-4.6c-0.1-1.4,0-2.8,0.3-4.2c0.3-1.3,0.5-2.7,0.7-4c0.2,0,0.3,0,0.5,0.1
		c-0.7,2.2-1.1,4.4-0.1,6.7c1.8-0.6,3-1.9,4-3.2c1.3-1.7,3-2.8,4.9-3.8c1.1-0.6,2.2-1.3,3.3-2c-4.4,0.7-8.5,2.2-12.2,4.7
		c0.1-0.4,0.3-0.7,0.5-0.9c0.4-0.2,0.9-0.3,1.3-0.6c0.9-0.5,1.7-1.3,2.6-1.7c3.7-1.8,7.5-3.4,11.6-4.1c0.9-0.2,1.7-0.7,2.5-1.1
		c0.6,0.1,1.4,0.4,2.1,0.4c2.5,0,5.1-0.2,7.6-0.2c0.4,0,0.9,0.4,1.3,0.5c0,0.2-0.1,0.4-0.1,0.5c-1.8,0-3.7,0-5.5,0
		c0,0.1,0,0.2,0,0.3C294.1,79.8,296.2,81.3,298.3,82.8z M232.6,227.5c-0.2-0.6-0.4-1.2-0.6-1.8c-0.7-2.9-1.6-5.8-1.6-8.8
		c0-3.4,0-6.7,0.1-10.1c0-5.8,0.2-11.7,1.3-17.4c0.8-4.1,1.7-8.1,2.5-12.1c0.1-0.5,0.2-1.1,0.2-1.4c-1.3-0.3-2.3-0.4-3.3-0.8
		c-5.1-2-10.2-4.2-15.3-6.3c-1.3-0.5-2.6-1.1-3.9-1.7c2.2,20.2,4.4,40.4,6.6,60.5C220.9,228.2,231.6,228,232.6,227.5z M151.7,104.9
		c0-0.2,0-0.3-0.1-0.5c-5.2-1.1-10.3,0.6-15.4,1.3c1.7-0.6,3.4-1.1,5.1-1.5c1.7-0.4,3.5-0.7,5.3-1c0-0.1,0-0.2,0-0.4
		c-2.9,0.3-5.8,0.5-8.7,0.8c0-0.1,0-0.1,0-0.2c3.5-0.4,7.1-0.8,10.6-1.2c0,0.1,0,0.2,0.1,0.3c-0.2,0.2-0.5,0.3-0.7,0.5
		c1.8,1.1,2.6-1,4.1-1.2c0.1,0,0.1-0.4,0.1-0.6c0-1.8,0-3.6,0-5.4c0-0.7,0-1.6-0.3-2.1c-0.9-1.1-2-2.1-3.1-3.1
		c-0.6-0.6-1.5-1-1.9-1.8c-0.6-1.1-1.2-1.8-2.5-1.8c-0.3,0-0.6-0.3-0.9-0.5c0.2-0.3,0.4-0.6,0.6-0.9c0.4-0.5,1-0.9,0.4-1.6
		c-0.6-0.6-0.6-1.3-0.3-2c0.2-0.5,0.2-1.1,0.2-1.7c0-1.6-0.3-1.9-1.9-1.9c-2.6,0.1-4.7,1-6.3,3.1c-2.2,2.9-3.6,6-4.2,9.6
		c0,0.2-0.2,0.4-0.2,0.6c-0.4-1.5-0.6-3,0.2-4.4c0.7-1.3,1-2.8,1.6-4.3c-2.4,2-3.8,4.4-3.5,7.7c-0.1,0-0.2-0.1-0.3-0.1
		c-0.1-0.3-0.2-0.5-0.2-0.8c-0.3,1.4-1.1,2.8,0.4,4c0.2,0.2,0.4,0.5,0.5,0.8c0.7,2.4,1.4,4.7,1.9,7.1c0.3,1.5,0.1,3.2,0.1,4.8
		c0,0.7-0.2,1.3-0.2,2c0.1,2.4,0.4,4.8,0.5,7.2c0,1.3-0.1,2.6-0.4,3.8c-0.3,1.2,0.5,2,0.6,3.1c0.1,0,0.2-0.1,0.4-0.1
		c-0.2-0.9-0.5-1.8-0.7-2.6c0.8-0.7,1.4-0.4,2.1,0c1,0.6,2,1.1,3,1.6c0.8,0.4,1.7,0.7,2.5,1.1c0.8,0.4,1.5,1.1,2.3,1.3
		c2,0.4,4.1,0.6,6.2,0.7c0.9,0.1,1.9,0,2.7-0.3c0.4-0.1,0.9-0.7,0.9-1.1c0.2-2.7,0.3-5.3,0.4-8c0-0.8-0.2-1.3-1.2-1.2
		c-0.8,0.1-1.6-0.1-2.4-0.3c-0.2,0-0.5-0.2-0.6-0.4c-0.5-1.1,0-2.2,1.1-2.6c1-0.4,2-0.7,3.1-1.1c0-0.5,0-1.1,0-1.7
		c0-1.7,0-1.7-1.6-2c0,0-0.1-0.1-0.1-0.2C151,105.3,151.3,105.1,151.7,104.9z M218.2,154.2c-1,0.5-2,0.9-2.9,1.4
		c-0.6,0.3-1.1,0.8-1.7,0.9c-3.3,0.6-6.3,1.9-9.4,3c-0.7,0.2-1.4,0.5-2,0.8c-0.2,0.1-0.4,0.3-0.6,0.5c0,0.1,0.1,0.1,0.1,0.2
		c1.2-0.4,2.5-0.8,3.7-1.2c0,0.1,0.1,0.2,0.1,0.3c-0.6,0.5-1.2,1-1.9,1.7c1.3-0.2,2.3-0.3,3.4-0.5c0,0.1,0.1,0.3,0.1,0.4
		c-0.9,0.5-1.8,1-2.7,1.5c0,0.1,0.1,0.2,0.1,0.3c2-0.6,4-1.3,5.8-1.9c1.1,0.5,2.3,0.9,3.4,1.6c2.4,1.4,4.6,1,6.8-0.6
		c0.3-0.2,0.8-0.2,1.2-0.3c0,0.1,0.1,0.2,0.1,0.4c-1.2,0.6-2.4,1.3-3.6,1.9c0.2,0.2,0.2,0.3,0.3,0.3c4.1,1.6,8.3,3.1,12.4,4.7
		c0.2,0.1,0.5,0,0.8-0.1c0.4-0.1,0.9-0.1,1.5-0.2c-0.6,1.1-0.3,1.3,2.3,1.7c0.3-1.3,0.1-1.7-0.8-2c-0.5-0.5-1-1-1.8-1.7
		c1.7,0.2,1.5-1,1.7-1.8c0.1-0.3,0.1-0.5,0.1-0.8c0.8-3.1,1.7-6.1,5.2-7.2c0.4-0.1,0.8-0.2,1.2-0.2c0,0.5,0.2,1,0.1,1.4
		c0,0.3-0.3,0.5-0.4,0.8c-0.7,1.5-1.5,2.9-1.9,4.4c-0.3,1-0.1,2.1-0.1,3.2c0.1,0,0.2,0,0.3,0c0.2-0.4,0.5-0.9,0.7-1.3
		c1.5-3.5,3.9-6.3,6.5-8.9c0.5-0.5,1.1-1.1,1.6-1.6c0.9-1,1.7-2.2,2.6-3.2c1.2-1.3,1.3-1.6,0.1-2.9c-0.2-0.2-0.4-0.5-0.4-0.4
		c0.9-0.9,1.7-1.8,2.5-2.6c0.5-0.4,1-0.8,1.5-1.2c0.1,0.1,0.2,0.2,0.2,0.3c-0.4,0.4-0.7,0.9-1.1,1.3c0.1,0.1,0.1,0.1,0.2,0.2
		c0.3-0.1,0.6-0.2,1.2-0.4c-0.4,0.4-0.5,0.6-0.8,0.9c0.9-0.1,1.6-0.1,2.3-0.3c0.7-0.2,1.3-0.7,2.2-1.3c-0.4,0.6-0.6,0.9-0.8,1.2
		c2.1,0.6,4.3,0,5.3-1.6c1.1-1.7,2.1-3.5,3.1-5.3c0.1-0.1,0.1-0.2,0.1-0.3c-0.3,0-0.5,0-0.8,0c0-0.1-0.1-0.2-0.1-0.3
		c0.9-0.6,1.9-1.1,2.7-1.9c0.8-0.7,1.3-1.7,1.9-2.6c-0.2-0.1-0.3-0.3-0.5-0.4c-0.4,0.7-0.9,1.4-1.3,2.1c-0.1-0.1-0.2-0.2-0.4-0.3
		c0.6-0.9,1.1-1.7,1.7-2.6c-0.1-0.1-0.2-0.1-0.3-0.2c-1.3,1.1-2.8,2-3.7,3.4c-0.9,1.3-1.3,3-1.9,4.7c-0.7-0.3-1.5-0.7-2.3-1
		c-0.5-0.2-1.2-0.3-1.8-0.2c-1.6,0.3-3,1-3.9,2.3c0-0.4,0.1-1,0-1.1c-0.3-0.2-0.8-0.1-1.2-0.1c-0.3,0-0.5,0.2-0.7,0.3
		c-1.7,0.8-3.4,1.6-5.2,2.3c-0.4,0.2-0.8,0.3-1.2,0.3c-0.8,0.1-1.6-0.1-2.3,0.2c-2.8,1-5.6,2.2-8.5,3.1c-4.9,1.7-9.8,3.3-14.7,4.8
		c-1.2,0.4-2.5,0.6-3.9,1C217.9,153.7,218,153.9,218.2,154.2z M114.3,181.5c0.7,0.1,1.2,0.1,1.7,0.2c0.8,0.1,1.6,0.4,2.4,0.4
		c0.7,0,1.1-0.3,0.7-1.1c-0.9-2.2-1.8-4.5-2.8-6.7c-2.4-6-4.9-12-7.3-18c-0.3-0.7-0.6-1.1-1.5-0.9c-1.7,0.3-3.5,0.4-5.2,1.1
		c-1.9,0.7-4.1,0.7-6.1,1.1c-1.5,0.3-2.9,0.6-4.2,0.8c1.2,6.2,5,11.2,7.4,16.8c-0.1,0.1-0.2,0.1-0.3,0.2c-0.3-0.2-0.7-0.5-1-0.8
		c0,0.2-0.1,0.4-0.1,0.6c-1.6,0.6-2.2-0.3-2.7-1.5c-2-4.3-3.9-8.5-6-12.8c-0.2-0.5-0.6-1.2-1.1-1.4c-2.9-1-5.8-1.9-8.7-2.9
		c-0.2-0.1-0.3-0.2-0.4-0.2c-0.5-0.4-1-0.7-1.5-1.1c3.9,9.2,10.3,16.9,15.4,25.2c-0.1,0-0.2,0-0.3,0c0,0.6-0.1,1.1-0.1,1.7
		c0.1,0,0.2,0,0.4,0c0.2-0.2,0.5-0.5,0.7-0.7c1.7-1.9,3.6-3.5,6.3-3.8c0.8-0.1,1-0.5,0.6-1.2c-0.1-0.2-0.1-0.6-0.1-0.8
		c0.3,0,0.7,0,0.9,0.2c0.3,0.2,0.6,0.5,1,0.6c0.7,0.4,1.4,0.9,2.1,1.1c3.1,0.8,6.2,1.6,9.4,2.4C114.5,180.1,114.8,180.6,114.3,181.5
		z M265.9,143.2c0.9,0.6,1.5,0.3,2.1-0.1c1.6-1.1,3.3-2,4.9-3.1c4.5-2.9,8.9-5.9,13.4-8.9c0.5-0.3,0.8-1,0.9-1.6
		c0.3-1.6,0.4-3.2,0.5-4.8c0-0.9,0.4-2-0.7-2.8c-0.1-0.1,0.1-1.1,0.3-1.2c1.2-0.4,2.4-0.7,3.6-0.8c1.9-0.2,3.8-0.2,5.7-0.2
		c0.7,0,1-0.3,0.8-1c-0.1-0.7-0.4-1.4-0.4-2.1c0-1,0.1-2.1,0.3-3.1c0.1-0.6,0.5-1.2,0.8-1.9c0.2-0.4,0.2-0.9,0.4-1.2
		c0.8-1.2,0.5-2.6,0.7-4.3c-0.8,0.6-1.4,0.9-1.9,1.3c0.2,0.5,0.4,1,0.5,1.5c-1-0.5-1.8-0.8-2.6-1.2c-1.2-0.8-2.4-1.8-3.6-2.6
		c-0.2-0.2-0.7-0.2-1-0.1c-3,1.3-6.1,2.6-9.1,4c-1,0.5-1.7,1.4-2.7,2.2c0.6,0.2,1,0.3,1.6,0.5c-1.5,0.3-2.8,0.4-3.8,1
		c-1,0.5-1.8,1.4-2.6,2.2c0.9,1.6,1.9,3.1,2.8,4.6c0.5,0.8,1,1.6,1.5,2.4c0.1,0.2,0.1,0.5,0.1,0.7c0.1,0.3,0,0.7,0.1,1
		c1.6,2.9,1.3,5.8,0.4,8.8c-0.1,0.2-0.3,0.3-0.6,0.6c-0.3-1-0.6-1.9-0.8-2.8c-0.4,0.2-0.6,0.3-0.8,0.5c-1.4,1.5-2.7,3.1-4,4.6
		C270.5,137.9,269.3,141.3,265.9,143.2z M155.7,111.4c-0.8,1.1-1.4,1.8-2,2.6c-0.1,0-0.2-0.1-0.3-0.1c-0.3,3.6-0.6,7.2-1,10.7
		c1.9,0.2,3.6,0.4,5.3,0.6c0.2,0,0.5-0.1,0.7-0.3c0.8-0.7,1.8-1.4,2.5-2.2c1.1-1.2,2-2.6,2.9-3.9c0.1-0.1,0.1-0.3,0.1-0.4
		c0-2.5,1-4.7,1.8-6.9c0.6-1.6,1.2-3.3,1.8-4.9c0.4-1.2,0.9-2.4,1.2-3.7c0.3-1.1,0.3-2.2,0.4-3.4c0-0.4-0.2-0.8-0.1-1.1
		c0.2-0.7-0.1-1-0.7-1c-1.9-0.3-3.9-0.7-5.8-0.8c-3.1-0.1-6.2-0.5-9-2c-0.3-0.1-0.6-0.2-0.8-0.3c0,1.2-0.1,2.2,0,3.3
		c0.3,3.6,1.1,7.2,0.7,10.9c-0.1,0.8-0.1,1.5,0.9,1.8C154.9,110.5,155.3,111.1,155.7,111.4z M315.4,173c0.1,0.1,0.2,0.1,0.3,0.2
		c0.8-1.1,1.7-2.1,2.4-3.2c1.3-1.8,2.5-3.7,3.7-5.6c3.2-4.8,6.3-9.6,9.6-14.3c1.4-2.1,3-4,4.6-5.9c2.5-3.1,3.8-7,6.3-10.1
		c0.2-0.2,0.3-0.5,0.4-0.7c0.4-0.7,0.1-1-0.6-1.2c-1-0.2-2-0.5-3-0.7c-0.3-0.1-0.8,0-0.9,0.2c-0.5,1-1.7,1.9-0.7,3.3
		c-0.8-0.7-1.2-0.1-1.6,0.4c-3.2,5-6.5,10-9.4,15.1c-3.2,5.6-5.9,11.4-8.8,17.2C316.9,169.5,316.2,171.3,315.4,173z M295.1,81.6
		c-0.4-0.3-0.6-0.4-0.7-0.4c-4.5-1.4-9-1.3-13.3,0.6c-2.3,1-4.5,2.5-6.8,3.8c-0.7,0.4-1.2,0.9-1.8,1.4c-1.6,1.5-3.2,3.1-4.9,4.5
		c-1,0.9-1.1,2-0.2,3.1C273.7,84.2,283.7,81.8,295.1,81.6z M163.9,89.1c0.1-0.2,0.1-0.3,0.2-0.5c-0.8-0.5-1.6-1.2-2.5-1.4
		c-1.8-0.3-3.6-0.3-5.5-0.4c-1.2-0.1-2.4-0.4-3.6-0.3c-0.6,0-1.2,0.6-1.6,1.2c-0.1,0.2,0.2,1,0.6,1.3c1.1,1.1,2.5,1.4,4.1,1.5
		C158.5,90.7,161.2,90.1,163.9,89.1z M303.2,71.4c-0.1-0.6-0.4-1.1-0.3-1.6c0.2-1.6-0.6-2.8-1.6-4c-0.9-1.1-1.8-2.2-2.6-3.4
		c-0.3-0.4-0.5-0.9-0.6-1.4c-0.1-1.1-0.6-1.7-2.1-2c0.3,0.5,0.5,1,0.8,1.3c1.2,1.1,1.7,2.5,1.7,3.9c0,1.5-0.3,3-0.6,4.6
		c-0.2,1.1,0.5,3.3,1.4,3.8c0.4,0.2,1,0.3,1.4,0.1C301.5,72.4,302.3,71.9,303.2,71.4z M129.3,145c-1.5,1.2-2.9,2.3-4.4,3.4
		c-1.9,1.5-3.9,2.9-5.8,4.5c-0.3,0.2-0.6,0.8-0.4,1.1c0.4,0.8,1,1.6,1.4,2.3c1.7-1.9,3.1-3.9,4.9-5.5c1.8-1.6,3.9-2.8,6-4.2
		C130.5,146.1,129.9,145.6,129.3,145z M122.7,102.8c-0.2-0.1-0.4-0.1-0.6-0.2c-0.7,1.4-1.7,2.8-1.9,4.3c-0.4,3.1,0.4,6.1,1.2,9.1
		c0.2,0.8,0.7,1.6,1.1,2.4c0.1,0,0.2-0.1,0.2-0.1C122.7,113.1,122.7,107.9,122.7,102.8z M353.5,118.8c-2.4,0.7-4.6,0.4-6.8-0.6
		c-0.2-0.1-0.7,0-0.8,0.1c-0.9,1.4-1.8,2.9-2.8,4.4C348,123.7,352.6,121.9,353.5,118.8z M123.4,144.7c0.3-0.1,0.7-0.1,1-0.2
		c1.1-0.6,2.2-1.2,3.2-1.9c1.4-1,2.8-2,4-3.1c0.6-0.5,1.2-1.4,1.3-2.1c0.1-1.8-0.1-3.5-0.2-5.3c-0.2,0-0.3-0.1-0.5-0.1
		C130.3,137,127.5,141.3,123.4,144.7z M289.4,131.5c0.1,0.1,0.3,0.2,0.4,0.3c0.6-0.5,1.2-0.9,1.7-1.5c0.3-0.4,0.5-0.9,0.8-1.3
		c0.6-0.7,1.2-1.4,1.9-2c0.7-0.6,1.6-1,2.4-1.5c0.4-0.2,1.1-0.5,1.1-0.7c0-0.5-0.3-1.2-0.6-1.3c-0.6-0.3-1.3-0.2-2-0.3
		c-0.2,0-0.4,0.3-0.6,0.2c-1.1-0.2-1.7,0.3-2,1.3c-0.1,0.3-0.4,0.5-0.5,0.8c-0.5,1-1.4,2-1.5,3C290.4,129.6,290.8,130.7,289.4,131.5
		z M352.3,101.9c-0.1-0.1-0.2-0.1-0.3-0.2c-0.3,0.4-0.6,0.8-0.9,1.3c-2,3.5-4.1,7-6.1,10.5c-0.8,1.4-0.6,2,1.2,2.6
		C348.3,111.5,350.3,106.7,352.3,101.9z M241.6,172.6c-0.1,0-0.2,0-0.2,0c0.2-0.8,0.3-1.6,0.5-2.5c-0.6,0.9-0.9,1.8-1.2,2.8
		c-0.1,0.2-0.1,0.6,0,0.7c0.9,0.6,0.3,1.2,0.1,1.7c-0.5,1.5-1.3,2.8-1.7,4.3c-0.6,2.1-1.2,4.3-1.5,6.5c-0.3,2.2-0.3,4.5-0.5,6.8
		c1.5-7.9,3.3-15.6,6.1-23.1c-0.4,0.4-0.6,0.8-0.9,1.3C242.1,171.6,241.9,172.1,241.6,172.6z M155.4,81.2c-1.2-0.4-2.2-0.7-3.2-0.9
		c-0.9-0.2-1.8-0.2-2.6-0.1c-0.7,0.1-1.5,0.5-1.2,1.6c1.2-0.7,2.3-0.6,3.7,0.5c-0.2,0.1-0.4,0.2-0.5,0.3c-0.3,0.2-0.6,0.4-0.8,0.6
		c0.3,0.3,0.5,0.7,0.8,0.9c0.3,0.2,0.7,0.1,1.1,0.1c1.2-0.1,2.4-0.2,3.5-0.3c0.3,0,0.6-0.1,1-0.2c0-0.1,0.1-0.2,0.1-0.3
		c-0.9-0.5-1.7-1-2.6-1.4C154.8,81.7,155,81.5,155.4,81.2z M153,79.1c0-0.1,0-0.1,0-0.2c-1.7-0.2-3.3-0.3-5-0.5c-0.7-0.1-1.3,0-2,0
		c-0.7,0-1.1,0.3-1,1.1c0.2,1.1,0.3,2.2,0.6,3.3c0.1,0.5,0.3,1.1,1.1,0.9c0.7-0.2,1.3-0.5,1.2-1.4c-0.2-1.7,0.1-2.2,1.8-2.6
		C150.8,79.4,151.9,79.3,153,79.1z M133.9,139.6c-1.4,1.8-2.7,3.4-4.1,5.2c0.2,0.2,0.6,0.4,0.9,0.7c0.4,0.3,0.9,0.8,1.2,0.7
		c0.9-0.2,1.8-0.6,2.7-0.9c0.1,0,0.2-0.3,0.1-0.5C134.5,143.1,134.2,141.5,133.9,139.6z M167.2,93.5c-0.5-1-0.8-1.7-1.2-2.3
		c-0.2-0.2-0.7-0.5-0.9-0.4c-2.4,0.7-4.8,1.4-7.1,2.1c0,0.1,0,0.3,0,0.4C161,93.9,164,93.6,167.2,93.5z M292.4,50.9
		c0.7,0.8,1.3,1.9,2.2,2.5c2.1,1.4,4.4,2.5,6.6,3.6C300.7,54.6,295.7,50.7,292.4,50.9z M328.3,145.8c0.4-0.3,0.5-0.3,0.5-0.4
		c2.2-3.4,4.4-6.9,6.5-10.3c0.4-0.7,0.3-1.4-0.5-2.1C332.5,137,330.5,141.3,328.3,145.8z M265.6,131.7c2.5-1.2,5-2.4,7.8-3.8
		c-3.2-0.3-6,0.7-9,1c1.6-0.1,1.4,0.8,1.2,1.7C265.6,131,265.6,131.4,265.6,131.7z M317.8,166.9c-0.1-0.1-0.2-0.1-0.3-0.2
		c-2.7,4.7-5.4,9.5-8,14.2c0.1,0.1,0.2,0.1,0.3,0.2C313.1,176.7,315.4,171.8,317.8,166.9z M342.4,135.8c1.3,0.5,3.7-1.4,4.4-3.3
		c-0.8-0.1-1.7-1-2.5,0C343.6,133.4,343.1,134.6,342.4,135.8z M100.1,153.6c0.6,0.1,1.2,0.4,1.7,0.3c0.5-0.1,1-0.6,1.5-0.9
		c-0.4-0.3-0.8-0.6-1.2-0.8c-0.2-0.1-0.4-0.2-0.8-0.5c0.6-0.3,1-0.4,1.4-0.6c0-0.1,0-0.2,0.1-0.3c-0.8-0.2-1.5-0.4-2.4-0.7
		C100.2,151.3,100.2,152.4,100.1,153.6z M338.7,108.2c0.1,0,0.2,0,0.4,0.1c0.1-0.4,0.3-0.8,0.2-1.1c-0.2-0.9-0.5-1.7-0.7-2.6
		c-0.3-1.1-0.5-2.2-0.7-3.4c-1,0.3-1.3,0.8-1,1.7C337.5,104.7,338.1,106.5,338.7,108.2z M105.5,185.5c-1.4,0.4-2.8,0.8-4.4,1.2
		C103.1,188.9,104,188.7,105.5,185.5z M173.7,114.7c1.3-1.7,0.6-3.7,0.7-5.6C173.3,110.8,172.5,112.6,173.7,114.7z M95.7,199.9
		c-0.1-2.1-1.9-2.7-3.1-4C92.3,198.1,93.7,199.8,95.7,199.9z M115.1,158.2c-0.8-1.7-1.5-3.3-2.3-5c-1.1,1.2-0.9,2.6,0.4,3.4
		C113.8,157.1,114.3,157.6,115.1,158.2z M129,121.7c2-0.7,2.3-2.9,0.9-4.6C129.6,118.7,129.3,120.2,129,121.7z M96.7,153.7
		c0.1-0.1,0.3-0.1,0.4-0.2c0-0.7,0.1-1.4-0.1-2c-0.1-0.4-0.7-0.7-1.2-0.8c-0.3-0.1-0.9,0.2-0.9,0.4c-0.1,0.3,0.2,0.8,0.4,1.1
		C95.8,152.7,96.3,153.2,96.7,153.7z M292.7,52.7c-0.8-2.4-2.3-2.8-4-1.2C290,51.9,291.4,52.3,292.7,52.7z M175.4,212
		c-0.2,0-0.4-0.1-0.6-0.1c-0.2,0.6-0.6,1.4-0.4,1.9c0.4,1,1.1,1.8,1.7,2.8c0.1,0,0.2-0.1,0.2-0.1C176.1,214.9,175.7,213.4,175.4,212
		z M151.1,140.2c0.1,0.1,0.3,0.2,0.4,0.3c0.8-0.9,1.7-1.7,2.5-2.6c0.1-0.1-0.1-0.7-0.2-0.8c-0.2-0.1-0.7,0-0.8,0.2
		C152.2,138.2,151.6,139.2,151.1,140.2z M273,61.4c2.2,0.8,4.3-0.1,4.4-1.6C275.9,60.3,274.4,60.8,273,61.4z M124.9,97.3
		c-0.9-0.4-2.5-0.2-3.1,0.5c-0.1,0.2-0.2,0.5-0.2,0.7c0,0.1,0.4,0.3,0.5,0.2C123.3,98.7,124.3,98.2,124.9,97.3z M91.6,180.7
		c-1.2-0.5-2.3-0.9-3.5-1.4c0.6,0.9,0.6,2.1,2,2.2C90.8,181.6,91.5,181.6,91.6,180.7z M182.1,172.1c0-0.1-0.1-0.2-0.1-0.2
		c-1.4,0.3-2.8,0.5-4.2,0.9c-0.3,0.1-0.4,0.4-0.7,0.6c0.3,0.1,0.6,0.3,0.8,0.3C179.3,173.1,180.7,172.6,182.1,172.1z M158.6,84.4
		c0.6,1.6,1.2,1.8,2.9,1.4C161.1,84.1,159.4,85.2,158.6,84.4z M336.7,132.8c1.3-1.6,1.3-1.8-0.3-2.6
		C335.6,131.2,335.6,131.5,336.7,132.8z M99.4,153.6c0-0.9,0-1.6-0.1-2.3c0-0.2-0.3-0.3-0.5-0.5c-0.1,0.2-0.3,0.3-0.4,0.5
		c0,0.8,0,1.5,0,2.3C98.7,153.6,99,153.6,99.4,153.6z M158,85.8c-1-1.4-2.2-1.5-3.5-0.6C155.8,85.4,156.9,85.6,158,85.8z
		 M115.3,191.2c-0.7,0-1.3,0-1.8,0c0.1,0.1,0.1,0.1,0.2,0.2c-0.4,0.4-0.9,0.7-1.3,1.1C113,192.9,114.5,192.3,115.3,191.2z
		 M255.2,167.5c0.2,0.1,0.3,0.1,0.5,0.2c0.4-1.1,0.9-2.3,1.3-3.4c0-0.1-0.4-0.4-0.5-0.5C256,165.1,255.6,166.3,255.2,167.5z
		 M333.1,127c0.7,1.2,1.5,2.4,2.2,3.7C335.9,129.8,335.9,129.8,333.1,127z M274.5,113.3c0.2,0,0.3,0,0.5,0.1
		c0.2-0.4,0.7-1.1,0.6-1.3c-0.3-0.4-0.9-0.6-1.4-0.9c-0.1,0.1-0.2,0.2-0.3,0.3C274.1,112.1,274.3,112.7,274.5,113.3z M302.7,96.9
		c-0.2,1.1-0.4,2-0.6,3.1C303.5,98.6,303.7,97.7,302.7,96.9z M148.1,87.5c0.3-2.2,0.1-2.4-1.9-2.4C146.8,85.9,147.4,86.6,148.1,87.5
		z M117.3,146.3c0.1,0.1,0.2,0.2,0.3,0.4c1.5-1.2,3.1-2.5,4.6-3.7c-0.1-0.1-0.1-0.2-0.2-0.3C120.4,143.9,118.8,145.1,117.3,146.3z
		 M136,122.1c-0.9-0.7-1.7-1.3-2.6-2.1C134,121.8,134.5,122.2,136,122.1z M87.8,175.5c0.1-0.1,0.3-0.2,0.4-0.3
		c-0.8-1.2-1.6-2.3-2.3-3.5c-0.1,0-0.1,0.1-0.2,0.1C86.4,173.1,87.1,174.3,87.8,175.5z M98.8,147.9c0.2,0,0.4,0,0.6,0.1
		c0.1-0.9,0.2-1.9,0.2-2.8c-0.1,0-0.2,0-0.3,0C99.1,146.1,98.9,147,98.8,147.9z M133.8,148.2c0,0.2,0.1,0.4,0.1,0.6
		c0.6-0.2,1.2-0.3,1.7-0.5c0,0-0.1-0.5-0.1-0.5C135,147.9,134.4,148,133.8,148.2z M171.1,96.3c0,0.2,0,0.4-0.1,0.6
		c0.5,0,1,0.1,1.4,0.1c0-0.2,0-0.4,0-0.6C172,96.3,171.6,96.3,171.1,96.3z M162.3,84c0.1-0.1,0.2-0.3,0.3-0.4
		c-0.6-0.5-1.3-1-1.9-1.5c-0.1,0.1-0.2,0.2-0.3,0.3C161,83,161.6,83.5,162.3,84z"/>
	<path fill="#FFFFFF" d="M291.1,13.5c-0.7-0.5-1.3-0.9-2-1.4c0.1-0.1,0.3-0.3,0.4-0.4c1.8,1.4,3.7,2.8,5.5,4.3
		c0-0.1,0.1-0.2,0.1-0.3c0.4,0,1-0.2,1.3,0c1.9,1.3,3.7,2.7,5.5,4.1c0.5,0.4,0.8,1.2,1.7,0.8c0.1,0,0.4,0.1,0.5,0.3
		c1.4,2.1,3.2,3.6,5.5,4.6c0,0.1-0.1,0.2-0.1,0.2c-0.4-0.1-0.8-0.2-1.6-0.5c1.4,1.3,2.5,2.3,3.6,3.3c-0.1,0.1-0.1,0.1-0.2,0.2
		c-1.3-1.1-2.7-2.1-4-3.2c0.3,3.2,5.7,11.1,9.4,13.6c-0.2-0.6-0.4-1-0.7-1.7c1.3,1,1.2,3.1,3.2,3.1c-0.1-0.5-0.1-0.9-0.2-1.3
		c0.1,0,0.2-0.1,0.3-0.1c0.6,1.1,1.2,2.2,1.9,3.3c0.8-0.4,1.2,0,1.4,0.8c0.3,0.8,0.4,1.7,1,2.3c1.6,1.8,1.9,4.2,2.7,6.4
		c0.9,2.2,1.4,4.6,2.1,6.9c0.2,0.8,0.5,1.6,0.7,2.3c0.9,4,1.8,7.9,2.8,11.9c0.2,0.7,0.6,1.3,0.8,1.9c1.1,3.8,2.4,7.5,4.5,10.9
		c1.1,1.7,2.3,3.3,3.5,5c0.6,0.9,1.3,1.7,1.8,2.7c-0.1-0.1-0.3-0.1-0.4-0.2c-2.1-2-4.1-4.1-5.7-6.7c-3.6-6-6.1-12.5-8.4-19
		c-0.9-2.6-1.3-5.3-2-8c-0.6-2.4-1.3-4.8-2-7.1c-0.8-2.7-1.8-5.3-2.7-8c-0.1-0.4-0.3-0.7-0.5-1.2c-0.6,0.9-1.2,0.6-1.9,0.3
		c-0.9-0.4-1.9-0.5-2.9-0.8c-3.8-1.5-7.5-3-11.3-4.5c-1-0.4-2-0.8-3-1.4c3.1,0.4,6,1.5,8.8,2.8c0-0.1,0.1-0.2,0.1-0.3
		c-0.5-0.3-1.1-0.5-1.6-0.8c0.1,0,0.2-0.1,0.3-0.1c-0.3-0.7-0.6-1.5-1-2.2c-0.8-1.5-1.7-2.9-2.3-4.5c-0.5-1.2-0.4-2.6-0.7-3.9
		c-0.3-1.2-1-2.2-2-3.1c-1.4-1.2-2.8-1.7-4.5-2c0.3-0.1,0.7-0.2,1.2-0.3c-0.6-0.7-1-1.3-1.6-1.8c-1.5-1.1-3-2.2-4.5-3.2
		c-0.7-0.4-1.6-0.7-2.3-0.9c-1.3-0.5-2.7-0.9-4-1.4c-0.2-0.1-0.4-0.1-0.9-0.3c3.1,3.6,5.9,7,8.8,10.3c-0.1,0.1-0.2,0.2-0.2,0.2
		c-1-1-2-2.1-3-3.1c-2.3-2.5-4.6-5-7-7.4c-1-0.9-2.3-1.5-3.3-2.2c-0.5-2.8-2.9-3-5.1-3.5c1.3-0.7,2.4-0.6,3.7,0
		c3.4,1.6,7,3.1,10.5,4.6C290.9,13.7,291,13.6,291.1,13.5z M285,12c0-0.1,0-0.2,0.1-0.2c-1.1-0.4-2.1-0.8-3.2-1.2
		c2,2.3,3.7,3.5,6.3,4.1c-1.4-0.8-2.7-1.6-4.1-2.4c0-0.1,0.1-0.1,0.1-0.2C284.4,12,284.7,12,285,12z M323.5,48.9
		c0.1,0,0.2-0.1,0.3-0.1c-0.5-1.6-1.1-3.2-1.6-4.8c-0.1,0-0.2,0.1-0.2,0.1C322.4,45.7,322.9,47.3,323.5,48.9z"/>
	<path fill="#FFFFFF" d="M288.6,32.3c0.5-0.1,1-0.2,1.6-0.3c-0.8-0.5-1.6-0.9-2.4-1.4c1.7-0.2,12.4,2.9,14,3.9
		c-0.4,0.1-0.7,0.1-1.1,0.2c0.3,0.2,0.5,0.4,0.7,0.6c0,0.1-0.1,0.3-0.1,0.4c-4.1-1.6-8.2-3-12.7-3.1
		C288.6,32.5,288.6,32.4,288.6,32.3z"/>
	<path fill="#FFFFFF" d="M287.9,28.6c0.3-0.3,0.6-0.8,0.9-0.8c3.4-0.2,6.7,0.1,9.8,1.7c0.1,0,0.1,0.1,0.2,0.4c-0.6,0-1,0-1.5-0.1
		c-2.5-0.6-5.1-1.3-7.7-1.1c-0.5,0-1,0.1-1.6,0.1C288.1,28.8,288,28.7,287.9,28.6z"/>
	<path fill="#FFFFFF" d="M320.3,38.2c1.8,2.4,3.7,4.8,5.5,7.2C324,44.2,320.4,39.7,320.3,38.2z"/>
	<path fill="#FFFFFF" d="M331.4,93.3c-2,1.7-4,3.4-5.9,5c-0.1-0.1-0.2-0.2-0.2-0.3c2-1.7,4-3.4,5.9-5.1
		C331.3,93.1,331.4,93.2,331.4,93.3z"/>
	<path fill="#FFFFFF" d="M313.6,33.3c0.8,1.1,1.6,2.2,2.4,3.4c-0.1,0.1-0.1,0.1-0.2,0.2c-0.8-1.1-1.6-2.2-2.4-3.3
		C313.4,33.5,313.5,33.4,313.6,33.3z"/>
	<path fill="#FFFFFF" d="M270.9,113.5c0.5,1,0.9,2.1,1.4,3.1c-0.1,0.1-0.2,0.1-0.3,0.2c-0.5-1-1-2-1.5-3
		C270.6,113.6,270.8,113.5,270.9,113.5z"/>
	<path fill="#FFFFFF" d="M159.4,183.6c-0.5-0.5-0.9-1-1.4-1.5c-0.6-0.6-1.2-1.3-1.9-1.7c-0.4-0.3-1.4-0.3-1.6,0
		c-0.5,0.6-1,0.3-1.3,0c-0.3-0.3-0.4-0.8-0.4-1.3c-0.1-0.6,0-1.2,0-1.9c0-2.1-0.1-4.3-0.1-6.4c0-0.7,0.2-1.4,0.4-2
		c0.2-0.7,0.4-1.5,0.6-2.2c0.1,0,0.3,0,0.4,0c0.2,1.1,0.6,2.1,0.6,3.2c0.2,2.4,0.3,4.9,0.4,7.3c0,0.2-0.3,0.5-0.4,0.7
		c-0.1,0.3-0.3,0.7-0.3,1c0,0.2,0.4,0.5,0.6,0.5c2.4,0.5,3.7,2.1,4.6,4.2C159.5,183.5,159.5,183.6,159.4,183.6z"/>
	<path fill="#FFFFFF" d="M174.1,157.4c0,2,0,4,0,6c-0.1,0-0.3,0-0.4,0c0.1-2,0.2-4,0.3-6C174,157.4,174.1,157.4,174.1,157.4z"/>
	<path fill="#FFFFFF" d="M192.8,183.9c1.1,0.1,2.1,0.1,3.1,0.2c2,0.1,3.9,0.3,5.9,0.5c0.7,0.1,1.3,0.3,1.2,1.2c-1.5,0-3-0.1-4.5,0
		c-1.4,0.1-2.9,0.4-4.3,0.9c-2.3,0.8-4.5,2-6.8,2.9c-1.2,0.5-0.6,1.3-0.6,2.1c-1.5-0.6-1.9-2-0.8-3.6c-0.9-0.6-1.8-1.3-2.7-1.9
		c-0.2-0.2-0.6-0.6-0.5-0.7c0.4-1.2,0.6-2.5,2.1-3.1c2.4-1,5-1.3,7.5-1.6c2.4-0.2,4.8-0.7,7.2-1.2c2-0.4,3.7,0.5,5.5,1.3
		c0.2,0.1,0.4,0.8,0.3,1c-0.2,0.3-0.7,0.4-1,0.4c-3.6-0.4-7,0.5-10.5,1.2c-0.2,0.1-0.4,0.1-0.6,0.2
		C193.1,183.6,193,183.7,192.8,183.9z M186.5,187.8c1.8-0.8,3.5-1.5,5.1-2.3c-1.2-0.1-2.4-0.1-3.5,0.1
		C187.2,185.8,186.3,186.2,186.5,187.8z"/>
	<path fill="#FFFFFF" d="M188.6,207.8c-0.3-0.7-0.6-1.4-0.8-2.2c-0.3-0.9-0.5-1.7-0.8-2.7c-0.7,0.3-1.1,0.5-1.5,0.7
		c-1-0.7-1.7-2.6-1.3-3.7c0.2-0.4,0.6-0.9,1-1c1.1-0.4,1.9-1,1.6-2.4c0-0.1,0.1-0.3,0.2-0.6c0.2,0.3,0.3,0.4,0.3,0.5
		c0.3,1.2,1.4,1.6,2.2,0.7c1-1.2,2.4-1.3,3.7-1.7c3.6-1.1,7.2-1.5,11-1.3c1.5,0.1,1.7,0.4,1.5,1.9c-0.2,1.2-0.5,1.8-1.9,2
		c-2.3,0.2-4.5,0.9-6.8,1.4c-0.6,0.2-1.2,0.7-1.8,0.9c-1.2,0.3-2.5,0.4-3.7,0.7c-1.1,0.2-2.1,0.5-3.2,0.9c-0.2,0.1-0.4,0.7-0.4,1.1
		C188,204.6,188.3,206.2,188.6,207.8L188.6,207.8z"/>
	<path fill="#FFFFFF" d="M188.6,207.8c0.5,2.2,1,4.4,1.6,6.6C189.4,212.2,188.4,210.2,188.6,207.8
		C188.6,207.8,188.6,207.8,188.6,207.8z"/>
	<path fill="#FFFFFF" d="M283.6,93.3c0.4-1.7,0.4-1.7-1.8-2c0.1-0.2,0.1-0.5,0.2-0.7c0.9-2,2.7-2.7,4.6-3.2c1.5-0.4,2.8,1.5,2.3,3
		c-0.2,0.5-0.1,1.1,0,1.6c0.2,0.6,0.1,0.9-0.5,1.1c-0.2,0.1-0.5,0.2-0.8,0.2C286.3,93.3,285,93.3,283.6,93.3z"/>
	<path fill="#FFFFFF" d="M214.6,160.3c0.9-1.3,2.8-2.6,4-2.5c-0.1,0.5-0.3,0.9-0.4,1.3c-0.4,1.2-0.8,2.5-1.2,3.7
		c-0.1,0.3-0.4,0.6-0.6,0.8c-0.2-0.3-0.5-0.5-0.7-0.8c-0.1-0.2-0.1-0.5,0-0.7C215.9,161.2,215.7,160.5,214.6,160.3z"/>
	<path fill="#FFFFFF" d="M226.6,165.2c-0.9-0.5-1.4-2.4-0.9-2.9c0.1-0.1,0.4-0.2,0.6-0.1c0.2,0.1,0.3,0.3,0.3,0.5
		C226.6,163.5,226.6,164.3,226.6,165.2z"/>
	<path fill="#FFFFFF" d="M229.9,159.8c-0.3,0.5-0.5,1-0.8,1.5c0,0-0.4-0.2-0.7-0.2c0.3-0.5,0.7-1,1-1.5
		C229.6,159.6,229.7,159.7,229.9,159.8z"/>
	<path fill="#FFFFFF" d="M347.6,123.6c-0.5,1.3-0.8,2.6-1.4,3.8c-0.9,1.9-1.8,3.7-2.8,5.6c-1.3,2.3-2.6,4.6-3.9,7
		c-0.7,1.2-1.4,2.4-2.1,3.6"/>
	<path fill="#FFFFFF" d="M108.2,194.5c-0.1,0.3-0.1,0.5-0.2,0.8"/>
	<path fill="#FFFFFF" d="M117.1,228.6c0.3,0,0.7,0,1-0.1"/>
	<path fill="#FFFFFF" d="M348,69.2c1.6,4,3.4,7.9,4.8,11.9c0.9,2.4,1.3,4.9,1.9,7.4c0.3,1.6,0.4,3.2,0.8,4.7
		c0.1,0.4,0.6,0.6,0.9,0.9"/>
	<path fill="#FFFFFF" d="M244,169.4c-0.8,2.4-1.8,4.8-2.4,7.2c-1,3.8-1.8,7.6-2.7,11.5c-0.4,1.8-0.6,3.6-1,5.3
		c-0.1,0.3-0.4,0.5-0.6,0.8"/>
	<path fill="#FFFFFF" d="M327.7,98.2c0,0.8,0,1.5,0,2.3"/>
	<path fill="#FFFFFF" d="M296.5,82.4c-3-0.2-6-0.2-8.9,0.5"/>
	<path fill="#FFFFFF" d="M285.9,83.2c-4,0.5-7.6,1.9-10.9,4.2c-0.8,0.6-1.6,1.2-2.4,1.8"/>
	<path fill="#FFFFFF" d="M270.9,91.1c-0.8,1.2-1.7,2.4-2.5,3.6"/>
	<path fill="#FFFFFF" d="M314.4,30.6c4,3.8,7.9,7.7,11.9,11.5c1.3,1.2,2.6,2.3,3.9,3.4"/>
	<path fill="#FFFFFF" d="M360.8,83.9c0.6,1.3,1.2,2.6,1.9,3.9"/>
	<path fill="#FFFFFF" d="M334.6,82.5c1.9,4.1,4.5,7.8,7.8,11"/>
	<path fill="#FFFFFF" d="M150.4,150.5c-2.1,1.5-4.2,3-6.4,4.5"/>
	<path fill="#FFFFFF" d="M146.7,180.7c-4.6-0.2-9,0.1-13.2,2.1c-1.6,0.8-3.4,1.3-5.1,1.9c-0.3,0.1-0.6-0.1-0.9-0.1"/>
	<path fill="#FFFFFF" d="M295,106.6c-1.2-0.7-2.3-1.5-3.5-2.2c-0.4-0.2-1,0-1.5,0.1"/>
	<path fill="#FFFFFF" d="M285.3,106.3c-1.7,0.9-3.5,1.8-5.2,2.7"/>
	<path fill="#FFFFFF" d="M130.9,182.1c-1.1-0.1-2.2-0.2-3.4-0.2"/>
	<path fill="#FFFFFF" d="M177.4,95.8c0.1-0.4,0.4-0.9,0.3-1.3c-0.3-2.2-0.7-4.3-1-6.5"/>
	<path fill="#FFFFFF" d="M336.1,133.2c0.8,0.6,0.1,1.3-0.1,1.7c-2.2,3.6-4.4,7.1-6.7,10.7c-0.2,0.3-0.6,0.5-0.9,0.8"/>
	<path fill="#FFFFFF" d="M326.3,149.6c-1.6,3-3.1,5.9-4.7,8.9c-0.3,0.6-0.6,1.2-0.9,1.7"/>
	<path fill="#FFFFFF" d="M317.4,165.9c-2.9,5.1-5.7,10.3-8.6,15.4"/>
	<path fill="#FFFFFF" d="M272.5,67.3c-2,0.3-3.3,1.4-4.3,3c-0.9,1.6-1.8,3.2-2.7,4.9"/>
	<path fill="#FFFFFF" d="M264.4,78.2c-0.4,1.9-0.9,3.9-1.3,5.8"/>
	<path fill="#FFFFFF" d="M91.7,179.8c0.9,1-0.1,1.8-0.2,2.7"/>
	<path fill="#FFFFFF" d="M236.7,208.4c0.3,2.1,0.6,4.2,0.9,6.4"/>
	<path fill="#FFFFFF" d="M237.6,214.9c0.2,0.6,0.3,1.2,0.5,1.7"/>
	<path fill="#FFFFFF" d="M238.1,216.8c0.4,1,0.8,2,1.2,3c0.2,0.4,0.3,0.8,0.5,1.3"/>
	<path fill="#FFFFFF" d="M245.1,206.6c0.1,2.6,0.1,5.2,0.2,7.8c0,0.2,0.1,0.5,0.1,0.7"/>
	<path fill="#FFFFFF" d="M291.9,133.3c0.4,0.7,0.2,1.3-0.2,2c-0.8,1.5-1.6,3-2.3,4.5"/>
	<path fill="#FFFFFF" d="M288.7,141.5c-1.3,2-1.6,4.2-2,6.5c0,0.2-0.1,0.4-0.1,0.6"/>
	<path fill="#FFFFFF" d="M352.4,101c-0.8,1.2-1.8,2.3-2.5,3.6c-1.8,3-3.5,6.1-5.2,9.1c-0.1,0.3-0.2,0.5-0.4,0.8"/>
	<path fill="#FFFFFF" d="M280.8,80.7c-0.3,1.1-1.3,1.2-2.1,1.7c-1.7,1.1-3.5,2.1-5.2,3.3c-0.7,0.4-1.2,1.1-1.8,1.6
		c-1.4,1.2-2.8,2.4-4.2,3.6c-0.1,0.1-0.5,0-0.7,0"/>
	<path fill="#FFFFFF" d="M334.9,132.1c-1.9,3.7-3.9,7.5-5.8,11.3c-0.5,1-1.4,1.9-1.1,3.2"/>
	<path fill="#FFFFFF" d="M270.4,71c-0.4,0.3-0.9,0.6-1.1,1.1c-1.2,2.9-2.4,5.8-3.5,8.7c-0.1,0.3,0,0.6,0,0.9c0,1.4-0.3,2.6-2,2.9"/>
	<path fill="#FFFFFF" d="M150.4,75.3c-1.4-0.5-2.8-1.2-4.4-0.8"/>
	<path fill="#FFFFFF" d="M248,200.4c0.1,0.3,0.3,0.6,0.3,0.9c0.1,1.3,0.2,2.7,0.1,4.1c-0.2,2.9,0.4,5.7,1.3,8.5"/>
	<path fill="#FFFFFF" d="M259.9,101.1c0.6,1.4,0.5,3.1,2.1,3.8"/>
	<path fill="#FFFFFF" d="M98.3,146.3c0,1,0,1.9-0.1,2.9"/>
	<path fill="#FFFFFF" d="M154,166.6c0,0.7-0.1,1.3-0.1,2"/>
	<path fill="#FFFFFF" d="M154.2,179.7c2-0.2,3.1,0.9,4.2,2.3c0.4,0.6,0.8,1.2,1.3,1.7"/>
	<path fill="#FFFFFF" d="M279.3,80.6c-3.5,1.3-7.2,2.1-10.2,4.6c-0.5,0.4-1.1,0.7-1.6,1.1"/>
	<path fill="#FFFFFF" d="M330.6,162c-2.4,2.5-4.7,5.1-7.1,7.6c-0.7,0.8-1.5,1.5-2.3,2.3"/>
	<path fill="#FFFFFF" d="M186.9,201.9c0.4,1.3,0.8,2.5,1.1,3.8c0.7,2.9,1.4,5.8,2.1,8.7"/>
	<path fill="#FFFFFF" d="M287.8,30.3c1.1,0.5,2.2,0.9,3.2,1.4"/>
	<path fill="#FFFFFF" d="M294.8,32.8c0.6,0.2,1.3,0.3,1.8,0.5c1.7,0.7,3.4,0.9,5.2,1.1"/>
	<path fill="#FFFFFF" d="M183,172.2c-2,0.9-4,1.9-6.3,2"/>
	<path fill="#FFFFFF" d="M132.2,130.9c-0.7,1.3-1.3,2.5-2,3.8"/>
	<path fill="#FFFFFF" d="M171.9,149c1.6,0.6,2.5,2.3,4.3,2.6c0.3,0,0.5,0.5,0.7,0.8"/>
	<path fill="#FFFFFF" d="M153.6,103.3c-0.3,0-0.6-0.1-0.9-0.1"/>
	<path fill="#FFFFFF" d="M150.6,103.6c-5,0-9.8,1-14.6,2.3"/>
	<path fill="#FFFFFF" d="M281.2,10.3c0.8,0.9,1.5,1.8,2.3,2.6c0.7,0.6,1.6,1,2.3,1.7c0.7,0.6,1.2,1.5,1.9,2.2
		c2.6,2.9,5.2,5.8,7.8,8.7"/>
	<path fill="#FFFFFF" d="M301.4,36.8c2.9,1.1,5.8,2.3,8.7,3.3c0.3,0.1,0.7,0,1,0"/>
	<path fill="#FFFFFF" d="M134,82.8c-0.8,1.9-1.8,3.7-2.4,5.7c-0.3,1-0.1,2.1-0.2,3.2"/>
	<path fill="#FFFFFF" d="M92.3,184.4c-0.1,0.4-0.3,0.8-0.3,1.3c0,2.6-0.1,5.3,0,7.9c0.1,2.2,0.4,4.4,0.6,6.6"/>
	<path fill="#FFFFFF" d="M152.6,93.5c-0.1,0.4-0.2,0.8-0.2,1.3c0,1.1,0,2.2,0,3.2c0,1.4,0.1,2.8,0.2,4.2"/>
	<path fill="#FFFFFF" d="M152.8,105.8c0,1.4,0,2.9,0,4.3"/>
	<path fill="#FFFFFF" d="M152.9,114.1c-0.2,3.2-0.4,6.4-0.7,9.6c0,0.6-0.5,1.1-0.8,1.6"/>
	<path fill="#FFFFFF" d="M277.8,60.9c-1,0.4-2.1,0.8-3.1,1.3c-0.9,0.5-1.5,1.3-2.3,1.8c-3,2-5.1,4.8-6.9,7.9"/>
	<path fill="#FFFFFF" d="M352.9,121.6c0.5,1.5-0.6,2.6-1.2,3.8c-1.3,2.5-2.7,5-4.3,7.4c-0.9,1.3-2.1,2.4-3.4,3.3
		c-0.6,0.4-1.5,0.6-2.3,0"/>
	<path fill="#FFFFFF" d="M298.9,29.8c-2.1-0.5-4.2-1.2-6.4-1.5c-1.3-0.2-2.8,0.2-4.2,0.3"/>
	<path fill="#FFFFFF" d="M125,194.1c0.7,0,1.4-0.1,2.1,0c2.8,0.6,5.6,1.3,8.5,1.9"/>
	<path fill="#FFFFFF" d="M214.2,213.4c-0.1,0.6-0.4,1.2-0.3,1.7c0.2,2.7,0.4,5.3,0.7,8c0,0.2,0.1,0.5,0.2,0.7"/>
	<path fill="#FFFFFF" d="M167.8,93.3c-0.1-0.2-0.1-0.4-0.2-0.6"/>
	<path fill="#FFFFFF" d="M263,87.2c0.3,1.2,0.6,2.5,0.9,3.7"/>
	<path fill="#FFFFFF" d="M148.7,102.4c-3.8,0.4-7.6,0.8-11.4,1.2"/>
	<path fill="#FFFFFF" d="M148.4,82.2c-0.7-1.3-0.3-2.1,1.4-2.4c1-0.2,2,0,3,0c0.3,0,0.5,0,0.8,0"/>
	<path fill="#FFFFFF" d="M127.9,91.2c-0.1,0.5-0.1,1-0.2,1.5"/>
	<path fill="#FFFFFF" d="M202.7,185.6c-0.7-0.2-1.4-0.4-2.1-0.6"/>
	<path fill="#FFFFFF" d="M177.8,159.1c-0.1,0.3-0.1,0.7-0.2,1"/>
	<path fill="#FFFFFF" d="M317.9,165.8c0,0.5,0.1,1.1-0.1,1.6c-0.7,1.7-1.4,3.5-2.3,5.1c-0.5,0.9-0.4,1.5,0,2.2"/>
	<path fill="#FFFFFF" d="M354.3,118.4c-0.8,0.1-1.6,0.3-2.4,0.3c-1.7,0.2-3.3-0.5-4.9-1c-0.5-0.2-0.9-0.3-1.4-0.5"/>
	<path fill="#FFFFFF" d="M157.8,137.5c-0.7,2.1-1.4,4.2-2,6.4c-0.2,0.6,0.1,1.2,0.2,1.8"/>
	<path fill="#FFFFFF" d="M133.4,157.2c-0.7,0.8-1.5,1.5-2.1,2.3c-0.3,0.4-0.2,1-0.3,1.5"/>
	<path fill="#FFFFFF" d="M89.4,182.1c-1-0.8-1.4-2-1.9-3.1"/>
	<path fill="#FFFFFF" d="M169.4,195.9c-0.6,1.6-1.3,3.2-1.9,4.8c-0.1,0.2,0,0.5,0,0.7"/>
	<path fill="#FFFFFF" d="M88.8,175.3c-1-1.4-2-2.9-3-4.3"/>
	<path fill="#FFFFFF" d="M150.1,197.4c-1.3,0.1-2.6,0.2-3.9,0.2"/>
	<path fill="#FFFFFF" d="M338.8,93.3c-0.2,0.3-0.7,0.6-0.7,0.9c-0.1,4.6,0.4,9.2,2.2,13.6"/>
	<path fill="#FFFFFF" d="M131.2,119.2c0,0.6,0,1.2,0,1.7"/>
	<path fill="#FFFFFF" d="M267.2,83.4c-0.2,1.2-0.4,2.4-0.4,3.6c-0.1,1.2,0,2.5,0,3.7c0,1.2-0.1,2.4-0.1,3.6c0,0.4,0.3,0.8,0.4,1.2"
		/>
	<path fill="#FFFFFF" d="M323.6,49.8c-0.6-1.5-1.2-3.1-1.7-4.6c-0.3-0.7-1-1.3,0.1-2.2c0.6,1.4,1.3,2.7,1.9,4.1"/>
	<path fill="#FFFFFF" d="M324.3,48.5c0.1,0.2,0.1,0.4,0.2,0.6"/>
	<path fill="#FFFFFF" d="M320.1,38.3c1.9,2.4,3.8,4.9,5.7,7.3"/>
	<path fill="#FFFFFF" d="M157.5,196.4c-0.9-0.2-1.8-0.4-2.7-0.4c-3.6-0.1-7.1,0-10.7,0c-0.3,0-0.7,0.1-1,0.1"/>
	<path fill="#FFFFFF" d="M257.1,162.8c0,0.6,0.3,1.3,0.1,1.8c-0.5,1.3-1.1,2.6-1.7,3.8"/>
	<path fill="#FFFFFF" d="M283.8,12c0.7,0.2,1.3,0.3,2,0.5"/>
	<path fill="#FFFFFF" d="M334.1,94.8c0.5,2.4,0.7,4.8,2.3,6.8"/>
	<path fill="#FFFFFF" d="M339.9,122.6c1.1-2.2,2.2-4.5,3.4-6.7"/>
	<path fill="#FFFFFF" d="M345.1,118.3c-0.6,1.3-1.1,2.6-1.8,3.8c-1.5,2.8-3.2,5.6-4.7,8.3"/>
	<path fill="#FFFFFF" d="M133.4,121.6c-0.4-0.7-1.1-1.3,0-2c1,0.7,1.9,1.3,2.9,2"/>
	<path fill="#FFFFFF" d="M161.6,132.6c-0.3,1.3-0.7,2.5-1,3.8"/>
	<path fill="#FFFFFF" d="M331.6,93.1c-2.1,1.8-4.2,3.6-6.3,5.3"/>
	<path fill="#FFFFFF" d="M296.8,78.7c-2.2-0.3-4.4-0.6-6.5,0.5"/>
	<path fill="#FFFFFF" d="M171.1,185.2c-0.9,0.6-0.6,1.6-0.8,2.4c-0.3,1.3-0.6,2.6-0.9,3.9"/>
	<path fill="#FFFFFF" d="M154.8,137.5c-1.1,1.2-2.1,2.3-3.2,3.5c-0.2,0.2-0.5,0.2-0.8,0.2"/>
	<path fill="#FFFFFF" d="M181.1,215.8c0.2,0.3,0.5,0.5,0.6,0.8c0.6,1.8,1.1,3.5,1.6,5.3"/>
	<path fill="#FFFFFF" d="M338.2,100.7c-0.7,0.4-1.4,0.8-2,1.1c0.6,2.1,1.2,4.1,1.9,6.1c0.2,0.5,0.6,0.9,0.9,1.3"/>
	<path fill="#FFFFFF" d="M290.3,79.4c1,1,2.4,0.6,3.5,1.2c0.8,0.4,1.9,0.3,1.9,1.6"/>
	<path fill="#FFFFFF" d="M289,141.6c0,0.6,0.1,1.2,0,1.9c-0.2,1.3-0.4,2.6-0.6,3.9"/>
	<path fill="#FFFFFF" d="M242.5,169.5c-0.3,1.1-0.7,2.2-1,3.4"/>
	<path fill="#FFFFFF" d="M97.8,151.1c0,0.9,0,1.8,0,2.7"/>
	<path fill="#FFFFFF" d="M313.1,182.6c0.9,1.2-0.1,2.1-0.6,3.1c-0.4,0.8-0.9,1.6-1.4,2.4"/>
	<path fill="#FFFFFF" d="M99.5,143.7c1.1,1.5,0.3,3.1,0.2,4.6c0,0.3-0.2,0.6-0.3,0.9"/>
	<path fill="#FFFFFF" d="M155.1,76.7c0.3,0.4,0.6,0.8,0.9,1.2c1.1,1.2,2.2,2.4,3.4,3.6"/>
	<path fill="#FFFFFF" d="M174,157.1c0,1.5,0,2.9,0,4.4c0,0.7-0.1,1.4-0.1,2.1"/>
	<path fill="#FFFFFF" d="M342.2,138.3c-1,1.7-2,3.5-3,5.2"/>
	<path fill="#FFFFFF" d="M99.3,149.8c0.2,1.1,0.4,2.2,0.6,3.2c0.1,0.6-0.1,1.3-0.1,2"/>
	<path fill="#FFFFFF" d="M153.5,136.1c-1.2,1.6-2.8,2.9-2.8,5.2c0,0.5-0.5,0.9-0.8,1.4"/>
	<path fill="#FFFFFF" d="M117.5,187.6c-1.4,0.4-2.8,0.8-4.2,1.2c0.1,0.4,0.2,0.8,0.3,1.1"/>
	<path fill="#FFFFFF" d="M352,121.9c-2.8,1.9-6,1.7-9.2,1.4"/>
	<path fill="#FFFFFF" d="M276.4,9.3c1.3-0.1,2.6-0.2,3.9,0.5c1.3,0.7,2.8,0.9,4.1,1.5c0.6,0.2,1,0.7,1.5,1.1"/>
	<path fill="#FFFFFF" d="M99.8,199.7c-0.5,0-1,0-1.5,0"/>
	<path fill="#FFFFFF" d="M96.1,198.3c-1-0.9-2-1.8-3-2.7c-0.2-0.2-0.5-0.3-0.8-0.5"/>
	<path fill="#FFFFFF" d="M338.8,130.6c1.2,0.4,2.4,0.8,3.6,1.2c0.4,0.1,0.9,0.3,1.3,0.5"/>
	<path fill="#FFFFFF" d="M207.1,161.5c-1,0.3-2,0.7-3,1"/>
	<path fill="#FFFFFF" d="M181.9,110.4c-0.9,0.4-1.8,0.8-2.7,1.3"/>
	<path fill="#FFFFFF" d="M292.1,49.8c0.2,0.6,0.4,1.2,0.6,1.9c0.2,0.5,0.5,1,0.7,1.5"/>
	<path fill="#FFFFFF" d="M103.6,151.2c-0.8-0.5-1.7-1.1-2.5-1.6"/>
	<path fill="#FFFFFF" d="M93.1,151.5c-0.3,0.9-0.5,1.9-0.8,2.8"/>
	<path fill="#FFFFFF" d="M159.5,81.8c1.4-0.1,2.4,0.7,3,1.9c0.2,0.4,0,1-0.1,1.5"/>
	<path fill="#FFFFFF" d="M297.2,205.4c0.5,0.9,0.3,1.7-0.2,2.6c-0.4,0.7-0.7,1.5-1.1,2.2"/>
	<path fill="#FFFFFF" d="M332.5,99.4c-1.2,0.8-2.3,1.7-3.5,2.5c-0.3,0.2-0.8,0.2-1.1,0.4"/>
	<path fill="#FFFFFF" d="M307.5,25.1c0.3,0.3,0.5,0.7,0.8,1c1,0.9,2.1,1.9,3.1,2.8"/>
	<path fill="#FFFFFF" d="M327.6,41c0.9,1.1,1.9,2.1,2.8,3.3c0.2,0.3,0.2,0.7,0.2,1"/>
	<path fill="#FFFFFF" d="M144,129.9c-0.8,0.2-1.7,0.2-2.4,0.5c-1.1,0.5-2.2,1.1-3.3,1.7"/>
	<path fill="#FFFFFF" d="M287.8,59.3c-1.1-0.2-2.2-0.4-3.4-0.6c-0.4-0.1-0.7-0.2-1-0.2"/>
	<path fill="#FFFFFF" d="M254.4,145c-0.5,0.8-1.9,0.8-1.7,2.1"/>
	<path fill="#FFFFFF" d="M205.5,160c-0.8,0.4-1.5,0.8-2.3,1.2"/>
	<path fill="#FFFFFF" d="M221.7,162.5c-1.4,0.8-2.9,1.5-4.3,2.3"/>
	<path fill="#FFFFFF" d="M96.8,200.1c-1.1,0.9-2,0.1-2.9-0.4c-0.5-0.3-0.9-0.7-1.4-1"/>
	<path fill="#FFFFFF" d="M263.2,73.2c0,1.5-0.1,2.9-1,4.2"/>
	<path fill="#FFFFFF" d="M202.5,169.1c-1.9,0.1-3.9,0.8-5.8-0.3"/>
	<path fill="#FFFFFF" d="M109.7,183.6c0.1,0.9,0.2,1.8,0.2,2.7"/>
	<path fill="#FFFFFF" d="M157.4,86.2c1,0.1,1.9,0,2.9,0.2c0.9,0.1,1.7,0.2,2.4-0.3"/>
	<path fill="#FFFFFF" d="M248.6,169.6c-1.3-0.7-2.6-1.5-3.9-2.2"/>
	<path fill="#FFFFFF" d="M276.5,111.7c-1,1.8-2.1,2.4-3.4,1.7"/>
	<path fill="#FFFFFF" d="M155.8,86.1c0.4,0.3,1.3-0.5,1.5,0.5"/>
	<path fill="#FFFFFF" d="M158.4,83.3c-0.6,1.4-1.9,0.6-2.9,0.9c-0.5,0.2-1.1,0.3-1.6,0.5"/>
	<path fill="#FFFFFF" d="M289.2,11.8c0.8,0.7,1.7,1.5,2.5,2.2"/>
	<path fill="#FFFFFF" d="M256,141.1c-0.3,0.5-0.6,1.1-0.9,1.6"/>
	<path fill="#FFFFFF" d="M313.4,33.5c0.8,1.2,1.6,2.4,2.4,3.6"/>
	<path fill="#FFFFFF" d="M270.9,113.3c0.5,1.2,0.9,2.3,1.4,3.5"/>
	<path fill="#FFFFFF" d="M276,125.6c0.3,1.2,0.5,2.3,0.8,3.5"/>
	<path fill="#FFFFFF" d="M289.5,14.9c-0.6,0.5-1.2,0.6-1.9,0c-0.4-0.3-1.1-0.2-1.6-0.3"/>
	<path fill="#FFFFFF" d="M133.7,156.3c-1.2,0.3-2.3,0.7-3.5,1"/>
	<path fill="#FFFFFF" d="M146.7,84.3c-0.3,0-0.7,0.1-1,0.1"/>
	<path fill="#FFFFFF" d="M277,53.3c-1,0.3-2.1,0.6-3.1,0.9"/>
	<path fill="#FFFFFF" d="M270.2,133.8c-1.3,0.4-1.8,1.7-2.5,2.7"/>
	<path fill="#FFFFFF" d="M173.4,115.6c-0.2-0.5-0.4-1-0.7-1.5c-0.3-0.4-0.6-0.8-0.9-1.2"/>
	<path fill="#FFFFFF" d="M144.3,77.5c0.1,1.3,0.2,2.5,0.3,3.8"/>
	<path fill="#FFFFFF" d="M290,57.8c-0.9,1-1.9,0-2.9,0.1"/>
	<path fill="#FFFFFF" d="M155.3,130.7c-0.2,0.9-0.7,1.9,0,2.8"/>
	<path fill="#FFFFFF" d="M319.2,39.1c0.1,0.9,1.1,1.7,0.2,2.7"/>
	<path fill="#FFFFFF" d="M272.9,117.9c0.5,0.9,1.1,1.8,2.3,2"/>
	<path fill="#FFFFFF" d="M267.6,139.4c-0.8-0.5-1.6-0.9-2.2,0.3"/>
	<path fill="#FFFFFF" d="M187,196c0.1,0.8,0.2,1.7,0.3,2.5"/>
	<path fill="#FFFFFF" d="M129.4,144.5c0.7,0.8,1.4,1.5,2.1,2.3"/>
	<path fill="#FFFFFF" d="M226.1,162.7c0.1,0.8,0.2,1.7,0.2,2.5"/>
	<path fill="#FFFFFF" d="M316.2,37.6c0.3,0.8,1.1,1.5,0.5,2.5"/>
	<path fill="#FFFFFF" d="M291,32.1c-0.8,0.1-1.7,0.2-2.5,0.3"/>
	<path fill="#FFFFFF" d="M98.9,174.9c-0.3-1-0.9-1.5-1.9-1.6"/>
	<path fill="#FFFFFF" d="M74.7,151.3c0.3,0.8,0.5,1.6,0.8,2.4"/>
	<path fill="#FFFFFF" d="M338.2,121.8c1.4,0.6,2.7,1.2,4.1,1.7"/>
	<path fill="#FFFFFF" d="M142.8,128.2c-0.5,0.7-1.2,0.9-2,0.8"/>
	<path fill="#FFFFFF" d="M116,159.8c-0.7,0.8-0.2,1.5,0.1,2.2"/>
	<path fill="#FFFFFF" d="M295.2,15.5c1,0.1,1,0.9,1.2,1.6"/>
	<path fill="#FFFFFF" d="M93.7,150.7c0.2,0.4,0.5,0.8,0.7,1.3c0.3,0.5,0.4,1,1.1,1.1c0.5,0.1,0.8,0.9,1.2,1.4"/>
	<path fill="#FFFFFF" d="M156.7,229.7c0,0.7,0.1,1.3,0.1,2"/>
	<path fill="#FFFFFF" d="M152.6,105.3c-0.7,0.1-1.5,0.2-2.2,0.3"/>
	<path fill="#FFFFFF" d="M272.1,61.7c0.7,0.2,1.4,0.4,2.1,0.6"/>
	<path fill="#FFFFFF" d="M303.3,100.2c-0.7,0-1.4,0-2.1,0"/>
	<path fill="#FFFFFF" d="M296.3,107.2c0.4,0.7,0.8,1.3,1.2,2"/>
	<path fill="#FFFFFF" d="M309.6,25.9c-0.9-0.4-1.8-0.8-2.7-1.2"/>
	<path fill="#FFFFFF" d="M299.8,34.5c0.5,0.3,1.1,0.5,1.6,0.8"/>
	<path fill="#FFFFFF" d="M167.6,89.4c0.8,1,1.6,2,2.4,3"/>
	<path fill="#FFFFFF" d="M216.3,153.7c0.7,0.1,1.3,0.2,2,0.3"/>
	<path fill="#FFFFFF" d="M264.9,84.2c-0.1,0.7-0.2,1.3-0.3,2"/>
	<path fill="#FFFFFF" d="M285.9,77.2c0.1,0.7,0.2,1.3,0.2,2"/>
	<path fill="#FFFFFF" d="M121.9,185.7c-0.6,0.1-1.2,0.2-1.9,0.3"/>
	<path fill="#FFFFFF" d="M347.4,132.3c-1-0.3-2-0.5-3-0.8"/>
	<path fill="#FFFFFF" d="M265.4,84.1c0.2,0.6,0.4,1.2,0.6,1.9"/>
	<path fill="#FFFFFF" d="M129.2,88.7c0.1,0.6,0.2,1.2,0.2,1.9"/>
	<path fill="#FFFFFF" d="M337.8,126.5c-0.3,0.6-0.7,1.2-1,1.9"/>
	<path fill="#FFFFFF" d="M261.7,152.5c0.1,0.6,0.2,1.2,0.3,1.9"/>
	<path fill="#FFFFFF" d="M260.2,87.8c0.1,0.6,0.2,1.2,0.2,1.9"/>
	<path fill="#FFFFFF" d="M100.8,182.4c-0.1,0.6-1.4,0.9-0.5,1.7"/>
	<path fill="#FFFFFF" d="M179.4,155.2c-0.1-0.9-0.7-1-1.4-1"/>
	<path fill="#FFFFFF" d="M327.7,109.8c-0.5,0.2-1,0.5-1.5,0.7"/>
	<path fill="#FFFFFF" d="M169,89.4c0.5,0.4,1.1,0.8,1.6,1.3"/>
	<path fill="#FFFFFF" d="M282.2,138.9c-0.5,0-1.1,0-1.6,0"/>
	<path fill="#FFFFFF" d="M156.2,81.7c-0.5,0.1-1.1,0.2-1.6,0.2"/>
	<path fill="#FFFFFF" d="M347.4,114.9c-0.4,0.5-0.8,1.1-1.2,1.6"/>
	<path fill="#FFFFFF" d="M291.9,209.6c-0.5-0.1-0.9-0.2-1.4-0.2"/>
	<path fill="#FFFFFF" d="M264.7,74c0,0.5,0,1,0,1.5"/>
	<path fill="#FFFFFF" d="M152.4,218.6c-0.5,0.1-0.9,0.2-1.4,0.2"/>
	<path fill="#FFFFFF" d="M270.5,103.9c0,0.5,0,1,0,1.5"/>
	<path fill="#FFFFFF" d="M107,196.8c-0.5,0-0.9-0.1-1.4-0.1"/>
	<path fill="#FFFFFF" d="M282.8,12.6c-0.5,0-1,0.1-1.5,0.1"/>
	<path fill="#FFFFFF" d="M310.1,38.3c-0.5,0-1,0.1-1.5,0.1"/>
	<path fill="#FFFFFF" d="M159.7,83.5c0.1,0.5,0.2,1,0.3,1.5"/>
	<path fill="#FFFFFF" d="M358.7,88.5c0.1,0.5,0.2,1,0.3,1.5"/>
	<path fill="#FFFFFF" d="M270,108.5c0,0.5-0.1,1-0.1,1.5"/>
	<path fill="#FFFFFF" d="M248.5,197.4c-0.2,0.5-0.5,0.9-0.7,1.4"/>
	<path fill="#FFFFFF" d="M235.1,168.2c-0.3,0.3-0.5,0.5-0.8,0.8"/>
	<path fill="#FFFFFF" d="M158.6,133.6c0.1,0.4,0.2,0.8,0.2,1.3"/>
	<path fill="#FFFFFF" d="M233.1,169.4c-0.7,0.3-1.4,0.7-1.5,1.6"/>
	<path fill="#FFFFFF" d="M300.5,22.6c-0.7,0.1-1.4,0.2-2.1,0.3"/>
	<path fill="#FFFFFF" d="M238.1,217.9c-0.1,0.4-0.2,0.8-0.2,1.3"/>
	<path fill="#FFFFFF" d="M148.4,89.4c0,0.4-0.1,0.8-0.1,1.2"/>
	<path fill="#FFFFFF" d="M172.8,211.5c-0.3-0.1-0.6-0.1-0.9-0.2"/>
	<path fill="#FFFFFF" d="M254.6,146.4c-0.4,0.2-0.8,0.4-1.2,0.6"/>
	<path fill="#FFFFFF" d="M300.4,111.3c0.3,0,0.5,0,0.8-0.1"/>
	<path fill="#FFFFFF" d="M258.3,145.7c-0.3,0.2-0.7,0.5-1,0.7"/>
	<path fill="#FFFFFF" d="M263.3,96.2c0.1,0.6,0.2,1.2,0.3,1.9"/>
	<path fill="#FFFFFF" d="M241.2,173.5c-0.2,0.3-0.4,0.5-0.6,0.8"/>
	<path fill="#FFFFFF" d="M275.6,121.1c-0.3,0-0.5,0-0.8-0.1"/>
	<path fill="#FFFFFF" d="M275.6,123.5c0,0.3-0.1,0.6-0.1,0.9"/>
	<path fill="#FFFFFF" d="M339.2,142.5c0,0.3,0,0.6,0,0.9"/>
	<path fill="#FFFFFF" d="M337,134.3c0.2,0.3,0.4,0.5,0.6,0.8"/>
</g>
</svg>
