<?xml version="1.0" encoding="utf-8"?>
<!-- Generator: Adobe Illustrator 18.0.0, SVG Export Plug-In . SVG Version: 6.00 Build 0)  -->
<!DOCTYPE svg PUBLIC "-//W3C//DTD SVG 1.1//EN" "http://www.w3.org/Graphics/SVG/1.1/DTD/svg11.dtd">
<svg version="1.1" xmlns="http://www.w3.org/2000/svg" xmlns:xlink="http://www.w3.org/1999/xlink" x="0px" y="0px"
	 viewBox="0 0 1304.4 307" enable-background="new 0 0 1304.4 307" xml:space="preserve">
<g id="Layer_1">
	<g>
		<g>
			<path fill="#DCDBDB" d="M338.5,236.4V229h8.6v5.7c0,11.4,5.1,23.4,23.9,23.4c14.6,0,22-11.4,22-22.7v-70.6h8.8v69.9
				c0,17-10.2,31-32,31C351.1,265.7,338.5,256,338.5,236.4z"/>
			<path fill="#DCDBDB" d="M453.6,164.6h8.3l36.5,99.5h-9.2l-11.1-31.3h-41.5l-11.4,31.3h-8.8L453.6,164.6z M475.6,225.4l-18-50.4
				h-0.1l-18.4,50.4H475.6z"/>
			<path fill="#DCDBDB" d="M514.2,164.8H525l33,60.5h0.1l32.3-60.5h11.1v99.2h-8.6V180h-0.3l-31.3,57.3h-7l-31.3-57.2h-0.4v83.9
				h-8.5V164.8z"/>
			<path fill="#C41718" d="M651.8,164.8H682l32.4,44.5h0.3v-44.5h28.1v99.2h-28.1l-34.5-48.7h-0.3v48.7h-28.1V164.8z"/>
			<path fill="#C41718" d="M784.1,164.7h36.3l32.8,99.4H822l-4.7-15.9h-33l-4.7,15.9h-28.9L784.1,164.7z M810.4,225.2l-9.5-32.1
				h-0.4l-9.5,32.1H810.4z"/>
			<path fill="#C41718" d="M885,188.9h-27.8v-24.1H944v24.1h-27.8v75.1H885V188.9z"/>
			<path fill="#C41718" d="M954,164.8h31.2v99.2H954V164.8z"/>
			<path fill="#C41718" d="M996.6,227.3v-25.5c0-26.9,21-38.7,44-38.7c22.7,0,44.8,9.6,44.8,38.7v25.3c0,28.4-22.4,38.5-44.4,38.5
				C1018.2,265.7,996.6,256.6,996.6,227.3z M1053.9,227.9v-27c0-8.9-6.1-13.4-13.1-13.4c-8.3,0-12.8,4.3-12.8,13.4v26.4
				c0,9,4.5,14.1,13.1,14.1C1049.1,241.4,1053.9,236.2,1053.9,227.9z"/>
			<path fill="#C41718" d="M1096.8,164.8h30.2l32.4,44.5h0.3v-44.5h28.1v99.2h-28.1l-34.5-48.7h-0.3v48.7h-28.1V164.8z"/>
			<path fill="#C41718" d="M1195.6,254.6l14.8-21.7c6.4,4.9,16.7,10.2,26.4,10.2c4.9,0,11.6-1,11.6-5.7c0-4.7-3.9-5.8-8.6-7.1
				l-17.5-4.9c-13.6-3.8-23.2-13.4-23.2-27.8c0-18.4,15.4-34.2,40.4-34.2c18.4,0,27.3,3.1,38.5,9.7l-16.4,20.5
				c-5.3-4.2-14.6-6.8-20.6-6.8c-6.4,0-11.1,1.4-11.1,6s5.3,5.1,12.4,7.1l14.3,4c16.4,4.6,24.9,14.5,24.9,27.7
				c0,24.9-22.7,34.2-41.9,34.2C1222.9,265.7,1209.2,264.1,1195.6,254.6z"/>
		</g>
	</g>
</g>
<g id="Layer_2">
	<g>
		<path fill="#FFFFFF" d="M327.6,136.7c0.4-1.5,0.9-3.1,1-4.6c0-0.9-0.5-2.1-1.2-2.6c-1.9-1.4-3.1-3.2-3.9-5.3
			c-1.1-2.9-1.9-5.8-2.8-8.8c-0.6-2-1.2-4.1-1.8-6.2c-0.1-0.2,0-0.4-0.1-1c0.6,2.1,1.1,3.9,1.8,5.7c0.2,0.6,0.9,1.3,1.4,1.3
			c0.9,0,1-0.9,1-1.8c0-2,0-4,0.1-6c0-0.5,0.4-1,0.7-1.3c-0.2,8.9,2.3,16.9,6.6,24.9c1.2-2.1,2.4-3.7,3.3-5.6
			c2.2-4.7,4.9-9.2,7.8-13.5c0.3-0.4,0.5-1,0.8-1.4c1.3-1.6,1.2-3.4,0.8-5.2c-0.6-2.8-1.3-5.6-1.8-8.5c-1-5-3.2-9.6-5.2-14.2
			c-1.8-4.1-3.7-8.1-6.6-11.6c-2.1-2.5-4.2-5-6-7.7c-2.7-4.1-6.1-7.7-9.3-11.5c-2.7-3.3-6.1-6-9.1-9c-2.8-2.7-5.6-5.5-8.3-8.3
			c-0.1-0.1-0.3-0.3-0.2-0.7c5.8,5.5,11.5,10.9,17.3,16.4c0.1-0.1,0.3-0.3,0.4-0.4c-0.9-1.3-1.8-2.5-2.6-3.8
			c0.1-0.1,0.2-0.1,0.2-0.2c1.2,1.3,2.4,2.6,3.6,3.9c5.9,6.8,11.8,13.5,17.5,20.4c2.9,3.5,5.3,7.5,7.9,11.2c2.2,3.2,4.4,6.4,6.5,9.6
			c1.4,2.1,2.7,4.2,4,6.3c0.4,0.7,0.5,1.6,0.7,2.4c-2.9-3.5-6-6.8-8.7-10.5c-2.6-3.6-4.9-7.4-7.6-11c4,9,7.1,18.1,8,28
			c0.1,0,0.2,0,0.4,0c1-1.8,1.9-3.5,2.8-5.2c1,0,1.8,0.1,2.7,0c0.7-0.1,1.1,0.3,1,0.9c-0.2,1.2-0.4,2.4-1,3.4
			c-2.7,4.6-5.5,9-8.2,13.6c-1.2,2.1-2.2,4.3-3.3,6.4c-0.9,1.8-1.7,3.7-2.6,5.5c-0.2,0.4-0.7,0.7-1,1.1c-0.4,0.4-0.8,0.8-0.9,1.4
			c-0.1,0.2,0.6,0.7,1,0.8c0.9,0.4,1.8,0.7,2.8,1c2.4,0.7,4.4-0.1,5.7-2.3c0.7,0.1,1.4,0.1,1,1.3c-2.6,6.5-5.8,12.6-9.6,18.5
			c-1.2,1.9-2.8,4-5.3,4.2c-2.1,0.2-2.5,1.8-3.3,3.2c-0.9,1.5-1.7,3.1-2.5,4.6c0.1,0.1,0.3,0.2,0.4,0.3c1.5-2,2.9-4.1,4.6-6.4
			c-0.3,0.7-0.5,1.2-0.7,1.7c-2.4,5.1-5.3,9.8-9,14c-5.3,6.1-9.1,13.1-13.2,19.9c-0.4,0.7-0.8,1.3-1.1,2.1
			c3.4-3.4,6.2-7.5,10.1-10.4c-4,4.7-8.2,9.3-11.9,14.3c-3.7,5-6.8,10.4-10.4,15.5c0.8-1.4,1.5-2.7,2.3-4.1
			c-0.1-0.1-0.2-0.2-0.3-0.3c-1.4,1.8-2.9,3.6-4.3,5.5c-1.4,1.9-2.8,3.9-4.1,5.9c-1.3,1.9-2.8,3.8-4,5.8c-1.3,2-2.3,4.2-3.5,6.3
			c-1.1,2.1-2.2,4.3-3.3,6.4c-0.1,0-0.2-0.1-0.3-0.1c0.5-1.1,0.9-2.3,1.4-3.4c-0.1-0.1-0.2-0.1-0.3-0.2c-0.5,0.8-1.1,1.6-1.6,2.4
			c-3.9,6.9-7.8,13.8-11.6,20.7c-0.7,1.3-1,2.7-1.5,4.1c-0.3,0.9-1.9,1.7-2.8,1.6c-1.6-0.1-3.2-0.1-4.9-0.2
			c-1.6-0.1-3.3-0.2-4.9-0.2c-9.8,0-19.6,0-29.4-0.1c-14.5,0-28.9-0.1-43.4-0.1c-9.8-0.1-19.5-0.2-29.3-0.4c-1.7,0-0.9,1.3-1.6,2.1
			c-0.9-0.5-1.9-1-2.9-1.5c-0.5-0.3-1.1-0.6-1.7-0.6c-6.1-0.1-12.3-0.1-18.4-0.2c-2.1,0-4.1,0-6.2,0c-0.6,0-1.1,0.3-1.6,0.5
			c-1.1-0.2-2.2-0.5-3.3-0.5c-2.7-0.1-5.3,0-8,0c-4.3,0-8.7,0.1-13-0.1c-2.6-0.2-5.1,0.3-7.7,0.1c-1.8-0.1-3.5,0-5.3,0
			c-0.3,0-0.7-0.1-0.9-0.4c-0.9-1.1-2-1.4-3.4-1.4c-2.4,0.1-4.9,0.1-7.3,0.2c-0.8,0-1.3-0.7-1.2-1.6c0.1-0.5,0.1-1.1,0-1.6
			c-1.3-5.7-2.6-11.4-3.8-17.1c-0.7-3.2-1.3-6.4-2.1-9.5c-0.2-1-0.5-2.1-1.9-2.3c-0.2,0-0.5-0.4-0.5-0.7c-0.3-1.3-0.4-2.6-0.7-3.9
			c-0.2-1.4,0.4-2.2,1.5-2.8c1.1-0.6,0.7-1-0.1-1.5c-0.8-0.5-1.5-0.9-2.2-1.5c-0.5-0.5-0.8-1.2-1.2-1.8c-0.2-0.3-0.4-0.7-0.8-0.9
			c-1.7-0.9-3.5-1.6-5.3-2.5c-0.3-0.1-0.5-0.6-0.5-0.9c0-0.5,0.2-1,0.4-1.4c0.6-1.5,1.3-2.9,2-4.3c0.1,0.1,0.2,0.1,0.3,0.2
			c-0.2,0.3-0.3,0.6-0.7,1.4c1.5-0.7,2.7,0.3,4.1-0.5c1.9-1.1,4.3,0.7,4.6,2.8c0.3,1.7,0.6,3.1-0.7,4.5c-0.2,0.2,0.1,0.9,0.2,1.3
			c0.2,0,0.3,0,0.5,0c0.1-0.4,0.1-0.9,0.3-1.3c0.2-0.4,0.5-0.8,0.9-0.9c0.2-0.1,0.7,0.4,0.9,0.8c0.8,1.6,1.9,1.9,3,0.4
			c1.1-1.4,2.6-1.9,4.2-2.2c0.7-0.1,1.4-0.5,2.1-0.8c0.4-0.1,0.9-0.2,1.3-0.4c0,0.2,0.1,0.4,0.1,0.6c-1.9,0.5-3.9,1.1-6,1.7
			c2.5,1.2,4.8,2,7.3,0.7c0.7-0.4,1.7-0.5,2.3-1c0.6-0.5,0.8-1.4,1.3-2.3c-1.4-0.1-2.5-0.2-3.6-0.3c0-0.1,0-0.3,0-0.4
			c0.3-0.2,0.6-0.3,1.2-0.6c-0.7-0.2-1.2-0.4-1.7-0.4c-2.8-0.2-5.7-0.4-8.5-0.6c-0.7-0.1-1.4-0.3-2.1-0.5c-0.1,0.9-0.1,1.7-0.2,2.6
			c-0.2,0-0.3,0.1-0.5,0.1c-0.2-0.4-0.6-0.8-0.6-1.1c0.2-2.6-1.7-3.6-3.5-4.7c-1.7-1-3.4-1.9-5.2-3c-0.8,0.6-1.9,1.3-3,2.1
			c-2,1.3-3.5,3-4.5,5.2c-0.3,0.7-0.6,1.1-1.5,0.5c-0.5-0.3-1.1-0.3-2-0.6c0,1.1,0,2,0,2.8c0,2.3,0,4.6,0.1,6.8
			c0,0.7,0.4,1.5,0.8,1.9c2.2,2.2,4.6,4.2,7.5,5.2c-0.4,0.5-0.8,0.9-1.2,1.3c-0.3,0.2-0.6,0.4-1,0.4c-2.1,0-4.1-0.4-5.7-2.1
			c-0.2,0.5-0.3,0.8-0.4,1.2c-0.1-0.1-0.3-0.2-0.3-0.3c-0.3-1.6-0.7-3.1-0.7-4.7c-0.1-4.3,0-8.6,0-12.8c0-0.9-0.2-1.4-1.1-1.7
			c-0.5-0.1-1-0.4-1.5-0.6c-0.8-0.4-1.3-0.8-1.6-1.9c-0.4-1.4-1.4-2.5-2.1-3.8c-3.2-5.9-6.5-11.7-9.6-17.6c-1.2-2.2-1.9-4.7-2.8-7.1
			c-0.2-0.5,0-1.1,0-1.9c-0.3-0.1-1-0.3-1.3-0.4c0.2-1.4,0.3-2.5,0.5-3.8c0.2,0.3,0.5,0.4,0.6,0.7c0.4,0.8,0.8,1.6,1.9,1.3
			c0.1,0,0.4,0,0.5,0.2c0.6,1.2,1.9,0.9,2.9,1.2c3,0.9,6,1.8,8.9,2.8c0.8,0.3,1.5,0.5,2.1-0.4c0.2-0.3,0.7-0.4,1.1-0.5
			c2-0.6,4-1.1,6.1-1.6c0.2-0.1,0.4-0.2,0.5-0.3c0-0.1-0.1-0.2-0.1-0.3c-0.9,0.2-1.7,0.3-2.8,0.6c0.2-0.9,0.3-1.6,0.5-2.3
			c-0.2-0.1-0.4-0.1-0.6-0.2c-0.5,0.8-0.9,1.6-1.4,2.5c0,0-0.1,0-0.1-0.1c-0.4-1.1,0.5-2.2-0.2-3.4c-0.5-1,0.9-2.2,2.3-2.5
			c4.5-0.7,3.7-0.5,4.2-4.7c0.5-3.7,0.9-7.4,1.4-11.1c0.4-2.7,1.3-3.7,3.6-3.8c-0.7,6.4-1.3,12.7-2,18.8c1.7,1.2,3.2,2.3,4.8,3.3
			c0.8,0.5,2,0.5,2,1.9c0,0.1,0.5,0.3,0.7,0.2c1-0.4,1.9-0.1,2.9,0.3c0.6,0.3,1.2,0.4,1.5-0.8c0.3-1.1,1.3-2.1,2-3.1
			c3.5-5.2,8.3-9.1,13.8-11.9c3.7-1.9,6.1-5.1,7.7-8.6c0.9-1.8,1.5-3.8,2.3-5.7c0.3-0.6-0.2-1.6-0.4-2.4c-0.3-0.9-0.8-1.3-1.8-1
			c-0.2,0.1-0.5-0.2-0.6-0.4c-1.2-1.5-2.6-1.9-4.4-1.4c-3.6,1.1-6.7,0.2-9.7-2.1c-2.3-1.7-2.8-3.8-2.9-6.3c-0.2-2.7-0.3-5.3-0.6-8
			c-0.1-0.8-0.8-1.4-1.2-2.2c-0.2-0.4-0.5-0.7-0.5-1.1c0.3-4.9,2.1-9.1,5.9-12.4c2.8-2.4,6-3.4,9.7-3.4c0-0.3,0.1-0.7,0-1
			c-1-2-0.3-3.8,0.6-5.5c0.9-1.6,2.2-3,3.2-4.6c1.9-3.1,4.7-5.4,7.6-7.4c4.4-3.1,9.3-3.3,14.3-1.7c0.4,0.1,0.7,0.4,1.1,0.8
			c-4.4-0.1-8.8-1-13,1.8c2-0.3,3.8-0.8,5.5-0.8c3,0,6,0.1,8.9,0.4c2.5,0.3,4.5,1.8,6.1,3.8c0.5,0.6,1.1,1.1,1.7,1.7
			c0.1-0.1,0.2-0.2,0.2-0.2c-1.4-1.5-2.8-3-4.2-4.6c0.1-0.1,0.2-0.2,0.3-0.3c1.3,1.2,2.6,2.3,4,3.5c0.5,0.5,1,1.1,1.6,1.4
			c2.5,1.3,3.7,3.8,5.2,6c1,1.6,3.1,2.4,4.8,1.8c1.5-0.6,3-1.3,4.5-1.9c0.7-0.3,1.4-0.7,2.1-0.9c1.5-0.4,2.7,0.1,3.2,1.6
			c0.4,1.5,0.9,3,0.9,4.6c0,2.9,0.6,5.6,1.3,8.3c0.2,0.6,0,1.4-0.3,2.1c-0.2,0.8-0.8,1.4-1.1,2.2c-0.6,1.5-1.1,2.8-0.1,4.6
			c1.1,1.9,1.4,4.3,2.2,6.6c0.7-0.3,1.6-0.7,2.8-1.3c-0.2,0.5-0.3,0.7-0.4,0.7c-2.3,1.1-2.8,3.1-3,5.4c0,0.6-0.7,1.2-1.1,1.8
			c-0.2,0.3-0.8,0.4-1,0.7c-0.8,1.2-1.9,1.2-3.2,1c-1.7-0.2-2.3-1-2.4-2.8c0-0.6-0.1-1.3-0.3-1.9c-1.3,2.1-2,4.2-1.4,6.6
			c0,0.1,0.1,0.2,0.1,0.2c0.5,1.3,0.4,3.1,2.7,2.9c1.5-0.1,3,0.1,4.3-1c0.3-0.3,0.9-0.3,1.4-0.4c0,0.5,0,1-0.1,1.5
			c-0.1,0.3-0.3,0.7-0.6,0.9c-1.3,1.1-2.2,2.4-1.9,4.3c0.1,0.3-0.7,0.8-1.2,1.4c-0.1,1.8-2.2,2.9-4.4,1.9c-2.1-0.9-4-2.1-4.6-4.6
			c-1,0.1-1.7,0.4-1.9,1.4c-0.1,0.9-0.6,1.1-1.3,0.2c-1.5,3.4-2.9,6.7-4.3,10c-0.1,0-0.2,0-0.4-0.1c0.2-1.4,0.4-2.8,0.6-4.6
			c-1.4,1.6-2.4,2.8-3.6,4.1c0.2,0.2,0.5,0.3,0.6,0.6c0.2,0.5,0.4,1.2,0.2,1.6c-0.5,0.9-1.3,1.7-1.9,2.5c0.1-0.9,0.3-1.9,0.4-2.9
			c-1.6,0.2-2.3,0.5-3.2,1.8c-1.3,2-3.1,3.3-5.2,4.3c-0.4-1.9,0.6-3.2,1.4-4.6c0.8-1.3,1.4-2.8,2.1-4.1c0.8-1.6,1.7-3.3,2.5-4.9
			c0.1,0,0.2,0.1,0.3,0.1c0,0.4,0,0.8,0,1.4c1.2-1.3,2.3-2.4,2.5-3.9c-1.1,0-2.3,0.3-3.1-0.1c-1.1-0.5-2-0.4-3,0.1
			c-0.4,0.2-0.8,0.3-1.2,0.3c-2.2-0.1-4.1,0.7-6.1,1.4c-1.2,0.5-2.5,0.9-3.8,1.1c-1.1,0.2-2.2,0-3.3,0c1.2-0.7,2.5-1.3,3.9-2.1
			c-1,0-1.8,0-3,0c0.7-0.5,1-0.7,1.2-0.9c-2.1-1.6-4.1-3.2-6.5-5c1,3,2,5.7,2.9,8.4c0.6-0.2,1.1-0.3,1.6-0.4
			c-0.3,0.8-0.6,1.7-0.9,2.5c-0.1,0.3-0.1,0.6-0.3,0.8c-1.5,1.8-1.5,1.8-0.4,3.6c-0.8,0.5-1.6,1.1-0.2,2c0.3,0.2,0.2,0.8,0.3,1.2
			c0.2,0.6,0.4,1.3,0.8,1.8c0.8,1.1,1.7,2.1,2.7,3.2c-1.8,0.3-2.5-1.1-3.7-1.8c0,1.1-0.2,2.1,0,3c0.4,1.6,1.1,2.7,3.3,2.2
			c1.6-0.4,3.2-0.8,4.8-1c3.2-0.5,6.3-0.9,9.5-1.2c1.2-0.1,1.7-0.8,2-1.9c0.4-1.5,1-2.9,1.6-4.4c-0.4,1.7-0.7,3.4-1.2,5.5
			c1.6-0.7,2.9-1.3,4.2-1.9c1.1-0.5,2.1-0.9,3.2-1.3c0.2-0.1,0.6,0,0.9,0c0,0.3,0,0.6,0,0.8c-0.4,1.2,0.2,2.3,1.6,2.5
			c1.2,0.2,2.4,0.5,3.5,0.7c2.2,0.4,3.6,2.2,5.3,3.4c0.9,0.6,1.7,1.2,2.7,1c0.3,0.7,0.4,1.6,0.9,2c0.5,0.5,1.3,0.5,2,0.7
			c0.4-0.6,0.8-1.3,1.4-2.2c0.5,2.4,0.9,4.4,1.3,6.3c0,0-0.3-0.1-0.7-0.2c-0.2,5.1-0.5,10-0.7,15c0.1,0,0.5-0.1,0.8-0.1
			c4.5-0.9,9.1-2,13.6-2.8c1.8-0.3,2.7-1.4,3.8-2.7c1.9-2.4,3.8-4.8,6-6.9c1.2-1,3.1-1.3,4.7-1.8c2.2-0.7,4.5-1.4,6.7-2.1
			c4.8-1.5,9.5-3,14.3-4.4c8.8-2.6,17.4-5.6,25.9-9c0.8-0.3,1.5-0.9,2.1-1.5c1.7-1.4,3.6-2.2,5.7-2.9c1.7-0.6,3.2-1.4,4.8-2.1
			c0.3-0.1,0.6-0.2,0.9-0.2c1.6-0.2,3.2-0.4,4.9-0.4c0.9,0,1.2-0.4,1.3-1.2c0.1-2,0.1-4,0.1-6c0-0.4-0.2-0.7-0.4-1.1
			c-0.7-1.2-0.3-2.4,0.9-2.6c5.2-0.7,10.5-0.8,15.7,0.5c0.6,0.1,1,0.6,1.7,1c-0.1-0.7-0.2-1.5-0.3-2.4c0.5,0.9,0.9,1.7,1.2,2.5
			c0.1-0.1,0.2-0.1,0.4-0.2c-0.3-1.6-0.4-3.2-2.3-4c-0.2-0.1-0.3-0.4-0.3-0.7c-0.2-1.4-1.4-2.5-1-4.1c0.1-0.3-0.6-0.8-0.9-1.2
			c-0.3-0.3-0.5-0.6-0.6-1.1c0.5,0.4,1,0.9,1.5,1.3c0.1-0.1,0.2-0.1,0.3-0.2c-0.8-1.3-1.6-2.5-2.3-3.9c-0.5-1-1-2-1.4-3
			c-0.1-0.2-0.2-0.6-0.1-0.8c1-1.3-0.1-2.1-0.6-3.1c-0.1-0.2-0.6-0.2-0.9-0.3c-1-1.6-2.2-3.2-3.2-4.9c-1-1.6-1.9-3.2-1.8-5.3
			c0.1-1.4-0.3-3.1-1.6-4.3c-0.3,0.4-0.5,0.7-0.9,1.3c-0.2-0.8-0.3-1.5-0.5-2.2c0.5,0.1,0.9,0.2,1.2,0.3c0-0.2,0-0.4-0.1-0.5
			c-0.3-0.2-0.6-0.6-1-0.6c-1.5-0.1-2.5-0.7-2.9-2.3c-0.1,0.1-0.2,0.1-0.4,0.2c0,0.8,0,1.5,0,2.3c0.1,1.6,0.1,3.1,0.2,4.7
			c0.1,2.3,0.5,4.4,2.1,6.2c-1.3,0.3-2.1-0.2-2.6-1.6c-0.6-1.9-1.2-3.7-1.8-5.6c-0.3-0.8-0.7-1.6-1-2.4c-1.1-2.5-0.9-5-0.6-7.6
			c0-0.3,0.8-0.9,1-0.8c1,0.3,2.1,0.7,3,1.3c0.8,0.5,1.4,1.4,2.2,2.2c1.6-2,0.2-3.6,0-5.4c-0.8,0.3-1.4,0.6-2.1,0.8
			c-0.1,0.4-0.2,0.8-0.4,1.4c-0.7-1.5-0.7-1.8,0.4-2.9c0.2-0.2,0.3-0.5,0.3-0.7c-0.2-2-0.5-4-0.8-5.9c-0.2-1.3-0.5-2.6-0.8-3.9
			c-0.2-1,0.2-2.2-1.1-2.8c-0.1,0-0.1-0.6,0-0.8c0.7-1.7,0.9-3.5,0.5-5.3c-0.1-0.3,0-0.8,0.2-1c2.2-2,4.4-4.1,6.8-5.9
			c1.2-0.9,2.9-1,4.3-1.7c2.7-1.2,5.1-2.8,5.9-6.1c0.2-0.9,0.9-1.7,1.4-2.6c0.2-0.4,0.5-0.8,0.9-1.5c-1,0.3-1.6,0.4-2.2,0.6
			c-0.1-0.1-0.1-0.2-0.2-0.3c0.2-0.3,0.5-0.6,0.7-0.8c0.6-0.6,1.2-1.4,2-1.7c1-0.4,2.2-0.5,3.3-0.8c0.7-0.2,1.4-0.2,2-0.6
			c2.6-1.9,5.5-2.5,8.7-2.4c1.2,0,2.5-0.1,3.7-0.3c4.5-0.7,8.3,1,11.7,3.6c2.1,1.7,4.3,3.5,4.5,6.5c0.1,1.6,0.2,3.3-0.1,4.9
			c-0.2,1.4,0.1,2.5,0.5,3.7c0.5,1.4,0.8,2.8,1.2,4.2c0.3,1.1,1.5,1.8,2.5,1.5c0.6-0.2,1.2-0.4,1.9-0.7c0.5,1.1,0.4,2.1-0.3,3
			c-1.5,1.8-2.7,3.8-4.4,5.3c-2,1.8-2.5,4.2-3.2,6.5c-0.1,0.4-0.3,0.9-0.4,1.3c-0.6,1.5-0.1,3.2,1.3,4c0.9,0.5,1.2,1.2,1.2,2.1
			c0,2.3,0.3,4.6-0.6,6.9c-0.4,1.1-0.1,2.4-0.2,3.6c-0.2,1.4-0.5,2.8-0.9,4.1c-0.3,1.1-0.9,1.3-1.7,0.4c-0.2-0.2-0.5-0.4-1-0.8
			c-0.6,7.6-0.6,15-0.5,22.4c1.9,0.1,3.4-0.4,4.6-1.3c2.6-2,5.1-4,7.7-6c3.2-2.5,6.3-5.1,9.6-7.4c1.3-1,3.2-1.2,4.5-2.2
			c1.1-0.7,2-1.9,2.5-3.1c0.5-1.1,0.5-2.5,0.8-3.8c0.1-0.4,0.3-0.8,0.5-1.2c0.1,0,0.3,0,0.4,0c0.2,1.2,0.5,2.5,0.8,4
			c1.5-0.9,2.9-1.7,4.2-2.5c0.1,0.1,0.1,0.2,0.2,0.2c-1.2,1-2.4,2.1-3.6,3c-1,0.7-1.4,1.6-1.2,2.9c0.9,6.9,1.8,13.8,4.9,20.1
			c1,2,2.4,3.9,3.7,5.8c0.9,1.3,1.2,1.1,2.1-0.2c0.1-0.1,0.2-0.3,0.5-0.3c-0.2,0.5-0.4,0.9-0.6,1.4c-0.3,0.8,0.1,1.4,0.8,1.5
			c0.3,0.1,1-0.2,1.2-0.5c0.9-1.3,1.7-2.6,2.4-4c0.3-0.5,0.5-1.5,0.2-1.7c-0.6-0.6-1.5-1-2.1-0.2c-0.5-0.8-1-1.5-1.5-2.2
			c0.7-0.2,1.7-0.1,2.3-0.6C326.6,138.3,327,137.4,327.6,136.7c-0.4,1-0.9,2.1-1.4,3.2c1.8,0.8,2.4,0.6,3.2-0.9
			c0.4-0.8,0.8-1.5,1.1-2.3c0.6-1.2,0.2-2.4-0.3-3.9C329.2,134.3,328.4,135.5,327.6,136.7z M334.3,142.6c-1,2.6-2,5.1-3,7.8
			c0.5,0.1,0.9,0,1.2,0.1c1.7,0.6,1.8,0.6,2.8-1.1c1-1.7,2-3.4,3-5.2c0.7-1.2,1.3-2.5,2-3.8c-2,0.3-3.6,0.7-5.3,1.2
			C334.7,141.8,334.5,142.3,334.3,142.6c-0.2-0.2-0.3-0.5-0.4-0.6c-1.5-0.1-3.1-0.2-4.6-0.3c-0.2,0-0.4,0.2-0.5,0.3
			c-1.3,2.3-2.6,4.6-3.9,7.1c0.8,0.3,1.5,0.7,2.2,0.9c2.8,0.6,2.7,0.9,4.1-1.8C332.1,146.3,333.2,144.5,334.3,142.6z M129.6,105.8
			c-1.1-1-2.2-2-3.3-3c-0.1,0.1-0.2,0.2-0.3,0.3c0.4,0.8,0.9,1.7,1.3,2.5C127.8,106.6,128.7,106.7,129.6,105.8
			c1,0.3,1.9,0.4,2.6-0.7c0.1-0.2,0.8-0.4,1.2-0.2c0.9,0.4,1.8,0.9,2.6,1.4c0.3,0.2,0.5,0.7,0.7,1c0.2,0.3,0.5,0.6,0.7,0.9
			c0.1-0.1,0.2-0.1,0.3-0.2c-0.2-0.9-0.3-1.8-0.5-2.7c-0.4-1.7-0.7-3.5-1.1-5.2c-0.2-0.9-0.8-1.5-1.8-1.1c-1.9,0.8-3.8,1.7-6,2.8
			c0.9,0.6,1.4,1,2,1.4c-0.1,0.1-0.2,0.2-0.3,0.3c-0.7-0.4-1.5-0.8-2.4-1.3C128.3,103.7,128.9,104.8,129.6,105.8z M84.5,183.3
			c0.5,0,1,0.1,1.5,0c5.5-1.8,10.5-4.5,15.2-7.6c1.5-1,3.1-2,4.6-3.1c-0.1-0.1-0.1-0.2-0.2-0.3c-2.6,1.1-5.2,2.1-7.7,3.2
			c-1.5,0.7-2.9,1.9-4.4,2.4C90,179,87,180.8,84.5,183.3c0.5-1.1,1.1-2.1,1.7-3.4c-0.9,0.2-1.8,0.3-2.6,0.4
			c-0.1-0.1-0.1-0.2-0.2-0.3c2.9-1.5,5.8-3,8.6-4.5c-0.1-0.1-0.1-0.3-0.2-0.4c-1.9,0.3-3.8,0.7-5.8,1c-1,0.1-2.1,0.2-3.1,0.1
			c-1.8-0.1-2.9,0.6-3.4,2.3c-0.3,1-0.6,2-0.8,3c-0.3,1.3-0.5,2.6-0.8,4.3C80.4,185,82.7,184.9,84.5,183.3z M266.1,168.4
			c0,0-0.1,0-0.1,0c0.3-1.8,0.5-3.6,0.8-5.5c-0.1,0-0.3-0.1-0.4-0.1c-0.7,2.4-1.5,4.7-2.2,7.1c-0.4-2.9,0.5-5.6,1.6-8.2
			c1.1-2.5,2.4-5,3.7-7.5c-1.3,0.4-1.4,0.2-1-2.3c-0.6,0.4-1.4,1.2-2,1.1c-1.6-0.2-2.6,0.1-3.7,1.5c-1,1.3-2.7,2.2-4.1,3.2
			c-0.4,0.3-0.7,0.6-1.3,1c0.7,0.1,1,0.2,1.4,0.2c-2.5,0.2-4.3,1.8-6.2,3.1c-3.7,2.4-7.4,4.9-11.1,7.3c-0.9,0.6-2,0.9-2.5,1.7
			c-1.3,1.7-2.3,3.6-3.4,5.3c0-0.1-0.2-0.3-0.5-0.7c-1.2,1.6-2.5,3-3.4,4.6c-0.5,1-0.9,2.5-0.5,3.6c0.6,1.8-0.1,3.1-0.6,4.6
			c-1.4,4.2-3,8.4-4.3,12.6c-0.5,1.5-0.9,2.9-2.6,3.5c-0.6,0.2-1.1,0.7-1.6,1c0.1,0,0.2,0.1,0.3,0.1c-0.2,1.2-0.5,2.3-0.7,3.5
			c-0.7,4.1-1.3,8.3-1.9,12.4c-0.1,0.9-0.6,1.7-0.8,2.6c-0.1,0.5,0.1,1,0.1,1.4c0,0.4-0.2,0.8-0.3,1.2c0.4,0,0.9,0,1.4,0
			c0.3,6.1-0.7,12.4,1.3,18.4c-2.4-4.4-1.5-9.4-2.1-14.1c-0.2,0-0.3,0-0.5,0c-0.3,1.5-0.5,2.9-0.8,4.4c-0.2-0.1-0.5-0.2-1.2-0.5
			c-0.2,4-0.3,7.8-0.5,11.6c-0.3-0.2-0.3-0.4-0.4-0.6c-0.8-6.3-1.2-12.6-0.5-18.9c1.3-11.1,3.7-21.9,8-32.2
			c3.1-7.5,5.4-15.3,9.5-22.4c0.3-0.5,0.4-1.1,0.8-2c-1.5,0.6-2.5,1-3.6,1.4c-2.1,0.8-3.7,2.2-5,3.9c-0.6,0.8-1.3,1.7-1.8,2.7
			c-2.2,4-4.3,8.1-6.5,12.1c-0.5,0.9-0.1,1.4,0.7,1.9c0.9,0.5,1.6,1.1,2.5,1.7c-0.1,0.1-0.1,0.2-0.2,0.3c-1.2-0.7-2.3-1.4-3.6-2.2
			c-0.2,0.6-0.4,1-0.6,1.4c-2.9,7.5-5.2,15.2-6.3,23.3c-0.7,5.2-1.8,10.5-2.2,15.7c-0.5,6.7,0.3,13.3,2.5,19.7
			c0.2,0.5,0.2,1,0.3,1.6c-1.4-0.6-0.9-2.4-2.6-2.7c-0.6-4.5-1.3-9.3-2-14.1c-0.1,0.1-0.1,0.2-0.2,0.3c-1.5,7.7-0.8,15.5-1.3,23.2
			c-0.1,0.9,0.4,1.1,1.3,1.1c2,0,3.9,0,5.9,0c12.1,0,24.3,0,36.4,0c3.4,0,6.8,0,10.2,0c1.6,0,2.2-0.8,1.8-2.4c0-0.2,0.1-0.5,0.2-0.7
			c0.5-1,1-1.9,1.4-2.9c2.9-5.8,5.9-11.5,8.8-17.3c0.5-0.9,1.3-1.7,1.8-2.6c2.8-4.5,5.5-9,8.2-13.4c3.6-5.8,7.3-11.4,10.7-17.3
			c3.9-6.6,7.5-13.4,11.2-20.1c2.4-4.4,4.8-8.8,7.2-13.3c3.2-6.1,6.4-12.3,9.6-18.4c0.6-1.1,0.5-1.8-0.1-2.8
			c-1.1-1.7-2.3-3.5-3.1-5.4c-0.9-2-1.6-4.2-2.1-6.4c-0.9-3.8-1.5-7.6-2.2-11.4c-0.1-0.6-0.5-1.1-0.8-1.7c0.1-0.5,0.3-1.2,0.3-1.9
			c0-1.2-0.2-2.5-0.3-3.5c-1.8,1.4-3.8,2.9-5.8,4.6c-1.9,1.6-3.9,3.3-5.6,5.1c-2.8,2.9-5.5,5.8-8.9,8c-0.6,0.4-1,1.1-1.7,1.9
			c-2.2,0.4-2.3,0.3-4.7,2.2c-2.9,2.3-5.8,4.7-8.5,7.3c-3.3,3.3-6.1,7-7.3,11.6C267,163.6,266.6,166.1,266.1,168.4z M128.7,219.7
			c-0.1,0-0.2,0-0.3,0c0-0.5,0-1.1,0.2-1.6c0.5-2.7,1.2-5.3,1.6-8c0.3-1.4,0.4-2.9,0.3-4.4c-0.2-3.5-0.6-7.1-1-10.6
			c-0.1-0.8,0.1-1.2,0.9-1.3c1.1-0.2,2.3-0.5,3.4-0.7c2.1-0.4,2.7-1,2.7-3.1c0-1,0.1-2,0.2-3.1c0.3-2.7,0.6-5.3,0.8-8
			c0.2-2.5-0.1-4.8-3.3-5.3c-0.5-0.1-0.8-0.6-1.3-0.9c-1.8-1.1-3.6-2.2-5.6-3.1c-2.8-1.3-5.8-0.7-8.7-0.8c-1.2,0-2.5-0.2-3.6,0.2
			c-2.8,1-5.9,1.6-8,4c-0.3,0.4-0.8,0.6-1.2,0.9c-2.2,1.6-4.6,3-6.6,4.8c-1.6,1.6-3.4,2.8-5.4,3.6c-4.6,1.9-9.4,3.4-14.1,5.1
			c-1.2,0.4-2.7,0.9-3.3,1.8c-1,1.3-1.8,1.8-3.2,0.9c0,0.3,0,0.4,0,0.5c1.6,4.4,3.2,8.9,4.7,13.3c0.2,0.4,0.3,1,0.2,1.4
			c-0.3,0.7-0.9,1.4-1.3,2c-1.1-2-2.4-4-3.4-6.2c-1.1-2.4-1.8-4.9-2.7-7.4c-1.1-3-2.3-5.9-3.5-8.8c0-0.1-0.2-0.1-0.3-0.3
			c0,0.4,0,0.7,0,0.9c-0.1,0-0.2,0.1-0.3,0.1c-0.5-0.9-1-1.8-1.4-2.7c0.1,1.2,0.1,2.3,0.5,3.3c2.6,6.5,5.3,13,8,19.6
			c0.4,1.1,0.5,2.5,2.2,2.5c0.1,0,0.3,0.3,0.5,0.6c0.7-0.6,1.4-1.2,2.2-1.7c0.3-0.2,1-0.2,1.2,0c1,1.3,2.2,2,3.9,1.9
			c-1,0.2-2,0.4-2.8,0.5c-0.1,0.7-0.1,1.2-0.1,1.9c7-2.3,13.6-6,21.3-4c-0.2,0.2-0.4,0.2-0.6,0.3c-2.2,0.2-4.5,0-6.7,0.5
			c-4.9,1.3-9.6,2.9-14.4,4.5c-0.5,0.2-1,0.8-1.2,1.3c-0.5,1.7-0.9,3.4-1.1,5.2c-0.4,2.7-0.1,2.8,2.5,3.4c2.9,0.7,5.8,1.5,8.6,2.2
			c0,0.1-0.1,0.3-0.1,0.4c-2.7-0.5-5.3-1.1-8-1.6c-0.9-0.2-1.9-0.7-2.6-0.4c-1.6,0.6-2.6,0-3.8-0.9c-0.9-0.7-1.9-0.8-3-0.2
			c-1.5,0.9-3,1.8-4.6,2.3c-1.4,0.4-3,0.7-4-0.9c-0.1-0.2-0.7-0.3-1.1-0.2c-1.1,0.2-2.2,0.5-3.4,0.8c0.1,0.5,0.3,1.2,0.4,1.9
			c0.9,4.9,1.8,9.9,2.7,14.8c1.2,6.5,2.5,13.1,3.7,19.6c0.2,1.1,0.5,1.6,1.7,1.6c9.6-0.1,19.3-0.1,28.9-0.1c4.5,0,9,0,13.5,0
			c0.9,0,1.6-0.2,1.4-1.4c-0.2-1.7-0.3-3.5-0.6-5.2c-0.1-0.5-0.5-1.1-0.9-1.4c-1.1-0.8-2.1-1.6-2-3.2c0.1-1.3,0.4-2.5,0.5-3.8
			c0-0.4-0.1-1-0.3-1.2c-1.7-1.1-2-1.7-0.9-3.3c2.7-4.2,4.6-9,8-12.8c0.8-0.8,0.4-1.5-0.7-1.6c-3.8-0.3-7.6-0.7-11.4-1
			c-0.3,0-0.5-0.1-0.8-0.2c0-0.2,0-0.3,0-0.5c1.9-0.3,3.7-0.7,5.6-0.8c1.9-0.1,3.9,0,5.8,0c0-0.1,0-0.3,0-0.4c-4.9,0-9.8,0-14.7,0
			c0-0.1,0-0.2,0-0.3c0.4,0,0.8-0.1,1.3-0.1c2-0.1,4-0.1,6-0.2c4.7-0.3,9.4,0.5,14.1-0.5c0.1,0,0.2,0,0.3,0c1.5,1.1,3.1,0.5,4.7,0.4
			c0.6,0,1.2,0.1,1.8,0.1c-0.3,2.3-0.3,2.3-2.3,2.7c-1.3,0.2-2.6,0.4-3.8,0.7c-0.5,0.1-1,0.4-1.2,0.8c-2.3,4-4.5,8.1-6.7,12.2
			c-0.3,0.6-0.4,1.5-0.3,2.2c0.6,4.1,1.3,8.1,1.8,12.2c0.3,2.1,0.4,4.2,0.6,6.3c7.6,0,15.2,0,22.9,0c-0.1-2-0.2-3.9-0.4-5.7
			c-0.1-0.5-0.4-1.1-0.7-1.5c-1-1.4-2.2-2.7-3.2-4.1c-1.5-2.1-2.6-4.4-2.6-7c0-0.5,0.1-1.1,0.4-1.6c0.7-1.2,1.6-2.3,2.2-3.5
			c0.4-0.7,0.7-1.6,0.6-2.4c-0.6-4.8-1.4-9.6-2.1-14.4c-0.1-0.7-0.3-1.4-0.5-2.4c-0.2,0.4-0.3,0.5-0.4,0.6c-0.7,2.3-1.3,4.5-2,6.8
			c-0.1,0.4-0.3,1.1-0.5,1.1c-1.1,0-1,0.9-1.3,1.6c-0.3,0.7-0.6,1.3-0.9,2c-0.2,0-0.3-0.1-0.5-0.1c1.6-5.6,3.1-11.3,4.7-16.9
			c-0.1,0-0.3-0.1-0.4-0.1C129.8,215.8,129.2,217.8,128.7,219.7z M144.4,262c3.2,0,6.3,0,9.3,0c9.6,0,19.3-0.1,28.9,0
			c1.1,0,1.3-0.4,1-1.4c-0.9-3.8-1.7-7.6-2.5-11.5c-0.2-0.9-0.4-1.7-0.6-2.6c0,0-0.1,0-0.1,0c0.2,3.5,0.3,6.9,0.5,10.4
			c-0.6-3.5-1-7.1-1.3-10.7c-0.4-4-0.6-8.1-1-12.1c-0.5-5-1.4-10-1.9-15c-0.6-6.2-0.9-12.4-1.4-18.5c-0.1-1.5-0.2-3.2-0.9-4.4
			c-0.6-1.1-0.7-1.9-0.2-2.8c0.4-0.8,1.1-1.5,1.6-2.2c-0.3-0.5-0.5-1.1-0.9-1.5c-0.4-0.4-0.9-1-1.4-1c-0.4,0-0.8,0.6-1.2,0.9
			c-0.3,0.3-0.6,0.8-1,1c-0.9,0.4-1.9,0.7-2.8,1c-0.7,0.2-1.5,0.6-2.2,0.4c-1.7-0.3-2.9,0.8-4.3,1.2c0,0.1,0,0.3,0.1,0.4
			c1.6,0.1,3.1,0.1,4.7,0.2c0,0.1,0,0.3,0,0.4c-0.3,0.1-0.5,0.3-0.8,0.3c-3.2,0.3-6.5,0.6-9.7,0.9c-3.3,0.4-6.7,0.4-9.8,1.8
			c-1.7,0.8-3.4,1.4-5.1,2.1c-1.3,0.5-3.1,0.6-3.7,1.6c-0.6,1-0.1,2.8-0.1,4.2c0,0.2,0,0.4,0,0.5c0.1,0.2,0.1,0.5,0.3,0.5
			c1.1,0.3,1,1.3,1,2.1c0.3,5.4,0.5,10.8,0.8,16.2c0.3,3.9,0.5,7.7,1.1,11.5c1,5.6,2.3,11.1,3.5,16.6c0.2,0.7,0.3,1.4,0.4,2.1
			c-0.1,0-0.2,0-0.2,0.1c-0.7-1.9-1.4-3.7-2.1-5.6c0.2,2.1,0.7,4.2,1.1,6.3C143.8,257.6,144.1,259.7,144.4,262z M277.5,94.3
			c-0.1,0.2-0.2,0.4-0.3,0.6c-0.4,0-0.8-0.1-1.2-0.1c-1.7-0.1-3.5-0.4-5.2-0.3c-2.8,0.2-5.6,0.7-8.4,1.1c-4.6,0.7-8.8,2.4-12.4,5.3
			c-3.5,2.7-6.3,5.9-7.8,10.1c-0.2,0.7-0.4,1.6-0.2,2.2c0.9,2.1,1.9,4.1,3,6.2c0.2-0.4,0.3-0.5,0.5-0.7c0.3,0.5,0.6,1,0.8,1.5
			c0.7,1.9,2.1,3.2,3.8,4.1c1.5,0.9,3.2,1.4,4.8,0.6c1.5-0.7,2.8-1.9,4.4-2.6c2.9-1.4,5.9-2.6,9-3.7c0.5-0.2,1.3,0.1,1.9,0.4
			c1.1,0.5,2.1,1.3,3.2,1.8c1.7,0.7,2.2,0.5,3.2-1.1c1.8-2.8,2.3-5.9,2.9-9.1c0.5-2.4,0.6-5,1.3-7.4c0.4-1.5,1-3.2,0.2-4.4
			c-0.8-1.2-1.4-2.2-1.3-3.6c0-0.1-0.3-0.2-0.4-0.3c-0.1-0.2-0.3-0.4-0.3-0.6c-0.1-1.4-0.4-2.8,0.5-4.1c0.5-0.7,0.6-1.7,0.8-2.5
			c-0.2-0.1-0.3-0.2-0.4-0.3c-5.1-1.4-7.5-5.2-8.7-9.9c-0.5-2.2-0.7-4.5-0.8-6.7c-0.1-2.7-0.6-3.4-3.2-4c-0.7-0.2-1.4-0.3-2.1-0.5
			c-0.3-0.1-0.6-0.5-0.9-0.8c0.4-0.1,0.8-0.3,1.1-0.4c0.3,0,0.6,0.1,1.1,0.1c-1.4-2-4.1-1.5-5.8,0.9c1.5,0.3,3,0.5,4.5,0.8
			c-6.1-0.5-6.2-0.3-8.9,4.5c-0.4-0.3-0.7-0.8-1.1-0.9c-0.9-0.3-2-0.7-2.7-0.4c-1.6,0.7-3.1,1.8-4.6,2.9c-2.4,1.8-4.8,3.6-6.2,6.3
			c-0.5,0.9-1.3,1.8-1.9,2.6c-0.2-0.5-0.1-0.9,0.1-1.2c2.1-3.6,4.9-6.7,8.5-8.8c0.3-0.2,0.5-0.6,0.8-0.9c-0.1-0.1-0.2-0.3-0.3-0.4
			c-0.9,0.4-2,0.7-2.7,1.4c-1.8,1.6-3.3,3.5-5,5.1c-1,0.9-1.8,2.1-3.3,2.6c-1,0.3-2.3,1.2-2.5,2c-0.3,1.7,0,3.5,0,5.2
			c0.2,0,0.3,0,0.5,0c0.4-1.1,0.7-2.3,1.1-3.4c0.2,0,0.4,0,0.5,0.1c-0.3,3.5-0.6,7.1-0.9,10.6c0.1,0,0.2,0,0.3,0
			c0.5-3.3,1.1-6.5,1.6-9.8c0.1,0,0.2,0,0.3,0c0.1,0.2,0.2,0.4,0.3,0.8c1.4-2.2,2.6-4.3,4-6.4c1.1-1.6,2.6-2.4,4.6-2.2
			c-0.3,0.3-0.7,0.5-1,0.7c-1,0.8-2.1,1.6-2.8,2.6c-2.9,4.4-5,9.2-5.6,14.6c0,0.3,0,0.7,0,1.1c0.1,0,0.2,0.1,0.4,0.1
			c0.3-0.6,0.6-1.2,0.7-1.8c0.2-0.6,0-1.4,0.3-2c1.3-3.3,2.7-6.6,4.1-9.8c0.3-0.6,0.9-1,1.3-1.5c0.1,0.1,0.2,0.2,0.3,0.3
			c-3.3,5.2-5.2,10.8-4.9,17.1c-0.1,0-0.2,0-0.4,0c-0.2-0.3-0.4-0.6-0.6-0.9c-0.2,0.4-0.4,0.8-0.6,1.2c-0.1,0-0.1,0-0.2,0
			c0-0.4,0-0.8,0-1.5c-1.4,1.3-1.3,2.8-1,4.2c0.3,1.7,0.8,3.4,0.7,5.2c-0.1,1.5,0.8,2.7,1.9,4.1c0.1-2,0.3-3.7,0.2-5.3
			c-0.2-1.7,0-3.2,0.3-4.8c0.3-1.5,0.5-3.1,0.8-4.6c0.2,0,0.4,0,0.6,0.1c-0.9,2.6-1.3,5.1-0.2,7.8c2-0.7,3.5-2.1,4.7-3.7
			c1.5-2,3.5-3.2,5.6-4.4c1.3-0.7,2.6-1.5,3.8-2.3c-5.1,0.8-9.8,2.6-14.1,5.4c0.1-0.5,0.3-0.8,0.6-1c0.5-0.3,1.1-0.4,1.5-0.7
			c1-0.6,1.9-1.5,3-2c4.3-2,8.7-3.9,13.4-4.8c1-0.2,2-0.8,2.9-1.2c0.7,0.1,1.6,0.4,2.4,0.4c2.9,0,5.9-0.2,8.8-0.2
			c0.5,0,1,0.4,1.5,0.6c-0.1,0.2-0.1,0.4-0.2,0.6c-2.1,0-4.2,0-6.4,0c0,0.1,0,0.3-0.1,0.4C272.7,90.8,275.1,92.5,277.5,94.3z
			 M201.6,261.5c-0.2-0.7-0.5-1.4-0.6-2.1c-0.8-3.3-1.8-6.7-1.8-10.2c0-3.9,0-7.8,0.1-11.6c0.1-6.7,0.2-13.5,1.5-20.1
			c0.9-4.7,2-9.3,2.9-14c0.1-0.6,0.2-1.2,0.2-1.6c-1.5-0.3-2.7-0.4-3.8-0.9c-5.9-2.4-11.8-4.8-17.7-7.2c-1.5-0.6-3-1.3-4.5-1.9
			c2.5,23.3,5.1,46.7,7.6,69.9C188.1,262.3,200.5,262,201.6,261.5z M108.1,119.9c0-0.2,0-0.4-0.1-0.6c-6-1.3-11.9,0.7-17.8,1.5
			c1.9-0.7,3.9-1.2,5.8-1.7c2-0.5,4.1-0.8,6.1-1.2c0-0.1,0-0.3,0-0.4c-3.3,0.3-6.7,0.6-10,0.9c0-0.1,0-0.2,0-0.2
			c4.1-0.5,8.2-0.9,12.3-1.4c0,0.1,0,0.2,0.1,0.3c-0.3,0.2-0.5,0.4-0.8,0.5c2.1,1.2,3.1-1.2,4.7-1.4c0.1,0,0.2-0.5,0.2-0.7
			c0-2.1,0-4.2,0-6.3c0-0.8,0-1.9-0.4-2.4c-1-1.3-2.3-2.4-3.6-3.6c-0.7-0.7-1.8-1.2-2.2-2c-0.7-1.2-1.4-2.1-2.9-2.1
			c-0.4,0-0.7-0.4-1.1-0.6c0.2-0.3,0.4-0.7,0.7-1c0.5-0.5,1.2-1,0.5-1.8c-0.7-0.7-0.7-1.4-0.3-2.3c0.2-0.6,0.2-1.3,0.2-2
			c0-1.8-0.4-2.2-2.2-2.2c-3,0.1-5.5,1.1-7.3,3.5c-2.5,3.3-4.2,7-4.8,11.1c0,0.2-0.2,0.4-0.3,0.6c-0.5-1.8-0.7-3.4,0.2-5.1
			c0.8-1.5,1.2-3.3,1.8-5c-2.7,2.3-4.4,5.1-4.1,8.9c-0.1-0.1-0.3-0.1-0.4-0.2c-0.1-0.3-0.2-0.6-0.3-0.9c-0.4,1.6-1.3,3.3,0.5,4.6
			c0.3,0.2,0.5,0.6,0.6,0.9c0.8,2.7,1.7,5.4,2.2,8.2c0.3,1.8,0.2,3.7,0.2,5.5c0,0.8-0.3,1.5-0.2,2.3c0.2,2.8,0.5,5.5,0.6,8.3
			c0,1.5-0.1,3-0.5,4.4c-0.4,1.4,0.6,2.3,0.7,3.5c0.1,0,0.3-0.1,0.4-0.1c-0.3-1-0.6-2.1-0.8-3c0.9-0.8,1.7-0.4,2.5,0
			c1.1,0.7,2.3,1.2,3.5,1.8c0.9,0.4,1.9,0.8,2.8,1.2c0.9,0.5,1.7,1.3,2.6,1.5c2.3,0.4,4.7,0.7,7.1,0.9c1,0.1,2.1,0,3.2-0.3
			c0.4-0.1,1-0.8,1.1-1.2c0.2-3.1,0.3-6.1,0.5-9.2c0-0.9-0.3-1.5-1.4-1.4c-0.9,0.1-1.8-0.2-2.7-0.3c-0.3,0-0.6-0.3-0.7-0.5
			c-0.5-1.3,0-2.5,1.3-3.1c1.1-0.5,2.3-0.8,3.6-1.3c0-0.5,0-1.2,0-2c0-1.9,0-1.9-1.8-2.3c0,0-0.1-0.1-0.1-0.2
			C107.3,120.3,107.7,120.1,108.1,119.9z M185,176.8c-1.2,0.6-2.3,1.1-3.4,1.6c-0.7,0.3-1.2,0.9-1.9,1.1c-3.8,0.7-7.3,2.2-10.9,3.5
			c-0.8,0.3-1.6,0.6-2.4,0.9c-0.3,0.1-0.5,0.4-0.7,0.5c0.1,0.1,0.1,0.2,0.2,0.2c1.4-0.5,2.8-0.9,4.3-1.4c0,0.1,0.1,0.2,0.1,0.3
			c-0.7,0.6-1.3,1.2-2.2,2c1.5-0.2,2.7-0.4,3.9-0.5c0,0.2,0.1,0.3,0.1,0.5c-1,0.6-2.1,1.1-3.1,1.7c0,0.1,0.1,0.2,0.1,0.3
			c2.3-0.7,4.6-1.5,6.7-2.2c1.3,0.6,2.6,1.1,3.9,1.8c2.8,1.6,5.4,1.2,7.8-0.6c0.3-0.3,0.9-0.2,1.3-0.3c0,0.1,0.1,0.3,0.1,0.4
			c-1.4,0.7-2.7,1.5-4.1,2.2c0.2,0.2,0.2,0.3,0.3,0.3c4.8,1.8,9.6,3.6,14.4,5.4c0.2,0.1,0.6,0,0.9-0.1c0.5-0.1,1-0.1,1.7-0.2
			c-0.7,1.3-0.3,1.5,2.6,1.9c0.4-1.5,0.1-1.9-1-2.3c-0.6-0.6-1.2-1.1-2.1-1.9c1.9,0.2,1.7-1.1,2-2.1c0.1-0.3,0.1-0.6,0.1-0.9
			c0.9-3.6,2-7,6-8.4c0.4-0.1,0.9-0.2,1.4-0.3c0.1,0.5,0.2,1.1,0.1,1.6c0,0.3-0.4,0.6-0.5,0.9c-0.8,1.7-1.7,3.3-2.2,5.1
			c-0.3,1.1-0.1,2.4-0.1,3.7c0.1,0,0.2,0,0.4,0c0.3-0.5,0.6-1,0.8-1.5c1.7-4,4.5-7.3,7.5-10.3c0.6-0.6,1.3-1.2,1.9-1.9
			c1-1.2,2-2.5,3.1-3.7c1.4-1.5,1.5-1.8,0.1-3.3c-0.2-0.3-0.4-0.5-0.4-0.5c1.1-1.1,2-2.1,2.9-3c0.5-0.5,1.2-0.9,1.7-1.4
			c0.1,0.1,0.2,0.2,0.3,0.3c-0.4,0.5-0.8,1-1.3,1.5c0.1,0.1,0.1,0.1,0.2,0.2c0.4-0.1,0.7-0.2,1.4-0.5c-0.4,0.5-0.6,0.7-0.9,1
			c1-0.1,1.9-0.1,2.7-0.4c0.8-0.3,1.5-0.9,2.5-1.5c-0.4,0.7-0.7,1-0.9,1.4c2.5,0.7,5,0,6.1-1.8c1.2-2,2.4-4,3.6-6.1
			c0.1-0.1,0.1-0.2,0.1-0.4c-0.3,0-0.6,0-0.9-0.1c0-0.1-0.1-0.2-0.1-0.3c1-0.7,2.2-1.3,3.1-2.2c0.9-0.8,1.5-2,2.2-3
			c-0.2-0.2-0.4-0.3-0.6-0.5c-0.5,0.8-1,1.6-1.5,2.4c-0.1-0.1-0.3-0.2-0.4-0.4c0.7-1,1.3-2,2-3c-0.1-0.1-0.2-0.2-0.3-0.3
			c-1.5,1.3-3.2,2.4-4.3,3.9c-1.1,1.5-1.4,3.5-2.2,5.4c-0.8-0.4-1.7-0.8-2.7-1.2c-0.6-0.2-1.4-0.3-2-0.2c-1.8,0.3-3.5,1.2-4.6,2.6
			c0-0.5,0.2-1.2,0-1.3c-0.3-0.2-0.9-0.1-1.4-0.1c-0.3,0-0.6,0.3-0.8,0.4c-2,0.9-4,1.8-6,2.7c-0.4,0.2-0.9,0.3-1.4,0.3
			c-0.9,0.1-1.8-0.1-2.7,0.2c-3.3,1.1-6.5,2.5-9.8,3.6c-5.6,1.9-11.3,3.8-17,5.6c-1.4,0.5-2.9,0.8-4.5,1.1
			C184.6,176.3,184.8,176.5,185,176.8z M64.9,208.3c0.8,0.1,1.3,0.2,1.9,0.2c0.9,0.2,1.8,0.4,2.7,0.5c0.8,0,1.2-0.4,0.9-1.3
			c-1.1-2.6-2.1-5.2-3.2-7.7c-2.8-6.9-5.6-13.9-8.4-20.8c-0.3-0.8-0.7-1.3-1.8-1.1c-2,0.4-4,0.5-6,1.2c-2.2,0.8-4.7,0.9-7,1.3
			c-1.7,0.3-3.4,0.7-4.9,1c1.4,7.2,5.8,12.9,8.5,19.4c-0.1,0.1-0.2,0.2-0.4,0.3c-0.4-0.3-0.8-0.6-1.2-0.9c-0.1,0.3-0.1,0.5-0.1,0.6
			c-1.8,0.7-2.5-0.3-3.2-1.7c-2.3-4.9-4.6-9.9-6.9-14.8c-0.3-0.6-0.7-1.4-1.3-1.6c-3.3-1.2-6.7-2.3-10.1-3.4
			c-0.2-0.1-0.3-0.2-0.5-0.3c-0.6-0.4-1.1-0.8-1.7-1.3c4.5,10.7,11.8,19.5,17.8,29.2c-0.1,0-0.2,0-0.4,0.1c-0.1,0.7-0.1,1.3-0.2,2
			c0.1,0,0.3,0,0.4,0.1c0.3-0.3,0.5-0.6,0.8-0.9c2-2.2,4.1-4.1,7.3-4.4c0.9-0.1,1.2-0.5,0.6-1.4c-0.2-0.2-0.1-0.6-0.1-1
			c0.4,0.1,0.8,0,1.1,0.2c0.4,0.2,0.7,0.5,1.1,0.7c0.8,0.4,1.6,1,2.5,1.2c3.6,1,7.2,1.8,10.8,2.7C65.1,206.8,65.5,207.3,64.9,208.3z
			 M240,164.1c1,0.6,1.7,0.3,2.5-0.2c1.9-1.2,3.8-2.4,5.6-3.6c5.2-3.4,10.3-6.8,15.5-10.3c0.5-0.4,0.9-1.2,1-1.8
			c0.3-1.8,0.5-3.7,0.6-5.5c0-1.1,0.5-2.3-0.8-3.2c-0.1-0.1,0.1-1.3,0.4-1.4c1.3-0.4,2.7-0.8,4.1-1c2.2-0.2,4.4-0.2,6.5-0.2
			c0.9,0,1.1-0.4,1-1.2c-0.2-0.8-0.5-1.7-0.5-2.5c0-1.2,0.1-2.4,0.3-3.6c0.1-0.7,0.6-1.4,0.9-2.1c0.2-0.4,0.2-1,0.4-1.4
			c1-1.4,0.6-3,0.9-5c-1,0.7-1.6,1.1-2.2,1.5c0.2,0.6,0.4,1.1,0.6,1.7c-1.1-0.5-2.1-0.9-3-1.4c-1.4-0.9-2.8-2-4.2-3
			c-0.3-0.2-0.8-0.2-1.1-0.1c-3.5,1.5-7,3-10.5,4.6c-1.1,0.5-2,1.6-3.1,2.5c0.7,0.2,1.2,0.4,1.9,0.6c-1.7,0.4-3.2,0.5-4.4,1.1
			c-1.2,0.6-2,1.7-3,2.5c1.1,1.8,2.2,3.6,3.3,5.4c0.6,0.9,1.2,1.8,1.8,2.8c0.1,0.2,0.1,0.5,0.2,0.8c0.1,0.4,0,0.9,0.2,1.2
			c1.8,3.3,1.5,6.7,0.4,10.1c-0.1,0.2-0.3,0.3-0.7,0.7c-0.3-1.2-0.6-2.1-1-3.3c-0.4,0.3-0.7,0.4-0.9,0.6c-1.6,1.8-3.1,3.5-4.7,5.3
			C245.4,157.9,244,161.9,240,164.1z M112.8,127.4c-1,1.2-1.6,2.1-2.3,3c-0.1,0-0.2-0.1-0.3-0.1c-0.4,4.1-0.7,8.3-1.1,12.4
			c2.1,0.2,4.1,0.5,6.1,0.6c0.3,0,0.6-0.2,0.8-0.3c1-0.8,2-1.6,2.9-2.6c1.2-1.4,2.3-3,3.4-4.5c0.1-0.1,0.1-0.3,0.1-0.5
			c0-2.8,1.1-5.4,2.1-8c0.7-1.9,1.4-3.8,2-5.6c0.5-1.4,1.1-2.8,1.4-4.3c0.3-1.3,0.3-2.6,0.4-3.9c0-0.4-0.2-0.9-0.1-1.3
			c0.2-0.8-0.2-1.1-0.8-1.2c-2.2-0.3-4.5-0.8-6.7-0.9c-3.6-0.1-7.2-0.6-10.4-2.3c-0.3-0.2-0.6-0.2-1-0.3c0,1.3-0.1,2.6,0,3.8
			c0.4,4.2,1.2,8.4,0.8,12.6c-0.1,0.9-0.1,1.7,1.1,2.1C111.8,126.3,112.3,127,112.8,127.4z M297.3,198.6c0.1,0.1,0.3,0.1,0.4,0.2
			c0.9-1.2,1.9-2.4,2.8-3.7c1.5-2.1,2.9-4.3,4.3-6.4c3.7-5.5,7.3-11.1,11.1-16.6c1.6-2.4,3.5-4.6,5.3-6.8c2.9-3.6,4.4-8.1,7.3-11.7
			c0.2-0.2,0.3-0.5,0.4-0.8c0.5-0.9,0.1-1.2-0.7-1.4c-1.2-0.2-2.3-0.6-3.5-0.8c-0.3-0.1-0.9,0.1-1,0.3c-0.6,1.1-1.9,2.1-0.8,3.8
			c-1-0.9-1.4-0.2-1.8,0.4c-3.6,5.8-7.5,11.5-10.9,17.5c-3.6,6.5-6.8,13.2-10.2,19.9C299.1,194.4,298.2,196.5,297.3,198.6z
			 M273.8,92.9c-0.5-0.3-0.6-0.4-0.8-0.5c-5.2-1.6-10.4-1.5-15.4,0.7c-2.7,1.2-5.2,2.8-7.8,4.3c-0.8,0.4-1.4,1.1-2.1,1.7
			c-1.9,1.7-3.7,3.5-5.6,5.2c-1.1,1-1.3,2.3-0.2,3.6C249.1,96,260.7,93.2,273.8,92.9z M122.3,101.6c0.1-0.2,0.1-0.4,0.2-0.5
			c-1-0.6-1.9-1.4-2.9-1.6c-2.1-0.4-4.2-0.3-6.3-0.5c-1.4-0.1-2.8-0.4-4.1-0.3c-0.7,0-1.4,0.7-1.9,1.3c-0.2,0.2,0.3,1.1,0.7,1.5
			c1.3,1.3,2.9,1.7,4.7,1.8C116,103.4,119.2,102.7,122.3,101.6z M283.2,81.1c-0.2-0.7-0.5-1.3-0.4-1.8c0.2-1.9-0.7-3.2-1.8-4.6
			c-1-1.3-2.1-2.6-3.1-3.9c-0.3-0.5-0.6-1.1-0.7-1.7c-0.1-1.3-0.7-2-2.5-2.3c0.3,0.6,0.5,1.2,0.9,1.5c1.4,1.2,2,2.8,2,4.5
			c0,1.8-0.4,3.5-0.7,5.3c-0.2,1.2,0.6,3.8,1.6,4.4c0.4,0.3,1.1,0.3,1.6,0.2C281.2,82.3,282.2,81.7,283.2,81.1z M82.3,166.2
			c-1.7,1.4-3.4,2.7-5.1,4c-2.2,1.7-4.5,3.4-6.7,5.1c-0.3,0.3-0.6,1-0.5,1.3c0.5,1,1.1,1.8,1.7,2.6c1.9-2.2,3.6-4.5,5.6-6.3
			c2.1-1.8,4.5-3.2,6.9-4.9C83.6,167.4,83,166.8,82.3,166.2z M74.6,117.4c-0.2-0.1-0.5-0.1-0.7-0.2c-0.8,1.7-2,3.3-2.2,5
			c-0.4,3.6,0.4,7.1,1.3,10.5c0.3,1,0.9,1.8,1.3,2.7c0.1-0.1,0.2-0.1,0.3-0.2C74.6,129.3,74.6,123.4,74.6,117.4z M341.3,135.9
			c-2.7,0.8-5.3,0.4-7.8-0.6c-0.3-0.1-0.8,0-0.9,0.2c-1.1,1.6-2.1,3.3-3.2,5.1C335,141.5,340.3,139.4,341.3,135.9z M75.4,165.9
			c0.4-0.1,0.8-0.1,1.1-0.2c1.2-0.7,2.5-1.4,3.6-2.2c1.6-1.1,3.2-2.3,4.7-3.6c0.7-0.6,1.4-1.6,1.5-2.5c0.1-2-0.2-4.1-0.3-6.1
			c-0.2,0-0.4-0.1-0.6-0.1C83.4,156.9,80.1,161.9,75.4,165.9z M267.3,150.6c0.2,0.1,0.3,0.2,0.5,0.3c0.7-0.6,1.4-1.1,2-1.7
			c0.4-0.4,0.6-1.1,0.9-1.5c0.7-0.8,1.4-1.7,2.2-2.3c0.8-0.7,1.8-1.2,2.7-1.8c0.4-0.3,1.3-0.5,1.3-0.8c0-0.5-0.3-1.4-0.7-1.6
			c-0.7-0.3-1.5-0.3-2.3-0.3c-0.2,0-0.5,0.3-0.7,0.3c-1.2-0.2-1.9,0.3-2.3,1.4c-0.1,0.3-0.4,0.6-0.6,0.9c-0.6,1.2-1.7,2.3-1.7,3.5
			C268.4,148.4,268.8,149.7,267.3,150.6z M339.9,116.4c-0.1-0.1-0.2-0.1-0.3-0.2c-0.3,0.5-0.7,1-1,1.5c-2.4,4-4.7,8.1-7,12.1
			c-0.9,1.6-0.7,2.3,1.4,3C335.3,127.4,337.6,121.9,339.9,116.4z M212.1,198.1c-0.1,0-0.2,0-0.3,0c0.2-1,0.4-1.9,0.5-2.9
			c-0.6,1-1,2.1-1.3,3.2c-0.1,0.2-0.1,0.7,0,0.8c1.1,0.6,0.3,1.4,0.1,2c-0.6,1.7-1.5,3.3-2,5c-0.7,2.4-1.3,4.9-1.7,7.5
			c-0.4,2.6-0.4,5.2-0.6,7.8c1.7-9.1,3.8-18,7.1-26.7c-0.5,0.4-0.8,1-1,1.5C212.6,196.9,212.3,197.5,212.1,198.1z M112.4,92.4
			c-1.4-0.4-2.5-0.9-3.7-1.1c-1-0.2-2-0.2-3-0.1c-0.8,0.1-1.7,0.6-1.4,1.8c1.4-0.9,2.7-0.7,4.2,0.6c-0.2,0.1-0.4,0.2-0.6,0.3
			c-0.3,0.2-0.6,0.5-1,0.7c0.3,0.4,0.5,0.9,0.9,1.1c0.3,0.2,0.9,0.1,1.3,0.1c1.4-0.1,2.7-0.2,4.1-0.4c0.4,0,0.7-0.1,1.1-0.2
			c0-0.1,0.1-0.3,0.1-0.4c-1-0.6-2-1.1-3-1.7C111.8,93.1,112,92.8,112.4,92.4z M109.7,90.1c0-0.1,0-0.2,0-0.2
			c-1.9-0.2-3.9-0.4-5.8-0.6c-0.8-0.1-1.5,0-2.3,0c-0.8,0-1.3,0.3-1.1,1.2c0.2,1.3,0.4,2.6,0.6,3.8c0.1,0.6,0.3,1.3,1.2,1.1
			c0.8-0.2,1.5-0.6,1.3-1.7c-0.3-2,0.1-2.5,2.1-3C107.1,90.3,108.4,90.3,109.7,90.1z M87.5,160c-1.6,2.1-3.1,3.9-4.7,6
			c0.3,0.2,0.6,0.5,1,0.8c0.5,0.3,1,0.9,1.4,0.9c1.1-0.2,2.1-0.7,3.1-1.1c0.1,0,0.2-0.4,0.2-0.6C88.2,164,87.9,162.1,87.5,160z
			 M126,106.7c-0.6-1.1-0.9-1.9-1.4-2.6c-0.2-0.3-0.8-0.6-1.1-0.5c-2.8,0.8-5.5,1.6-8.2,2.4c0,0.2,0,0.3,0.1,0.5
			C118.8,107.1,122.3,106.8,126,106.7z M270.7,57.5c0.9,1,1.5,2.2,2.6,2.9c2.5,1.6,5.1,2.9,7.6,4.2
			C280.3,61.7,274.5,57.2,270.7,57.5z M312.2,167.1c0.4-0.3,0.6-0.3,0.6-0.4c2.5-4,5-8,7.5-12c0.5-0.8,0.4-1.6-0.6-2.5
			C317,157,314.7,161.8,312.2,167.1z M239.8,150.8c2.9-1.4,5.8-2.8,9-4.4c-3.7-0.3-6.9,0.8-10.4,1.2c1.8-0.1,1.7,0.9,1.4,2
			C239.7,150,239.8,150.5,239.8,150.8z M300,191.5c-0.1-0.1-0.3-0.1-0.4-0.2c-3.1,5.5-6.2,10.9-9.3,16.4c0.1,0.1,0.3,0.1,0.4,0.2
			C294.6,202.8,297.3,197.1,300,191.5z M328.4,155.5c1.5,0.5,4.2-1.6,5.1-3.8c-1-0.1-2-1.2-2.9,0
			C329.8,152.8,329.2,154.1,328.4,155.5z M48.5,176.1c0.7,0.1,1.4,0.4,2,0.3c0.6-0.1,1.2-0.7,1.8-1c-0.5-0.3-0.9-0.6-1.4-0.9
			c-0.2-0.1-0.5-0.3-1-0.5c0.7-0.3,1.2-0.5,1.6-0.7c0-0.1,0-0.2,0.1-0.3c-0.9-0.2-1.8-0.5-2.8-0.8C48.6,173.5,48.6,174.7,48.5,176.1
			z M324.2,123.7c0.1,0,0.3,0.1,0.4,0.1c0.1-0.4,0.4-0.9,0.3-1.3c-0.2-1-0.6-2-0.8-3c-0.3-1.3-0.6-2.6-0.8-3.9
			c-1.2,0.3-1.5,1-1.2,1.9C322.7,119.6,323.5,121.6,324.2,123.7z M54.7,213c-1.6,0.4-3.3,0.9-5.1,1.4C52,216.9,53,216.6,54.7,213z
			 M133.6,131.2c1.5-2,0.7-4.3,0.8-6.4C133.1,126.7,132.2,128.8,133.6,131.2z M43.4,229.6c-0.1-2.4-2.2-3.2-3.6-4.7
			C39.5,227.5,41.1,229.5,43.4,229.6z M65.8,181.5c-0.9-2-1.8-3.9-2.6-5.7c-1.3,1.4-1.1,3,0.5,4C64.3,180.1,64.9,180.7,65.8,181.5z
			 M81.9,139.2c2.3-0.8,2.7-3.3,1.1-5.3C82.6,135.8,82.3,137.5,81.9,139.2z M44.6,176.3c0.2-0.1,0.3-0.1,0.5-0.2
			c0-0.8,0.2-1.6-0.1-2.3c-0.1-0.4-0.9-0.8-1.4-1c-0.3-0.1-1,0.2-1.1,0.5c-0.1,0.4,0.2,0.9,0.4,1.2
			C43.5,175.1,44.1,175.7,44.6,176.3z M271.1,59.5c-0.9-2.7-2.6-3.2-4.7-1.3C268,58.7,269.5,59.1,271.1,59.5z M135.5,243.5
			c-0.2,0-0.4-0.1-0.7-0.1c-0.2,0.7-0.7,1.6-0.5,2.2c0.4,1.1,1.3,2.1,2,3.2c0.1,0,0.2-0.1,0.3-0.1
			C136.3,246.9,135.9,245.2,135.5,243.5z M107.4,160.6c0.1,0.1,0.3,0.3,0.4,0.4c1-1,1.9-2,2.8-3.1c0.1-0.1-0.1-0.8-0.3-0.9
			c-0.2-0.1-0.8,0-0.9,0.2C108.7,158.3,108.1,159.5,107.4,160.6z M248.2,69.5c2.5,0.9,5-0.1,5.1-1.9
			C251.6,68.3,249.9,68.9,248.2,69.5z M77.2,111c-1.1-0.5-2.9-0.2-3.6,0.6c-0.2,0.2-0.2,0.6-0.2,0.8c0,0.1,0.4,0.3,0.6,0.3
			C75.4,112.7,76.4,112.2,77.2,111z M38.7,207.4c-1.4-0.5-2.6-1-4-1.6c0.7,1,0.7,2.4,2.3,2.5C37.8,208.4,38.5,208.5,38.7,207.4z
			 M143.3,197.5c-0.1-0.1-0.1-0.2-0.2-0.3c-1.6,0.3-3.3,0.6-4.9,1c-0.3,0.1-0.5,0.4-0.8,0.7c0.3,0.1,0.7,0.4,1,0.3
			C140.1,198.7,141.7,198.1,143.3,197.5z M116.1,96.1c0.7,1.8,1.3,2.1,3.3,1.7C119,95.8,117,97.1,116.1,96.1z M321.8,152
			c1.5-1.8,1.5-2.1-0.3-2.9C320.5,150.2,320.6,150.6,321.8,152z M47.7,176.2c0-1-0.1-1.8-0.2-2.7c0-0.2-0.4-0.4-0.6-0.6
			c-0.1,0.2-0.4,0.4-0.4,0.6c0,0.9,0,1.7,0,2.7C46.9,176.2,47.3,176.2,47.7,176.2z M115.4,97.7c-1.2-1.6-2.6-1.8-4.1-0.7
			C112.8,97.3,114.1,97.5,115.4,97.7z M66.1,219.5c-0.9,0-1.5,0-2.1,0c0.1,0.1,0.1,0.2,0.2,0.2c-0.5,0.4-1,0.8-1.5,1.2
			C63.4,221.5,65.1,220.8,66.1,219.5z M227.7,192.2c0.2,0.1,0.4,0.1,0.5,0.2c0.5-1.3,1-2.6,1.4-4c0-0.1-0.5-0.4-0.6-0.5
			C228.6,189.4,228.2,190.8,227.7,192.2z M317.7,145.3c0.8,1.4,1.7,2.8,2.6,4.3C320.9,148.6,320.9,148.6,317.7,145.3z M250,129.5
			c0.2,0,0.4,0.1,0.5,0.1c0.2-0.5,0.8-1.2,0.6-1.5c-0.3-0.5-1-0.7-1.6-1c-0.1,0.1-0.2,0.2-0.3,0.4
			C249.6,128.1,249.8,128.8,250,129.5z M282.6,110.6c-0.2,1.2-0.4,2.3-0.7,3.5C283.5,112.6,283.7,111.5,282.6,110.6z M104,99.8
			c0.4-2.5,0.1-2.8-2.2-2.8C102.5,97.9,103.1,98.7,104,99.8z M68.3,167.7c0.1,0.1,0.2,0.3,0.3,0.4c1.8-1.4,3.6-2.9,5.3-4.3
			c-0.1-0.1-0.2-0.2-0.2-0.3C72,164.9,70.2,166.3,68.3,167.7z M90,139.7c-1.1-0.8-1.9-1.5-3-2.4C87.7,139.4,88.3,139.9,90,139.7z
			 M34.3,201.4c0.2-0.1,0.3-0.2,0.5-0.3c-0.9-1.3-1.8-2.7-2.7-4c-0.1,0.1-0.2,0.1-0.2,0.2C32.6,198.7,33.5,200.1,34.3,201.4z
			 M47,169.5c0.2,0,0.4,0.1,0.6,0.1c0.1-1.1,0.2-2.1,0.3-3.2c-0.1,0-0.2,0-0.3,0C47.4,167.4,47.2,168.5,47,169.5z M87.5,169.9
			c0,0.2,0.1,0.4,0.1,0.6c0.7-0.2,1.4-0.4,2-0.6c0,0-0.1-0.5-0.1-0.5C88.8,169.5,88.2,169.7,87.5,169.9z M130.6,109.9
			c0,0.2-0.1,0.5-0.1,0.7c0.6,0,1.1,0.1,1.7,0.1c0-0.2,0-0.5,0.1-0.7C131.6,109.9,131.1,109.9,130.6,109.9z M120.3,95.7
			c0.1-0.1,0.2-0.3,0.3-0.4c-0.7-0.6-1.5-1.1-2.2-1.7c-0.1,0.1-0.2,0.3-0.3,0.4C118.9,94.5,119.6,95.1,120.3,95.7z"/>
		<path fill="#FFFFFF" d="M269.1,14.3c-0.8-0.5-1.5-1.1-2.3-1.6c0.1-0.2,0.3-0.3,0.4-0.5c2.1,1.6,4.3,3.3,6.4,4.9
			c0-0.1,0.1-0.2,0.1-0.4c0.5,0,1.2-0.2,1.5,0c2.2,1.5,4.3,3.2,6.4,4.8c0.6,0.5,0.9,1.4,1.9,1c0.1-0.1,0.5,0.1,0.6,0.3
			c1.6,2.4,3.7,4.1,6.3,5.4c-0.1,0.1-0.1,0.2-0.2,0.3c-0.5-0.1-1-0.3-1.8-0.5c1.6,1.5,2.9,2.6,4.1,3.8c-0.1,0.1-0.1,0.2-0.2,0.2
			c-1.6-1.2-3.1-2.5-4.7-3.7c0.4,3.7,6.6,12.8,10.9,15.7c-0.3-0.7-0.5-1.2-0.8-2c1.5,1.2,1.4,3.6,3.7,3.6c-0.1-0.5-0.1-1-0.2-1.5
			c0.1-0.1,0.3-0.1,0.4-0.2c0.7,1.2,1.4,2.5,2.2,3.8c0.9-0.5,1.3,0,1.6,0.9c0.3,0.9,0.5,2,1.1,2.7c1.9,2.1,2.2,4.9,3.2,7.4
			c1,2.5,1.6,5.3,2.4,7.9c0.3,0.9,0.5,1.8,0.8,2.7c1.1,4.6,2.1,9.2,3.2,13.7c0.2,0.8,0.6,1.4,0.9,2.2c1.3,4.4,2.7,8.7,5.2,12.6
			c1.2,2,2.7,3.9,4.1,5.8c0.7,1,1.5,2,2.1,3.1c-0.2-0.1-0.4-0.1-0.5-0.2c-2.5-2.3-4.8-4.7-6.6-7.7c-4.2-6.9-7.1-14.4-9.7-22
			c-1-3-1.5-6.1-2.3-9.2c-0.7-2.8-1.5-5.5-2.3-8.2c-1-3.1-2.1-6.2-3.1-9.2c-0.1-0.4-0.3-0.8-0.5-1.4c-0.7,1-1.3,0.7-2.1,0.3
			c-1-0.5-2.2-0.6-3.3-1c-4.4-1.7-8.7-3.4-13-5.2c-1.2-0.5-2.4-1-3.5-1.6c3.6,0.4,6.9,1.7,10.1,3.2c0-0.1,0.1-0.2,0.1-0.3
			c-0.6-0.3-1.2-0.6-1.8-0.9c0.1,0,0.2-0.1,0.3-0.1c-0.4-0.8-0.7-1.7-1.1-2.5c-0.9-1.7-2-3.4-2.7-5.2c-0.5-1.4-0.4-3-0.8-4.5
			c-0.3-1.4-1.2-2.5-2.3-3.5c-1.6-1.4-3.2-2-5.2-2.3c0.4-0.1,0.8-0.2,1.4-0.4c-0.7-0.8-1.2-1.5-1.9-2c-1.7-1.3-3.4-2.5-5.3-3.7
			c-0.8-0.5-1.8-0.8-2.7-1.1c-1.5-0.6-3.1-1.1-4.6-1.6c-0.2-0.1-0.5-0.2-1.1-0.4c3.6,4.2,6.9,8,10.2,11.9c-0.1,0.1-0.2,0.2-0.3,0.3
			c-1.2-1.2-2.3-2.4-3.5-3.6c-2.7-2.8-5.3-5.8-8.1-8.5c-1.1-1.1-2.6-1.8-3.8-2.5c-0.6-3.3-3.4-3.5-5.9-4.1c1.5-0.8,2.8-0.7,4.2,0
			c4,1.9,8.1,3.5,12.1,5.3C268.9,14.5,269,14.4,269.1,14.3z M262.1,12.5c0-0.1,0-0.2,0.1-0.3c-1.2-0.5-2.5-0.9-3.7-1.4
			c2.3,2.7,4.3,4,7.2,4.7c-1.6-0.9-3.1-1.9-4.7-2.8c0-0.1,0.1-0.2,0.1-0.2C261.5,12.5,261.8,12.5,262.1,12.5z M306.6,55.1
			c0.1,0,0.2-0.1,0.3-0.1c-0.6-1.8-1.3-3.7-1.9-5.5c-0.1,0-0.2,0.1-0.3,0.1C305.3,51.5,305.9,53.3,306.6,55.1z"/>
		<path fill="#FFFFFF" d="M266.3,35.9c0.6-0.1,1.1-0.2,1.8-0.4c-1-0.6-1.8-1-2.8-1.6c2-0.2,14.3,3.3,16.2,4.5
			c-0.5,0.1-0.8,0.2-1.3,0.3c0.3,0.3,0.6,0.5,0.9,0.7c-0.1,0.2-0.1,0.3-0.2,0.5c-4.7-1.9-9.5-3.4-14.6-3.6
			C266.3,36.2,266.3,36.1,266.3,35.9z"/>
		<path fill="#FFFFFF" d="M265.5,31.7c0.4-0.3,0.7-0.9,1.1-0.9c3.9-0.3,7.8,0.1,11.4,2c0.1,0,0.1,0.1,0.2,0.5c-0.7,0-1.2,0-1.7-0.1
			c-2.9-0.7-5.9-1.5-8.9-1.2c-0.6,0.1-1.2,0.1-1.8,0.1C265.7,31.9,265.6,31.8,265.5,31.7z"/>
		<path fill="#FFFFFF" d="M302.9,42.7c2.1,2.8,4.2,5.5,6.3,8.3C307.2,49.7,303.1,44.5,302.9,42.7z"/>
		<path fill="#FFFFFF" d="M315.8,106.5c-2.3,1.9-4.6,3.9-6.9,5.8c-0.1-0.1-0.2-0.2-0.3-0.3c2.3-1.9,4.6-3.9,6.9-5.8
			C315.6,106.2,315.7,106.3,315.8,106.5z"/>
		<path fill="#FFFFFF" d="M295.2,37.1c0.9,1.3,1.8,2.6,2.7,3.9c-0.1,0.1-0.2,0.1-0.3,0.2c-0.9-1.3-1.9-2.5-2.8-3.8
			C295,37.3,295.1,37.2,295.2,37.1z"/>
		<path fill="#FFFFFF" d="M245.8,129.7c0.5,1.2,1.1,2.4,1.6,3.6c-0.1,0.1-0.3,0.1-0.4,0.2c-0.6-1.2-1.1-2.3-1.7-3.5
			C245.5,129.9,245.7,129.8,245.8,129.7z"/>
		<path fill="#FFFFFF" d="M117,210.8c-0.5-0.6-1.1-1.2-1.6-1.7c-0.7-0.7-1.3-1.5-2.1-2c-0.5-0.3-1.6-0.4-1.9-0.1
			c-0.6,0.7-1.1,0.4-1.5,0c-0.3-0.3-0.4-1-0.5-1.5c-0.1-0.7,0-1.4,0-2.2c0-2.5-0.1-5-0.1-7.5c0-0.8,0.2-1.6,0.4-2.4
			c0.2-0.9,0.5-1.7,0.7-2.5c0.2,0,0.3,0,0.5,0c0.3,1.2,0.6,2.4,0.7,3.6c0.2,2.8,0.3,5.6,0.4,8.4c0,0.3-0.3,0.5-0.4,0.8
			c-0.1,0.4-0.4,0.8-0.3,1.1c0,0.2,0.4,0.5,0.7,0.6c2.8,0.5,4.3,2.4,5.3,4.9C117.2,210.7,117.1,210.7,117,210.8z"/>
		<path fill="#FFFFFF" d="M134,180.5c0,2.3,0,4.6,0,7c-0.2,0-0.3,0-0.5,0c0.1-2.3,0.2-4.6,0.3-6.9C133.9,180.5,134,180.5,134,180.5z
			"/>
		<path fill="#FFFFFF" d="M155.7,211.1c1.3,0.1,2.4,0.1,3.5,0.2c2.3,0.2,4.5,0.4,6.8,0.6c0.8,0.1,1.5,0.3,1.4,1.4
			c-1.8,0-3.5-0.1-5.2,0c-1.7,0.2-3.4,0.4-4.9,1c-2.7,1-5.2,2.3-7.9,3.3c-1.4,0.5-0.7,1.5-0.7,2.4c-1.8-0.6-2.2-2.3-1-4.1
			c-1.1-0.7-2.1-1.4-3.2-2.2c-0.3-0.2-0.7-0.6-0.6-0.8c0.5-1.4,0.7-2.9,2.5-3.6c2.8-1.1,5.7-1.6,8.7-1.8c2.8-0.3,5.5-0.8,8.3-1.3
			c2.4-0.4,4.3,0.5,6.3,1.5c0.3,0.1,0.5,0.9,0.4,1.1c-0.2,0.3-0.8,0.5-1.2,0.5c-4.1-0.5-8.1,0.5-12.1,1.4c-0.3,0.1-0.5,0.2-0.8,0.3
			C155.9,210.8,155.9,210.9,155.7,211.1z M148.3,215.6c2.1-0.9,4-1.8,5.9-2.6c-1.4-0.2-2.7-0.1-4,0.2
			C149.2,213.3,148.1,213.7,148.3,215.6z"/>
		<path fill="#FFFFFF" d="M150.8,238.7c-0.3-0.8-0.6-1.7-0.9-2.5c-0.3-1-0.6-2-0.9-3.1c-0.8,0.4-1.3,0.6-1.8,0.8
			c-1.1-0.8-2-3-1.6-4.3c0.2-0.5,0.7-1,1.1-1.2c1.3-0.5,2.2-1.2,1.9-2.7c0-0.1,0.1-0.3,0.2-0.6c0.2,0.3,0.4,0.4,0.4,0.6
			c0.4,1.4,1.6,1.9,2.5,0.8c1.2-1.4,2.8-1.5,4.3-1.9c4.1-1.2,8.3-1.8,12.7-1.4c1.7,0.1,2,0.4,1.7,2.1c-0.2,1.4-0.6,2.1-2.2,2.3
			c-2.6,0.3-5.2,1-7.8,1.6c-0.7,0.2-1.4,0.8-2.1,1c-1.4,0.3-2.9,0.5-4.3,0.8c-1.2,0.3-2.5,0.6-3.7,1.1c-0.3,0.1-0.5,0.8-0.5,1.2
			C150.1,235.1,150.5,236.9,150.8,238.7L150.8,238.7z"/>
		<path fill="#FFFFFF" d="M150.8,238.7c0.6,2.5,1.2,5.1,1.8,7.6C151.7,243.8,150.5,241.5,150.8,238.7
			C150.8,238.7,150.8,238.7,150.8,238.7z"/>
		<path fill="#FFFFFF" d="M260.5,106.4c0.4-1.9,0.4-1.9-2-2.3c0.1-0.3,0.1-0.6,0.2-0.8c1-2.3,3.1-3.2,5.3-3.7
			c1.8-0.4,3.2,1.7,2.6,3.4c-0.2,0.6-0.2,1.3,0,1.9c0.3,0.7,0.1,1-0.5,1.2c-0.3,0.1-0.6,0.3-0.9,0.3
			C263.7,106.4,262.1,106.4,260.5,106.4z"/>
		<path fill="#FFFFFF" d="M180.8,183.9c1.1-1.5,3.3-3,4.7-2.9c-0.2,0.5-0.3,1-0.5,1.5c-0.5,1.4-0.9,2.9-1.4,4.3
			c-0.1,0.4-0.5,0.6-0.7,1c-0.3-0.3-0.6-0.6-0.8-0.9c-0.1-0.2-0.1-0.5-0.1-0.8C182.3,184.9,182.1,184.1,180.8,183.9z"/>
		<path fill="#FFFFFF" d="M194.7,189.5c-1-0.5-1.6-2.8-1.1-3.4c0.1-0.1,0.5-0.2,0.7-0.2c0.2,0.1,0.4,0.4,0.4,0.6
			C194.7,187.5,194.7,188.4,194.7,189.5z"/>
		<path fill="#FFFFFF" d="M198.5,183.2c-0.3,0.6-0.6,1.2-1,1.7c0,0.1-0.5-0.2-0.8-0.3c0.4-0.6,0.8-1.2,1.2-1.7
			C198.1,183,198.3,183.1,198.5,183.2z"/>
		<path fill="#FFFFFF" d="M334.4,141.5c-0.5,1.5-1,3-1.6,4.4c-1,2.2-2.1,4.3-3.2,6.4c-1.5,2.7-3,5.4-4.5,8c-0.8,1.4-1.6,2.8-2.4,4.2
			"/>
		<path fill="#FFFFFF" d="M57.9,223.4c-0.1,0.3-0.1,0.6-0.2,0.9"/>
		<path fill="#FFFFFF" d="M68.2,262.8c0.4,0,0.8,0,1.2-0.1"/>
		<path fill="#FFFFFF" d="M334.9,78.5c1.9,4.6,3.9,9.1,5.6,13.8c1,2.8,1.5,5.7,2.2,8.6c0.4,1.8,0.5,3.7,0.9,5.5
			c0.1,0.4,0.7,0.7,1,1.1"/>
		<path fill="#FFFFFF" d="M214.7,194.3c-0.9,2.8-2,5.5-2.8,8.3c-1.2,4.4-2.1,8.8-3.1,13.2c-0.4,2-0.7,4.1-1.1,6.1
			c-0.1,0.3-0.4,0.6-0.6,0.9"/>
		<path fill="#FFFFFF" d="M311.5,112.1c0,0.9,0,1.8,0,2.7"/>
		<path fill="#FFFFFF" d="M275.4,93.8c-3.5-0.3-6.9-0.3-10.3,0.5"/>
		<path fill="#FFFFFF" d="M263.2,94.7c-4.6,0.6-8.8,2.2-12.6,4.8c-1,0.7-1.9,1.4-2.8,2.1"/>
		<path fill="#FFFFFF" d="M245.8,103.8c-1,1.4-2,2.8-2.9,4.1"/>
		<path fill="#FFFFFF" d="M296.1,34c4.6,4.4,9.2,8.9,13.8,13.2c1.4,1.4,3,2.6,4.5,3.9"/>
		<path fill="#FFFFFF" d="M349.7,95.5c0.7,1.5,1.4,3,2.1,4.6"/>
		<path fill="#FFFFFF" d="M319.4,93.9c2.2,4.8,5.2,9,9,12.7"/>
		<path fill="#FFFFFF" d="M106.6,172.5c-2.5,1.7-4.9,3.5-7.4,5.2"/>
		<path fill="#FFFFFF" d="M102.3,207.4c-5.3-0.3-10.4,0.1-15.3,2.4c-1.9,0.9-3.9,1.5-5.9,2.1c-0.3,0.1-0.7-0.1-1.1-0.1"/>
		<path fill="#FFFFFF" d="M273.6,121.8c-1.3-0.8-2.6-1.8-4-2.5c-0.4-0.2-1.1,0-1.7,0.1"/>
		<path fill="#FFFFFF" d="M262.5,121.4c-2,1-4,2.1-6,3.1"/>
		<path fill="#FFFFFF" d="M84.1,209.1c-1.3-0.1-2.6-0.2-3.9-0.3"/>
		<path fill="#FFFFFF" d="M137.8,109.3c0.1-0.5,0.4-1,0.4-1.5c-0.3-2.5-0.8-5-1.2-7.5"/>
		<path fill="#FFFFFF" d="M321.2,152.6c0.9,0.7,0.2,1.5-0.2,2c-2.5,4.1-5.1,8.2-7.7,12.3c-0.2,0.4-0.7,0.6-1.1,0.9"/>
		<path fill="#FFFFFF" d="M309.8,171.4c-1.8,3.4-3.6,6.9-5.4,10.3c-0.4,0.7-0.7,1.3-1.1,2"/>
		<path fill="#FFFFFF" d="M299.6,190.3c-3.3,5.9-6.6,11.9-9.9,17.8"/>
		<path fill="#FFFFFF" d="M247.7,76.4c-2.3,0.3-3.8,1.6-4.9,3.5c-1.1,1.8-2.1,3.7-3.1,5.6"/>
		<path fill="#FFFFFF" d="M238.4,89c-0.5,2.2-1,4.5-1.5,6.7"/>
		<path fill="#FFFFFF" d="M38.9,206.4c1,1.1-0.1,2.1-0.3,3.1"/>
		<path fill="#FFFFFF" d="M206.4,239.4c0.3,2.5,0.7,4.9,1,7.4"/>
		<path fill="#FFFFFF" d="M207.4,246.9c0.2,0.7,0.4,1.3,0.5,2"/>
		<path fill="#FFFFFF" d="M207.9,249.1c0.4,1.2,0.9,2.3,1.3,3.5c0.2,0.5,0.4,1,0.5,1.5"/>
		<path fill="#FFFFFF" d="M216,237.3c0.1,3,0.1,6,0.2,9c0,0.3,0.1,0.5,0.1,0.8"/>
		<path fill="#FFFFFF" d="M270.2,152.7c0.5,0.8,0.2,1.5-0.2,2.3c-1,1.7-1.8,3.5-2.7,5.2"/>
		<path fill="#FFFFFF" d="M266.4,162.1c-1.4,2.3-1.9,4.9-2.3,7.5c0,0.2-0.1,0.4-0.1,0.7"/>
		<path fill="#FFFFFF" d="M340,115.4c-1,1.4-2.1,2.7-2.9,4.2c-2.1,3.5-4,7-6,10.6c-0.2,0.3-0.3,0.6-0.4,0.9"/>
		<path fill="#FFFFFF" d="M257.3,91.9c-0.3,1.3-1.5,1.4-2.4,2c-2,1.3-4,2.5-6,3.8c-0.8,0.5-1.3,1.2-2,1.9c-1.6,1.4-3.2,2.8-4.8,4.1
			c-0.2,0.1-0.5,0-0.8,0"/>
		<path fill="#FFFFFF" d="M319.8,151.2c-2.2,4.3-4.5,8.6-6.7,13c-0.6,1.2-1.6,2.2-1.2,3.7"/>
		<path fill="#FFFFFF" d="M245.3,80.7c-0.4,0.4-1.1,0.7-1.3,1.2c-1.4,3.3-2.7,6.7-4,10c-0.1,0.3,0,0.7,0,1.1c-0.1,1.6-0.4,3-2.3,3.3
			"/>
		<path fill="#FFFFFF" d="M106.6,85.6c-1.7-0.5-3.3-1.4-5.1-0.9"/>
		<path fill="#FFFFFF" d="M219.4,230.2c0.1,0.4,0.4,0.7,0.4,1.1c0.1,1.6,0.2,3.1,0.1,4.7c-0.2,3.4,0.5,6.6,1.5,9.8"/>
		<path fill="#FFFFFF" d="M233.1,115.5c0.7,1.6,0.6,3.6,2.5,4.4"/>
		<path fill="#FFFFFF" d="M46.4,167.7c0,1.1,0,2.2-0.1,3.3"/>
		<path fill="#FFFFFF" d="M110.7,191.1c0,0.8-0.1,1.5-0.1,2.3"/>
		<path fill="#FFFFFF" d="M111,206.2c2.3-0.3,3.6,1,4.8,2.7c0.5,0.7,1,1.3,1.5,2"/>
		<path fill="#FFFFFF" d="M255.6,91.7c-4.1,1.5-8.4,2.4-11.8,5.3c-0.6,0.5-1.2,0.8-1.9,1.2"/>
		<path fill="#FFFFFF" d="M314.9,185.8c-2.7,2.9-5.4,5.9-8.2,8.8c-0.9,0.9-1.8,1.8-2.7,2.7"/>
		<path fill="#FFFFFF" d="M148.8,231.9c0.4,1.5,1,2.9,1.3,4.4c0.8,3.3,1.6,6.7,2.4,10"/>
		<path fill="#FFFFFF" d="M265.3,33.7c1.2,0.5,2.5,1.1,3.7,1.6"/>
		<path fill="#FFFFFF" d="M273.5,36.6c0.7,0.2,1.5,0.3,2.1,0.6c1.9,0.9,4,1.1,6,1.3"/>
		<path fill="#FFFFFF" d="M144.3,197.5c-2.3,1-4.6,2.2-7.2,2.3"/>
		<path fill="#FFFFFF" d="M85.6,149.9c-0.8,1.5-1.5,2.9-2.3,4.4"/>
		<path fill="#FFFFFF" d="M131.5,170.8c1.8,0.7,2.8,2.7,4.9,3c0.3,0,0.5,0.6,0.8,0.9"/>
		<path fill="#FFFFFF" d="M110.3,118c-0.4,0-0.7-0.1-1.1-0.1"/>
		<path fill="#FFFFFF" d="M106.9,118.3c-5.8,0-11.3,1.2-16.9,2.7"/>
		<path fill="#FFFFFF" d="M257.7,10.5c0.9,1,1.7,2.1,2.7,3.1c0.8,0.7,1.8,1.2,2.6,1.9c0.8,0.7,1.4,1.7,2.2,2.5c3,3.4,6,6.7,9,10"/>
		<path fill="#FFFFFF" d="M281.1,41.2c3.3,1.3,6.7,2.6,10,3.9c0.4,0.1,0.8,0,1.2,0"/>
		<path fill="#FFFFFF" d="M87.6,94.3c-1,2.2-2.1,4.3-2.8,6.6c-0.4,1.1-0.1,2.5-0.2,3.7"/>
		<path fill="#FFFFFF" d="M39.5,211.7c-0.1,0.5-0.4,1-0.4,1.5c0,3-0.1,6.1,0,9.1c0.1,2.5,0.4,5.1,0.6,7.6"/>
		<path fill="#FFFFFF" d="M109.1,106.7c-0.1,0.5-0.2,1-0.3,1.5c0,1.2,0,2.5,0,3.7c0.1,1.6,0.2,3.2,0.3,4.8"/>
		<path fill="#FFFFFF" d="M109.4,120.8c0,1.7,0,3.3,0,5"/>
		<path fill="#FFFFFF" d="M109.5,130.5c-0.2,3.7-0.5,7.4-0.8,11.1c-0.1,0.6-0.6,1.3-0.9,1.9"/>
		<path fill="#FFFFFF" d="M253.8,69c-1.2,0.5-2.5,0.9-3.6,1.5c-1,0.6-1.8,1.5-2.7,2.1c-3.5,2.3-5.9,5.6-8,9.1"/>
		<path fill="#FFFFFF" d="M340.6,139.2c0.6,1.8-0.7,3.1-1.4,4.4c-1.5,2.9-3.1,5.8-5,8.6c-1,1.5-2.4,2.7-3.9,3.9
			c-0.6,0.5-1.7,0.7-2.6,0.1"/>
		<path fill="#FFFFFF" d="M278.2,33c-2.5-0.6-4.9-1.3-7.4-1.7c-1.6-0.2-3.2,0.2-4.8,0.3"/>
		<path fill="#FFFFFF" d="M77.3,222.8c0.8,0,1.6-0.1,2.4,0c3.3,0.7,6.5,1.5,9.8,2.3"/>
		<path fill="#FFFFFF" d="M180.3,245.2c-0.1,0.7-0.4,1.3-0.4,2c0.2,3.1,0.5,6.2,0.8,9.2c0,0.3,0.2,0.5,0.3,0.8"/>
		<path fill="#FFFFFF" d="M126.7,106.4c-0.1-0.2-0.1-0.4-0.2-0.7"/>
		<path fill="#FFFFFF" d="M236.7,99.4c0.4,1.4,0.7,2.9,1.1,4.3"/>
		<path fill="#FFFFFF" d="M104.7,117c-4.4,0.4-8.7,0.9-13.1,1.3"/>
		<path fill="#FFFFFF" d="M104.3,93.7c-0.8-1.6-0.4-2.4,1.6-2.8c1.1-0.2,2.3,0,3.5,0c0.3,0,0.6,0,0.9,0"/>
		<path fill="#FFFFFF" d="M80.7,104c-0.1,0.6-0.1,1.2-0.2,1.7"/>
		<path fill="#FFFFFF" d="M167.1,213.1c-0.8-0.2-1.6-0.4-2.4-0.7"/>
		<path fill="#FFFFFF" d="M138.2,182.4c-0.1,0.4-0.1,0.8-0.2,1.2"/>
		<path fill="#FFFFFF" d="M300.1,190.2c0,0.6,0.1,1.3-0.2,1.9c-0.8,2-1.6,4-2.7,5.9c-0.6,1-0.4,1.7,0,2.6"/>
		<path fill="#FFFFFF" d="M342.2,135.4c-0.9,0.1-1.9,0.3-2.8,0.4c-2,0.2-3.8-0.6-5.6-1.2c-0.5-0.2-1.1-0.4-1.6-0.5"/>
		<path fill="#FFFFFF" d="M115.2,157.5c-0.8,2.5-1.6,4.9-2.3,7.4c-0.2,0.6,0.1,1.4,0.2,2.1"/>
		<path fill="#FFFFFF" d="M87,180.3c-0.8,0.9-1.7,1.7-2.4,2.7c-0.3,0.4-0.2,1.1-0.3,1.7"/>
		<path fill="#FFFFFF" d="M36.2,209.1c-1.2-0.9-1.6-2.3-2.1-3.6"/>
		<path fill="#FFFFFF" d="M128.6,225c-0.7,1.8-1.5,3.7-2.2,5.5c-0.1,0.2,0,0.5,0,0.8"/>
		<path fill="#FFFFFF" d="M35.4,201.2c-1.1-1.7-2.3-3.3-3.4-5"/>
		<path fill="#FFFFFF" d="M106.3,226.7c-1.5,0.1-3,0.2-4.6,0.3"/>
		<path fill="#FFFFFF" d="M324.2,106.4c-0.3,0.4-0.8,0.7-0.8,1.1c-0.1,5.4,0.5,10.6,2.5,15.7"/>
		<path fill="#FFFFFF" d="M84.5,136.4c0,0.7,0,1.3,0,2"/>
		<path fill="#FFFFFF" d="M241.5,95c-0.2,1.4-0.4,2.8-0.5,4.2c-0.1,1.4,0.1,2.9,0,4.3c0,1.4-0.2,2.8-0.2,4.1c0,0.4,0.3,0.9,0.5,1.3"
			/>
		<path fill="#FFFFFF" d="M306.7,56.2c-0.7-1.8-1.3-3.6-2-5.4c-0.3-0.8-1.2-1.5,0.1-2.6c0.7,1.6,1.5,3.2,2.2,4.7"/>
		<path fill="#FFFFFF" d="M307.6,54.7c0.1,0.2,0.1,0.4,0.2,0.7"/>
		<path fill="#FFFFFF" d="M302.7,42.9c2.2,2.8,4.4,5.6,6.6,8.4"/>
		<path fill="#FFFFFF" d="M114.9,225.5c-1-0.2-2.1-0.5-3.1-0.5c-4.1-0.1-8.2,0-12.3,0c-0.4,0-0.8,0.1-1.2,0.1"/>
		<path fill="#FFFFFF" d="M229.9,186.7c0,0.7,0.3,1.5,0.1,2.1c-0.5,1.5-1.3,3-2,4.4"/>
		<path fill="#FFFFFF" d="M260.8,12.6c0.8,0.2,1.5,0.4,2.3,0.5"/>
		<path fill="#FFFFFF" d="M318.9,108.1c0.5,2.8,0.9,5.6,2.7,7.9"/>
		<path fill="#FFFFFF" d="M325.6,140.3c1.3-2.6,2.6-5.2,3.9-7.8"/>
		<path fill="#FFFFFF" d="M331.5,135.3c-0.7,1.5-1.3,3-2.1,4.4c-1.8,3.2-3.6,6.4-5.5,9.6"/>
		<path fill="#FFFFFF" d="M87,139.2c-0.5-0.8-1.2-1.5,0-2.3c1.1,0.8,2.2,1.6,3.3,2.3"/>
		<path fill="#FFFFFF" d="M119.6,151.9c-0.4,1.5-0.8,2.9-1.2,4.4"/>
		<path fill="#FFFFFF" d="M315.9,106.3c-2.4,2.1-4.8,4.1-7.2,6.2"/>
		<path fill="#FFFFFF" d="M275.8,89.5c-2.5-0.4-5.1-0.7-7.5,0.5"/>
		<path fill="#FFFFFF" d="M130.5,212.7c-1.1,0.7-0.7,1.9-0.9,2.8c-0.4,1.5-0.7,3-1.1,4.6"/>
		<path fill="#FFFFFF" d="M111.7,157.5c-1.2,1.3-2.4,2.7-3.7,4c-0.2,0.2-0.6,0.2-0.9,0.3"/>
		<path fill="#FFFFFF" d="M142.1,248c0.2,0.3,0.5,0.6,0.7,0.9c0.7,2,1.3,4.1,1.9,6.2"/>
		<path fill="#FFFFFF" d="M323.6,115c-0.8,0.4-1.6,0.9-2.3,1.3c0.7,2.4,1.4,4.7,2.2,7c0.2,0.5,0.7,1,1,1.5"/>
		<path fill="#FFFFFF" d="M268.3,90.3c1.1,1.1,2.7,0.7,4,1.3c0.9,0.4,2.2,0.4,2.1,1.9"/>
		<path fill="#FFFFFF" d="M266.8,162.2c0,0.7,0.1,1.4,0,2.1c-0.2,1.5-0.4,3-0.7,4.6"/>
		<path fill="#FFFFFF" d="M213,194.5c-0.4,1.3-0.8,2.6-1.2,3.9"/>
		<path fill="#FFFFFF" d="M45.8,173.2c0,1,0,2.1,0,3.1"/>
		<path fill="#FFFFFF" d="M294.7,209.6c1,1.4-0.1,2.5-0.7,3.6c-0.5,1-1.1,1.9-1.6,2.8"/>
		<path fill="#FFFFFF" d="M47.8,164.6c1.3,1.7,0.4,3.6,0.3,5.4c0,0.4-0.3,0.7-0.4,1.1"/>
		<path fill="#FFFFFF" d="M112.1,87.2c0.4,0.4,0.7,0.9,1.1,1.3c1.3,1.4,2.6,2.8,3.9,4.2"/>
		<path fill="#FFFFFF" d="M133.9,180.1c0,1.7,0,3.4,0,5.1c0,0.8-0.1,1.6-0.1,2.4"/>
		<path fill="#FFFFFF" d="M328.3,158.5c-1.2,2-2.3,4-3.5,6"/>
		<path fill="#FFFFFF" d="M47.6,171.7c0.2,1.2,0.5,2.5,0.6,3.8c0.1,0.7-0.1,1.5-0.1,2.3"/>
		<path fill="#FFFFFF" d="M110.2,155.9c-1.4,1.8-3.3,3.4-3.3,6c0,0.5-0.6,1.1-0.9,1.6"/>
		<path fill="#FFFFFF" d="M68.6,215.3c-1.6,0.5-3.2,0.9-4.9,1.4c0.1,0.5,0.2,0.9,0.3,1.3"/>
		<path fill="#FFFFFF" d="M339.5,139.4c-3.3,2.2-6.9,1.9-10.6,1.6"/>
		<path fill="#FFFFFF" d="M252.2,9.3c1.5-0.2,3-0.2,4.4,0.6c1.5,0.8,3.2,1.1,4.8,1.7c0.7,0.3,1.2,0.9,1.8,1.3"/>
		<path fill="#FFFFFF" d="M48.2,229.4c-0.6,0-1.2,0-1.7,0"/>
		<path fill="#FFFFFF" d="M43.9,227.8c-1.2-1-2.3-2.1-3.5-3.1c-0.3-0.2-0.6-0.4-0.9-0.5"/>
		<path fill="#FFFFFF" d="M324.2,149.5c1.4,0.4,2.8,0.9,4.1,1.3c0.5,0.2,1,0.4,1.5,0.5"/>
		<path fill="#FFFFFF" d="M172.2,185.2c-1.2,0.4-2.3,0.8-3.5,1.2"/>
		<path fill="#FFFFFF" d="M143,126.2c-1,0.5-2.1,1-3.1,1.5"/>
		<path fill="#FFFFFF" d="M270.3,56.2c0.2,0.7,0.4,1.4,0.7,2.1c0.2,0.6,0.5,1.2,0.8,1.7"/>
		<path fill="#FFFFFF" d="M52.5,173.3c-1-0.6-2-1.2-2.9-1.9"/>
		<path fill="#FFFFFF" d="M40.5,173.7c-0.3,1.1-0.6,2.1-0.9,3.2"/>
		<path fill="#FFFFFF" d="M117.2,93.1c1.7-0.1,2.8,0.8,3.4,2.2c0.2,0.5,0,1.1-0.1,1.7"/>
		<path fill="#FFFFFF" d="M276.2,236c0.6,1,0.4,2-0.2,3c-0.5,0.8-0.8,1.7-1.2,2.5"/>
		<path fill="#FFFFFF" d="M317,113.5c-1.3,1-2.7,2-4,2.9c-0.4,0.3-0.9,0.3-1.3,0.4"/>
		<path fill="#FFFFFF" d="M288.1,27.7c0.3,0.4,0.6,0.9,0.9,1.2c1.2,1.1,2.4,2.2,3.6,3.2"/>
		<path fill="#FFFFFF" d="M311.4,46c1.1,1.2,2.2,2.5,3.2,3.8c0.2,0.3,0.2,0.8,0.3,1.2"/>
		<path fill="#FFFFFF" d="M99.2,148.8c-0.9,0.2-1.9,0.3-2.8,0.6c-1.3,0.5-2.5,1.3-3.8,2"/>
		<path fill="#FFFFFF" d="M265.3,67.2c-1.3-0.2-2.6-0.4-3.9-0.7c-0.4-0.1-0.8-0.2-1.2-0.3"/>
		<path fill="#FFFFFF" d="M226.8,166.2c-0.5,0.9-2.2,0.9-2,2.4"/>
		<path fill="#FFFFFF" d="M170.3,183.5c-0.9,0.4-1.8,0.9-2.7,1.3"/>
		<path fill="#FFFFFF" d="M189,186.4c-1.7,0.9-3.3,1.8-5,2.7"/>
		<path fill="#FFFFFF" d="M44.7,229.8c-1.3,1.1-2.3,0.1-3.3-0.4c-0.6-0.3-1.1-0.8-1.6-1.2"/>
		<path fill="#FFFFFF" d="M237,83.2c0,1.7-0.1,3.4-1.2,4.8"/>
		<path fill="#FFFFFF" d="M166.8,194.1c-2.2,0.1-4.5,1-6.7-0.4"/>
		<path fill="#FFFFFF" d="M59.6,210.8c0.1,1,0.2,2.1,0.3,3.1"/>
		<path fill="#FFFFFF" d="M114.8,98.3c1.1,0.1,2.2,0,3.3,0.2c1,0.2,1.9,0.3,2.8-0.3"/>
		<path fill="#FFFFFF" d="M220.1,194.6c-1.5-0.8-3-1.7-4.6-2.5"/>
		<path fill="#FFFFFF" d="M252.4,127.7c-1.2,2.1-2.4,2.7-3.9,2"/>
		<path fill="#FFFFFF" d="M112.9,98.2c0.5,0.4,1.5-0.6,1.7,0.6"/>
		<path fill="#FFFFFF" d="M115.8,94.9c-0.7,1.6-2.2,0.7-3.3,1.1c-0.6,0.2-1.2,0.4-1.9,0.5"/>
		<path fill="#FFFFFF" d="M266.9,12.3c1,0.8,2,1.7,2.9,2.5"/>
		<path fill="#FFFFFF" d="M228.7,161.7c-0.4,0.6-0.7,1.2-1.1,1.9"/>
		<path fill="#FFFFFF" d="M294.9,37.3c0.9,1.4,1.9,2.8,2.8,4.1"/>
		<path fill="#FFFFFF" d="M245.8,129.5c0.5,1.3,1.1,2.7,1.6,4"/>
		<path fill="#FFFFFF" d="M251.7,143.7c0.3,1.3,0.6,2.7,0.9,4"/>
		<path fill="#FFFFFF" d="M267.3,15.9c-0.7,0.5-1.3,0.7-2.2,0c-0.4-0.3-1.2-0.2-1.8-0.3"/>
		<path fill="#FFFFFF" d="M87.3,179.2c-1.3,0.4-2.7,0.8-4,1.2"/>
		<path fill="#FFFFFF" d="M102.3,96.1c-0.4,0-0.8,0.1-1.2,0.1"/>
		<path fill="#FFFFFF" d="M252.9,60.2c-1.2,0.4-2.4,0.7-3.6,1.1"/>
		<path fill="#FFFFFF" d="M245,153.2c-1.5,0.5-2.1,1.9-2.9,3.1"/>
		<path fill="#FFFFFF" d="M133.2,132.2c-0.3-0.6-0.5-1.2-0.8-1.7c-0.3-0.5-0.7-0.9-1.1-1.3"/>
		<path fill="#FFFFFF" d="M99.6,88.2c0.1,1.5,0.3,2.9,0.4,4.4"/>
		<path fill="#FFFFFF" d="M267.9,65.4c-1.1,1.2-2.2,0-3.3,0.1"/>
		<path fill="#FFFFFF" d="M112.3,149.6c-0.2,1.1-0.8,2.1,0,3.2"/>
		<path fill="#FFFFFF" d="M301.6,43.9c0.1,1,1.3,2,0.3,3.1"/>
		<path fill="#FFFFFF" d="M248.2,134.9c0.6,1.1,1.3,2.1,2.7,2.3"/>
		<path fill="#FFFFFF" d="M242.1,159.7c-1-0.6-1.9-1-2.5,0.4"/>
		<path fill="#FFFFFF" d="M148.9,225.1c0.1,1,0.3,2,0.4,2.9"/>
		<path fill="#FFFFFF" d="M82.4,165.6c0.8,0.9,1.6,1.8,2.4,2.7"/>
		<path fill="#FFFFFF" d="M194.1,186.6c0.1,1,0.2,1.9,0.3,2.9"/>
		<path fill="#FFFFFF" d="M298.1,42.1c0.4,0.9,1.3,1.8,0.5,2.9"/>
		<path fill="#FFFFFF" d="M269.1,35.7c-1,0.1-2,0.3-2.9,0.4"/>
		<path fill="#FFFFFF" d="M47.2,200.8c-0.3-1.1-1.1-1.7-2.1-1.9"/>
		<path fill="#FFFFFF" d="M19.2,173.4c0.3,0.9,0.6,1.9,0.9,2.8"/>
		<path fill="#FFFFFF" d="M323.6,139.3c1.6,0.7,3.1,1.3,4.7,2"/>
		<path fill="#FFFFFF" d="M97.9,146.8c-0.5,0.8-1.3,1.1-2.3,0.9"/>
		<path fill="#FFFFFF" d="M66.8,183.2c-0.8,0.9-0.3,1.7,0.1,2.5"/>
		<path fill="#FFFFFF" d="M273.9,16.6c1.1,0.2,1.2,1,1.3,1.9"/>
		<path fill="#FFFFFF" d="M41.1,172.8c0.3,0.5,0.5,1,0.8,1.5c0.3,0.6,0.4,1.1,1.3,1.3c0.5,0.1,0.9,1.1,1.4,1.7"/>
		<path fill="#FFFFFF" d="M113.9,264.1c0,0.8,0.1,1.5,0.1,2.3"/>
		<path fill="#FFFFFF" d="M109.1,120.3c-0.8,0.1-1.7,0.3-2.5,0.4"/>
		<path fill="#FFFFFF" d="M247.3,70c0.8,0.2,1.6,0.4,2.4,0.7"/>
		<path fill="#FFFFFF" d="M283.3,114.4c-0.8,0-1.6,0-2.4,0"/>
		<path fill="#FFFFFF" d="M275.2,122.4c0.4,0.8,0.9,1.5,1.3,2.3"/>
		<path fill="#FFFFFF" d="M290.5,28.6c-1-0.4-2.1-0.9-3.1-1.3"/>
		<path fill="#FFFFFF" d="M279.3,38.5c0.6,0.3,1.2,0.6,1.9,0.9"/>
		<path fill="#FFFFFF" d="M126.5,102c0.9,1.2,1.9,2.3,2.8,3.5"/>
		<path fill="#FFFFFF" d="M182.8,176.3c0.8,0.1,1.5,0.3,2.3,0.4"/>
		<path fill="#FFFFFF" d="M239,95.9c-0.1,0.8-0.3,1.5-0.4,2.3"/>
		<path fill="#FFFFFF" d="M263.2,87.8c0.1,0.8,0.2,1.5,0.3,2.3"/>
		<path fill="#FFFFFF" d="M73.7,213.2c-0.7,0.1-1.4,0.3-2.1,0.4"/>
		<path fill="#FFFFFF" d="M334.3,151.5c-1.2-0.3-2.3-0.6-3.5-0.9"/>
		<path fill="#FFFFFF" d="M239.5,95.8c0.2,0.7,0.4,1.4,0.7,2.1"/>
		<path fill="#FFFFFF" d="M82.1,101.2c0.1,0.7,0.2,1.4,0.3,2.1"/>
		<path fill="#FFFFFF" d="M323.2,144.8c-0.4,0.7-0.8,1.4-1.2,2.1"/>
		<path fill="#FFFFFF" d="M235.2,174.8c0.1,0.7,0.3,1.4,0.4,2.1"/>
		<path fill="#FFFFFF" d="M233.5,100.1c0.1,0.7,0.2,1.4,0.3,2.1"/>
		<path fill="#FFFFFF" d="M49.3,209.3c-0.2,0.7-1.7,1-0.5,2"/>
		<path fill="#FFFFFF" d="M140.2,178c-0.1-1-0.8-1.2-1.6-1.2"/>
		<path fill="#FFFFFF" d="M311.5,125.5c-0.6,0.3-1.2,0.5-1.7,0.8"/>
		<path fill="#FFFFFF" d="M128.1,102c0.6,0.5,1.2,1,1.9,1.5"/>
		<path fill="#FFFFFF" d="M258.9,159.1c-0.6,0-1.2,0-1.9,0"/>
		<path fill="#FFFFFF" d="M113.3,93c-0.6,0.1-1.2,0.2-1.9,0.3"/>
		<path fill="#FFFFFF" d="M334.3,131.4c-0.4,0.6-0.9,1.2-1.3,1.9"/>
		<path fill="#FFFFFF" d="M270.2,240.8c-0.5-0.1-1.1-0.2-1.6-0.3"/>
		<path fill="#FFFFFF" d="M238.7,84.2c0,0.6,0,1.2,0,1.7"/>
		<path fill="#FFFFFF" d="M109,251.2c-0.5,0.1-1.1,0.2-1.6,0.3"/>
		<path fill="#FFFFFF" d="M245.4,118.7c0,0.6,0,1.2,0,1.7"/>
		<path fill="#FFFFFF" d="M56.5,226.1c-0.5,0-1.1-0.1-1.6-0.1"/>
		<path fill="#FFFFFF" d="M259.6,13.2c-0.6,0-1.2,0.1-1.7,0.1"/>
		<path fill="#FFFFFF" d="M291.2,42.9c-0.6,0-1.2,0.1-1.7,0.1"/>
		<path fill="#FFFFFF" d="M117.4,95.1c0.1,0.6,0.3,1.2,0.4,1.7"/>
		<path fill="#FFFFFF" d="M347.3,100.9c0.1,0.6,0.3,1.2,0.4,1.7"/>
		<path fill="#FFFFFF" d="M244.9,124.1c0,0.6-0.1,1.2-0.1,1.7"/>
		<path fill="#FFFFFF" d="M220,226.7c-0.3,0.5-0.5,1.1-0.8,1.6"/>
		<path fill="#FFFFFF" d="M204.4,193c-0.3,0.3-0.6,0.6-0.9,0.9"/>
		<path fill="#FFFFFF" d="M116.1,153c0.1,0.5,0.2,1,0.3,1.5"/>
		<path fill="#FFFFFF" d="M202.2,194.3c-0.8,0.4-1.7,0.8-1.7,1.9"/>
		<path fill="#FFFFFF" d="M280.1,24.7c-0.8,0.1-1.6,0.3-2.4,0.4"/>
		<path fill="#FFFFFF" d="M207.9,250.4c-0.1,0.5-0.2,1-0.3,1.5"/>
		<path fill="#FFFFFF" d="M104.3,102c0,0.4-0.1,0.9-0.1,1.3"/>
		<path fill="#FFFFFF" d="M132.6,243.1c-0.4-0.1-0.7-0.1-1.1-0.2"/>
		<path fill="#FFFFFF" d="M227.1,167.8c-0.4,0.2-0.9,0.4-1.3,0.7"/>
		<path fill="#FFFFFF" d="M279.9,127.3c0.3,0,0.6,0,0.9-0.1"/>
		<path fill="#FFFFFF" d="M231.3,167c-0.4,0.3-0.8,0.5-1.2,0.8"/>
		<path fill="#FFFFFF" d="M237.1,109.7c0.1,0.7,0.3,1.4,0.4,2.1"/>
		<path fill="#FFFFFF" d="M211.5,199.1c-0.2,0.3-0.4,0.6-0.7,0.9"/>
		<path fill="#FFFFFF" d="M251.3,138.5c-0.3,0-0.6,0-0.9-0.1"/>
		<path fill="#FFFFFF" d="M251.3,141.3c0,0.4-0.1,0.7-0.1,1.1"/>
		<path fill="#FFFFFF" d="M324.8,163.3c0,0.4,0,0.7,0,1.1"/>
		<path fill="#FFFFFF" d="M322.2,153.8c0.2,0.3,0.4,0.6,0.7,0.9"/>
	</g>
</g>
</svg>
